<svg width="368" height="368" viewBox="0 0 368 368" fill="none" xmlns="http://www.w3.org/2000/svg">
<g clip-path="url(#clip0_1144_950)">
<circle cx="184" cy="184" r="184" fill="#E6F3FB" fill-opacity="0.81"/>
<path d="M184 368C285.464 368 368 285.456 368 184C368 82.544 285.464 0 184 0C82.536 0 0 82.544 0 184C0 285.456 82.536 368 184 368ZM184 16C276.632 16 352 91.36 352 184C352 276.64 276.632 352 184 352C91.368 352 16 276.64 16 184C16 91.36 91.368 16 184 16Z" fill="#0084D7"/>
<path d="M224 144H240V168C240 172.416 243.576 176 248 176C252.424 176 256 172.416 256 168V144H272C276.424 144 280 140.416 280 136C280 131.584 276.424 128 272 128H256V104C256 99.584 252.424 96 248 96C243.576 96 240 99.584 240 104V128H224C219.576 128 216 131.584 216 136C216 140.416 219.576 144 224 144Z" fill="#0084D7"/>
<path d="M96 144H112V168C112 172.416 115.576 176 120 176C124.424 176 128 172.416 128 168V144H144C148.424 144 152 140.416 152 136C152 131.584 148.424 128 144 128H128V104C128 99.584 124.424 96 120 96C115.576 96 112 99.584 112 104V128H96C91.576 128 88 131.584 88 136C88 140.416 91.576 144 96 144Z" fill="#0084D7"/>
<path d="M184 304C232.52 304 272 264.52 272 216C272 211.584 268.424 208 264 208H104C99.576 208 96 211.584 96 216C96 264.52 135.48 304 184 304ZM255.552 224C251.56 259.952 221 288 184 288C147 288 116.44 259.952 112.448 224H255.552Z" fill="#0084D7"/>
</g>
<defs>
<clipPath id="clip0_1144_950">
<rect width="368" height="368" fill="white"/>
</clipPath>
</defs>
</svg>
