<svg width="21" height="21" viewBox="0 0 21 21" fill="none" xmlns="http://www.w3.org/2000/svg">
<g clip-path="url(#clip0_801_996)">
<path d="M20.1732 6.41595C19.3746 4.53145 18.0429 2.92909 16.3675 1.79607C14.6925 0.663059 12.6694 -0.000287016 10.5 9.31617e-08C9.05404 -8.19381e-05 7.67214 0.294492 6.41603 0.826793C4.53157 1.62545 2.92917 2.95694 1.79612 4.63243C0.6631 6.30734 -0.000287016 8.33044 9.31559e-08 10.5C-8.19381e-05 11.946 0.294533 13.3279 0.826834 14.584C1.62545 16.4686 2.95706 18.0709 4.63251 19.2039C6.30751 20.3369 8.33056 21.0003 10.5 21C11.9459 21.0001 13.3279 20.7055 14.584 20.1732C16.4685 19.3746 18.0708 18.0431 19.2039 16.3676C20.3369 14.6926 21.0003 12.6695 21 10.5C21.0001 9.05395 20.7055 7.67205 20.1732 6.41595ZM18.8841 14.0379C18.193 15.6695 17.0366 17.0617 15.5834 18.0441C14.1296 19.0266 12.3833 19.5997 10.5001 19.6C9.24423 19.5999 8.05026 19.3449 6.96228 18.8841C5.33064 18.1929 3.93844 17.0366 2.956 15.5834C1.97338 14.1297 1.40027 12.3833 1.39999 10.5C1.40007 9.2441 1.65506 8.0501 2.11587 6.96212C2.80703 5.33047 3.96342 3.93828 5.41665 2.95587C6.87036 1.97338 8.61673 1.40027 10.5 1.39999C11.7559 1.40007 12.9498 1.65502 14.0378 2.11587C15.6694 2.80699 17.0616 3.96338 18.0441 5.41661C19.0265 6.87032 19.5997 8.61664 19.6 10.5C19.5999 11.7559 19.3449 12.9499 18.8841 14.0379Z" fill="#4A4A4A"/>
<path d="M14.8588 6.14106C14.5913 5.87355 14.1577 5.87355 13.8902 6.14106L6.14112 13.8901C5.87361 14.1576 5.87361 14.5913 6.14112 14.8588C6.40862 15.1263 6.84224 15.1263 7.10974 14.8588L14.8589 7.10964C15.1263 6.84218 15.1263 6.40848 14.8588 6.14106Z" fill="#4A4A4A"/>
<path d="M10.0433 6.162H8.44517V4.56383C8.44517 4.18558 8.1385 3.87891 7.76025 3.87891C7.382 3.87891 7.07533 4.18558 7.07533 4.56383V6.162H5.47716C5.09891 6.162 4.79224 6.46867 4.79224 6.84692C4.79224 7.22517 5.09891 7.53184 5.47716 7.53184H7.07533V9.13001C7.07533 9.50826 7.382 9.81493 7.76025 9.81493C8.1385 9.81493 8.44517 9.50826 8.44517 9.13001V7.53184H10.0433C10.4216 7.53184 10.7283 7.22517 10.7283 6.84692C10.7283 6.46867 10.4216 6.162 10.0433 6.162Z" fill="#4A4A4A"/>
<path d="M15.9794 13.468H11.4133C11.035 13.468 10.7283 13.7747 10.7283 14.1529C10.7283 14.5312 11.035 14.8379 11.4133 14.8379H15.9795C16.3577 14.8379 16.6644 14.5312 16.6644 14.1529C16.6644 13.7747 16.3577 13.468 15.9794 13.468Z" fill="#4A4A4A"/>
</g>
<defs>
<clipPath id="clip0_801_996">
<rect width="21" height="21" fill="white"/>
</clipPath>
</defs>
</svg>
