<svg width="46" height="45" viewBox="0 0 46 45" fill="none" xmlns="http://www.w3.org/2000/svg">
<g clip-path="url(#clip0_760_616)">
<path d="M30.3546 26.6461C30.012 26.3025 29.4547 26.3025 29.112 26.6461C28.7685 26.9888 28.7685 27.546 29.112 27.8887C29.4547 28.2323 30.012 28.2323 30.3546 27.8887C30.6983 27.5459 30.6983 26.9888 30.3546 26.6461Z" fill="#4A4A4A"/>
<path d="M42.9488 4.96291C42.6056 4.61979 42.0491 4.61979 41.706 4.96291L39.7445 6.92437C39.4014 7.26749 39.4014 7.82401 39.7445 8.16714C39.9162 8.33879 40.141 8.42457 40.3659 8.42457C40.5908 8.42457 40.8157 8.3387 40.9873 8.16714L42.9488 6.20568C43.2919 5.86256 43.2919 5.30612 42.9488 4.96291Z" fill="#4A4A4A"/>
<path d="M36.7637 2.52954C36.2784 2.52954 35.8849 2.92294 35.8849 3.40836V6.70909C35.8849 7.19442 36.2783 7.58791 36.7637 7.58791C37.249 7.58791 37.6425 7.19451 37.6425 6.70909V3.40836C37.6424 2.92294 37.249 2.52954 36.7637 2.52954Z" fill="#4A4A4A"/>
<path d="M44.5911 10.3069H41.2903C40.805 10.3069 40.4115 10.7003 40.4115 11.1857C40.4115 11.671 40.8049 12.0645 41.2903 12.0645H44.5911C45.0764 12.0645 45.4699 11.6711 45.4699 11.1857C45.4699 10.7003 45.0765 10.3069 44.5911 10.3069Z" fill="#4A4A4A"/>
<path d="M38.5029 9.41025C38.1602 9.06669 37.6036 9.06599 37.2602 9.40858C37.0931 9.57522 36.8719 9.66707 36.6373 9.66707C36.4028 9.66707 36.1822 9.57558 36.0161 9.40937C34.9883 8.38167 33.3158 8.38158 32.2878 9.40955L31.6664 10.0315L30.4234 8.78808C29.9255 8.29018 29.2635 8.01587 28.5594 8.01587C27.8553 8.01587 27.1933 8.29009 26.6954 8.78799L25.0619 10.4215C22.6883 9.19571 20.0654 8.5491 17.4305 8.5491C12.9706 8.5491 8.73086 10.3327 5.49218 13.5713C2.25341 16.8101 0.469849 21.0498 0.469849 25.5097C0.469849 29.9696 2.25341 34.2093 5.49209 37.448C8.73078 40.6867 12.9705 42.4702 17.4304 42.4702C21.8902 42.4702 26.13 40.6867 29.3686 37.448C32.6073 34.2093 34.3909 29.9695 34.3909 25.5097C34.3909 22.8747 33.7442 20.2518 32.5184 17.8784L34.1519 16.2449C34.6498 15.7469 34.924 15.085 34.924 14.3809C34.924 13.6768 34.6497 13.0148 34.1519 12.517L32.9092 11.2742L33.5307 10.6524C33.8731 10.3099 34.4305 10.3098 34.773 10.6524C35.2711 11.1504 35.9331 11.4248 36.637 11.4248C37.3402 11.4248 38.0022 11.1508 38.5011 10.6532C38.8448 10.3104 38.8455 9.75399 38.5029 9.41025ZM32.6333 25.5097C32.6333 33.7506 25.6713 40.7127 17.4304 40.7127C9.18948 40.7127 2.22731 33.7506 2.22731 25.5097C2.22731 17.2688 9.18948 10.3067 17.4305 10.3067C19.9957 10.3067 22.5513 10.9921 24.8213 12.2888C27.2493 13.6748 29.2654 15.6908 30.6513 18.1189L30.6514 18.1192C31.948 20.3888 32.6333 22.9444 32.6333 25.5097ZM33.1666 14.3807C33.1666 14.6154 33.0752 14.836 32.9091 15.0019L31.6011 16.3099C30.2999 14.3328 28.6071 12.64 26.6301 11.3388L27.9381 10.0309C28.1041 9.86491 28.3247 9.77351 28.5593 9.77351C28.794 9.77351 29.0145 9.86491 29.1804 10.0308L31.0443 11.8955C31.0472 11.8984 31.0503 11.9008 31.0532 11.9036L32.9092 13.7596C33.0752 13.9255 33.1666 14.1461 33.1666 14.3807Z" fill="#4A4A4A"/>
<path d="M28.846 30.1819C28.4112 29.9658 27.884 30.1431 27.6678 30.5775C25.7185 34.4983 21.7957 36.934 17.4303 36.934C16.945 36.934 16.5515 37.3274 16.5515 37.8128C16.5515 38.2981 16.945 38.6916 17.4304 38.6916C19.9282 38.6916 22.3613 37.9867 24.4664 36.6531C26.5136 35.3561 28.1649 33.5259 29.2417 31.3601C29.4577 30.9256 29.2805 30.3981 28.846 30.1819Z" fill="#4A4A4A"/>
</g>
<defs>
<clipPath id="clip0_760_616">
<rect width="45" height="45" fill="white" transform="translate(0.469849)"/>
</clipPath>
</defs>
</svg>
