<svg width="46" height="45" viewBox="0 0 46 45" fill="none" xmlns="http://www.w3.org/2000/svg">
<g clip-path="url(#clip0_801_1153)">
<path d="M41.6643 22.131H41.7078C42.1059 22.1316 42.4351 21.8211 42.4578 21.4237C42.4645 21.2835 42.4645 21.1417 42.4645 21C42.4673 17.3311 41.5027 13.7265 39.6681 10.5495C39.6606 10.5337 39.6606 10.5157 39.6516 10.5C39.6426 10.4842 39.6269 10.476 39.6171 10.461C37.7785 7.30976 35.1561 4.68783 32.0048 2.84995C31.9898 2.83945 31.9816 2.82445 31.9658 2.81545C31.9501 2.80645 31.9321 2.80645 31.9163 2.79895C25.4518 -0.928101 17.4914 -0.928101 11.0269 2.79895C11.0074 2.80795 10.9872 2.80795 10.9684 2.81845C10.9497 2.82895 10.9377 2.8492 10.9197 2.86195C10.1739 3.28864 9.4549 3.76052 8.76669 4.27495C8.55236 4.43733 8.44092 4.70173 8.47436 4.96856C8.5078 5.23539 8.68103 5.46411 8.9288 5.56856C9.17658 5.67301 9.46124 5.63733 9.67558 5.47495C10.1308 5.12845 10.5995 4.80745 11.0772 4.50445L11.8188 5.78995C12.0273 6.14561 12.4837 6.2663 12.8407 6.06016C13.1977 5.85402 13.3214 5.39835 13.1176 5.03995L12.3722 3.74845C14.9502 2.38682 17.8035 1.62826 20.7172 1.52995V2.99995C20.7172 3.41417 21.0529 3.74995 21.4671 3.74995C21.8813 3.74995 22.217 3.41417 22.217 2.99995V1.5187C25.1296 1.62732 27.9801 2.39208 30.556 3.75595L29.8166 5.03695C29.6805 5.26913 29.6792 5.55644 29.8132 5.78981C29.9473 6.02319 30.1961 6.16685 30.4652 6.16626C30.7343 6.16567 30.9824 6.02091 31.1154 5.78695L31.8533 4.51195C34.315 6.06866 36.3995 8.15351 37.9561 10.6155L36.6812 11.3535C36.4473 11.4865 36.3025 11.7347 36.302 12.0038C36.3014 12.2729 36.445 12.5217 36.6784 12.6558C36.9117 12.7898 37.199 12.7886 37.4311 12.6525L38.7112 11.913C40.1938 14.7122 40.9676 17.8323 40.9647 21C40.9647 21.1125 40.9647 21.225 40.9587 21.339C40.9472 21.5376 41.0151 21.7326 41.1475 21.8811C41.2798 22.0297 41.4657 22.1195 41.6643 22.131Z" fill="#4A4A4A"/>
<path d="M33.4658 21C26.8392 21 21.4673 26.3726 21.4673 33C21.4673 39.6274 26.8392 45 33.4658 45C40.0924 45 45.4643 39.6274 45.4643 33C45.4565 26.3758 40.0891 21.0079 33.4658 21ZM33.4658 43.5C29.2195 43.5 25.3913 40.9418 23.7663 37.0182C22.1413 33.0946 23.0395 28.5784 26.0421 25.5754C29.0447 22.5724 33.5604 21.6741 37.4835 23.2993C41.4066 24.9245 43.9645 28.7531 43.9645 33C43.9583 38.7964 39.2615 43.4938 33.4658 43.5Z" fill="#4A4A4A"/>
<path d="M23.0618 6.66979C22.6439 6.23835 22.068 5.99641 21.4675 6.00004C20.225 6.00004 19.2177 7.0074 19.2177 8.25004V19.0365C18.7882 19.5271 18.5318 20.1454 18.4881 20.796L13.4382 25.8465C12.5592 26.7255 12.559 28.1507 13.4378 29.0299C14.3167 29.9091 15.7418 29.9093 16.6208 29.0303L21.6714 23.9798C22.808 23.9119 23.806 23.2008 24.2414 22.1486C24.6769 21.0964 24.4733 19.8879 23.7172 19.0365V8.25004C23.7216 7.65627 23.4851 7.08607 23.0618 6.66979ZM21.4675 7.50004C21.6694 7.49974 21.8626 7.58277 22.0014 7.72954C22.1413 7.86634 22.2193 8.05435 22.2174 8.25004V18.1065C21.7275 17.9645 21.2074 17.9645 20.7176 18.1065V8.25004C20.7176 7.83583 21.0533 7.50004 21.4675 7.50004ZM15.5604 27.9698C15.2632 28.2532 14.7958 28.2532 14.4986 27.9698C14.2118 27.6742 14.2118 27.2042 14.4986 26.9085L18.8923 22.5143C19.1505 22.9526 19.5159 23.3181 19.9542 23.5763L15.5604 27.9698ZM21.4675 22.5C20.6391 22.5 19.9677 21.8285 19.9677 21C19.9677 20.1716 20.6391 19.5 21.4675 19.5C22.2958 19.5 22.9673 20.1716 22.9673 21C22.9673 21.8285 22.2958 22.5 21.4675 22.5Z" fill="#4A4A4A"/>
<path d="M3.32934 31.5607C5.16756 34.7025 7.78542 37.3165 10.9296 39.15C10.9446 39.1605 10.9529 39.1755 10.9686 39.1845C10.993 39.196 11.0181 39.206 11.0436 39.2145C14.2139 41.0411 17.8087 42.0017 21.4673 42C21.6091 42 21.7508 42 21.8925 41.991C22.3058 41.9672 22.6216 41.6131 22.5982 41.1997C22.5652 40.791 22.2169 40.4803 21.807 40.494C21.6923 40.5 21.5821 40.5 21.4673 40.5C18.2988 40.5027 15.178 39.7281 12.3785 38.244L13.1179 36.963C13.3216 36.6046 13.1979 36.1489 12.8409 35.9428C12.4839 35.7366 12.0275 35.8573 11.819 36.213L11.0811 37.488C8.61981 35.9321 6.53525 33.8483 4.97839 31.3875L6.25323 30.6495C6.48716 30.5165 6.6319 30.2683 6.63249 29.9992C6.63308 29.73 6.48944 29.4812 6.25609 29.3472C6.02274 29.2131 5.73547 29.2144 5.50332 29.3505L4.22323 30.09C2.86031 27.5136 2.09642 24.6628 1.98851 21.75H3.46957C3.88374 21.75 4.21948 21.4142 4.21948 21C4.21948 20.5858 3.88374 20.25 3.46957 20.25H1.99976C2.09733 17.3363 2.85449 14.4827 4.21423 11.904L5.50557 12.6495C5.73772 12.7856 6.02499 12.7869 6.25834 12.6528C6.49169 12.5188 6.63533 12.27 6.63474 12.0008C6.63415 11.7317 6.48941 11.4835 6.25548 11.3505L4.96939 10.608C5.26935 10.1302 5.59331 9.66149 5.93977 9.20624C6.11397 8.9941 6.15837 8.70373 6.05553 8.44922C5.95268 8.1947 5.71903 8.01672 5.44636 7.9852C5.1737 7.95368 4.9056 8.07366 4.74742 8.29799C4.22913 8.98584 3.75331 9.70467 3.32259 10.4505C3.30984 10.4685 3.29035 10.4797 3.2791 10.5C3.26785 10.5202 3.2686 10.5397 3.25885 10.5592C-0.467143 17.0245 -0.467143 24.9853 3.25885 31.4505C3.26635 31.4662 3.26635 31.4842 3.27535 31.5C3.29219 31.5212 3.31022 31.5415 3.32934 31.5607Z" fill="#4A4A4A"/>
<path d="M36.4654 29.625C36.4654 30.0392 36.8011 30.375 37.2153 30.375C37.6294 30.375 37.9652 30.0392 37.9652 29.625C37.8862 27.5321 36.2953 25.8083 34.2157 25.5623V25.5C34.2157 25.0858 33.8799 24.75 33.4657 24.75C33.0516 24.75 32.7158 25.0858 32.7158 25.5V25.5623C30.6362 25.8083 29.0453 27.5321 28.9663 29.625C29.0453 31.7179 30.6362 33.4417 32.7158 33.6877V38.907C31.4671 38.6914 30.5334 37.6406 30.4661 36.375C30.4661 35.9608 30.1304 35.625 29.7162 35.625C29.3021 35.625 28.9663 35.9608 28.9663 36.375C29.0453 38.4679 30.6362 40.1917 32.7158 40.4377V40.5C32.7158 40.9142 33.0516 41.25 33.4657 41.25C33.8799 41.25 34.2157 40.9142 34.2157 40.5V40.4377C36.3347 40.2697 37.9686 38.5009 37.9686 36.375C37.9686 34.2491 36.3347 32.4803 34.2157 32.3123V27.093C35.4644 27.3086 36.3981 28.3594 36.4654 29.625ZM30.4661 29.625C30.5334 28.3594 31.4671 27.3086 32.7158 27.093V32.157C31.4671 31.9414 30.5334 30.8906 30.4661 29.625ZM36.4654 36.375C36.3981 37.6406 35.4644 38.6914 34.2157 38.907V33.843C35.4644 34.0586 36.3981 35.1094 36.4654 36.375Z" fill="#4A4A4A"/>
</g>
<defs>
<clipPath id="clip0_801_1153">
<rect width="45" height="45" fill="white" transform="translate(0.469971)"/>
</clipPath>
</defs>
</svg>
