<svg width="21" height="21" viewBox="0 0 21 21" fill="none" xmlns="http://www.w3.org/2000/svg">
<g clip-path="url(#clip0_801_1020)">
<path d="M10.5 0C10.1602 0 9.88477 0.275461 9.88477 0.615234V1.92773C9.88477 2.26751 10.1602 2.54297 10.5 2.54297C10.8398 2.54297 11.1152 2.26751 11.1152 1.92773V0.615234C11.1152 0.275461 10.8398 0 10.5 0Z" fill="#4A4A4A"/>
<path d="M10.5 18.457C10.1602 18.457 9.88477 18.7325 9.88477 19.0723V20.3848C9.88477 20.7245 10.1602 21 10.5 21C10.8398 21 11.1152 20.7245 11.1152 20.3848V19.0723C11.1152 18.7325 10.8398 18.457 10.5 18.457Z" fill="#4A4A4A"/>
<path d="M4.90256 4.03235L3.97446 3.10424C3.73419 2.86402 3.34462 2.86402 3.1044 3.10424C2.86413 3.34451 2.86413 3.73408 3.1044 3.97431L4.0325 4.90241C4.15259 5.02254 4.31005 5.08263 4.46751 5.08263C4.62497 5.08263 4.78243 5.02254 4.90256 4.90241C5.14283 4.66214 5.14283 4.27257 4.90256 4.03235Z" fill="#4A4A4A"/>
<path d="M17.8957 17.0255L16.9676 16.0974C16.7273 15.8572 16.3377 15.8572 16.0975 16.0974C15.8572 16.3377 15.8572 16.7272 16.0975 16.9675L17.0256 17.8956C17.1457 18.0157 17.3032 18.0758 17.4606 18.0758C17.6181 18.0758 17.7755 18.0157 17.8957 17.8956C18.1359 17.6553 18.1359 17.2657 17.8957 17.0255Z" fill="#4A4A4A"/>
<path d="M1.92773 9.88477H0.615234C0.275461 9.88477 0 10.1602 0 10.5C0 10.8398 0.275461 11.1152 0.615234 11.1152H1.92773C2.26751 11.1152 2.54297 10.8398 2.54297 10.5C2.54297 10.1602 2.26751 9.88477 1.92773 9.88477Z" fill="#4A4A4A"/>
<path d="M20.3848 9.88477H19.0723C18.7325 9.88477 18.457 10.1602 18.457 10.5C18.457 10.8398 18.7325 11.1152 19.0723 11.1152H20.3848C20.7245 11.1152 21 10.8398 21 10.5C21 10.1602 20.7245 9.88477 20.3848 9.88477Z" fill="#4A4A4A"/>
<path d="M4.90256 16.0974C4.66229 15.8572 4.27273 15.8572 4.0325 16.0974L3.1044 17.0255C2.86413 17.2658 2.86413 17.6553 3.1044 17.8956C3.22449 18.0157 3.38195 18.0758 3.53941 18.0758C3.69687 18.0758 3.85433 18.0157 3.97442 17.8956L4.90256 16.9675C5.14283 16.7272 5.14283 16.3376 4.90256 16.0974Z" fill="#4A4A4A"/>
<path d="M17.8957 3.10449C17.6554 2.86426 17.2658 2.86426 17.0256 3.10449L16.0975 4.03255C15.8572 4.27282 15.8572 4.66238 16.0975 4.90261C16.2176 5.02275 16.3751 5.08284 16.5325 5.08284C16.69 5.08284 16.8474 5.02275 16.9676 4.90265L17.8957 3.97455C18.1359 3.73428 18.1359 3.34472 17.8957 3.10449Z" fill="#4A4A4A"/>
<path d="M10.5 3.97852C6.90404 3.97852 3.97852 6.90404 3.97852 10.5C3.97852 14.096 6.90404 17.0215 10.5 17.0215C14.096 17.0215 17.0215 14.096 17.0215 10.5C17.0215 6.90404 14.096 3.97852 10.5 3.97852ZM11.1152 15.755V5.24496C13.7439 5.55077 15.791 7.79063 15.791 10.5C15.791 13.2094 13.7439 15.4492 11.1152 15.755Z" fill="#4A4A4A"/>
</g>
<defs>
<clipPath id="clip0_801_1020">
<rect width="21" height="21" fill="white"/>
</clipPath>
</defs>
</svg>
