<svg width="45" height="45" viewBox="0 0 45 45" fill="none" xmlns="http://www.w3.org/2000/svg">
<path d="M42.5131 24.5432C42.8252 24.7974 43.1359 24.7942 43.4453 24.5335L44.6916 23.261C45.1027 22.8414 45.1027 22.1587 44.6917 21.7392L43.4453 20.4666C43.1908 20.2066 42.7733 20.2021 42.5131 20.4568C42.253 20.7116 42.2486 21.1289 42.5035 21.389L42.946 21.8409H39.4897C39.1943 20.6559 38.1218 19.7753 36.8473 19.7753C36.5581 19.7753 36.2794 19.821 36.0176 19.9051L32.5273 14.2615L35.0252 11.6279C35.5082 12.0638 36.1473 12.3297 36.8474 12.3297C38.1219 12.3297 39.1944 11.449 39.4898 10.2641H42.9461L42.5035 10.7159C42.2488 10.976 42.2531 11.3934 42.5132 11.6481C42.8253 11.9023 43.136 11.899 43.4454 11.6383L44.6917 10.3658C45.1028 9.94625 45.1028 9.26351 44.6918 8.84401L43.4453 7.57144C43.1908 7.31146 42.7733 7.30689 42.5131 7.56169C42.253 7.81639 42.2486 8.23379 42.5035 8.49385L42.946 8.9457H39.4897C39.1942 7.76076 38.1217 6.88009 36.8472 6.88009C36.0685 6.88009 35.3655 7.20942 34.8687 7.73553L27.243 3.44567C27.3061 3.21592 27.3405 2.9744 27.3405 2.72488C27.3405 1.22239 26.1187 0 24.617 0C23.3426 0 22.2701 0.880666 21.9747 2.06561H17.5913C17.4621 1.57149 17.1912 1.11199 16.805 0.749796C16.2507 0.23001 15.5117 -0.0411329 14.7782 0.00615236C14.4148 0.0294434 14.1392 0.34295 14.1626 0.706203C14.186 1.06946 14.5005 1.34561 14.8627 1.32179C15.6396 1.27266 16.358 1.9452 16.3585 2.724C16.3585 3.49366 15.7233 4.13122 14.9536 4.13122C14.5296 4.13122 14.1296 3.92705 13.8562 3.57109C13.5814 3.21346 13.4867 2.77287 13.5963 2.36233C13.6901 2.01059 13.4811 1.64936 13.1294 1.5554C12.7779 1.46162 12.4164 1.67054 12.3225 2.02228C12.1968 2.4932 12.2053 2.98011 12.3373 3.44013L4.70193 7.73536C4.20506 7.20924 3.50217 6.88 2.72333 6.88C1.22165 6.88 0 8.1023 0 9.60479C0 11.1073 1.22165 12.3296 2.72333 12.3296C3.4235 12.3296 4.06267 12.0637 4.54565 11.6278L7.04354 14.2614L3.55323 19.905C3.2914 19.821 3.01277 19.7752 2.72342 19.7752C1.22174 19.7752 8.78948e-05 20.9976 8.78948e-05 22.5C8.78948e-05 24.0024 1.22174 25.2247 2.72342 25.2247C3.01277 25.2247 3.2914 25.179 3.55323 25.0949L6.72298 30.2201L4.06337 33.0244C3.66741 32.7994 3.21036 32.6703 2.72342 32.6703C1.22174 32.6703 8.78948e-05 33.8926 8.78948e-05 35.3951C8.78948e-05 36.8976 1.22174 38.1199 2.72342 38.1199C3.50225 38.1199 4.20515 37.7906 4.70202 37.2646L12.3278 41.5544C12.2647 41.7842 12.2303 42.0257 12.2303 42.2752C12.2303 43.7777 13.4519 45 14.9536 45C16.2281 45 17.3004 44.1193 17.5958 42.9344H21.9792C22.1106 43.4384 22.3896 43.9054 22.7884 44.2709C23.3437 44.7799 24.102 45.0549 24.8546 44.9892C25.2174 44.9576 25.4858 44.6379 25.4541 44.2752C25.4224 43.9124 25.1032 43.6451 24.7401 43.6758C23.952 43.7441 23.2119 43.0665 23.2119 42.2752C23.2119 41.4997 23.8422 40.8688 24.6169 40.8688C25.4636 40.8688 26.1544 41.7073 25.9966 42.5384C25.9289 42.8961 26.1638 43.241 26.5215 43.3088C26.8795 43.3766 27.2242 43.1417 27.2921 42.784C27.3699 42.3737 27.3473 41.9557 27.234 41.5593L34.8686 37.2646C35.3653 37.7907 36.0683 38.12 36.8471 38.12C38.1215 38.12 39.194 37.2393 39.4894 36.0544H42.9457L42.5032 36.5062C42.2485 36.7663 42.2528 37.1837 42.5129 37.4384C42.825 37.6926 43.1357 37.6893 43.4451 37.4286L44.6913 36.1562C45.1024 35.7366 45.1024 35.0538 44.6914 34.6343L43.4451 33.3618C43.1905 33.1018 42.773 33.0972 42.5129 33.352C42.2528 33.6067 42.2484 34.0241 42.5032 34.2842L42.9457 34.736H39.4894C39.194 33.5511 38.1215 32.6704 36.8471 32.6704C36.3601 32.6704 35.9031 32.7995 35.5071 33.0245L32.8475 30.2204L36.0173 25.0951C36.279 25.1791 36.5577 25.2249 36.847 25.2249C38.1215 25.2249 39.1939 24.3443 39.4894 23.1593H42.9456L42.5031 23.6112C42.2486 23.8711 42.253 24.2884 42.5131 24.5432ZM27.3402 32.3785C27.3389 31.9718 27.2476 31.586 27.0859 31.2394L29.8657 28.992L31.1922 30.3906L29.6166 32.9383L27.3402 32.3785ZM21.9747 41.6161H17.5959C17.5273 41.3408 17.4168 41.082 17.2715 40.8469L19.7853 38.2747L22.2991 40.8468C22.1538 41.082 22.0433 41.3408 21.9747 41.6161ZM16.329 39.9249C15.925 39.6874 15.4552 39.5505 14.9537 39.5505C14.6644 39.5505 14.3856 39.5963 14.1239 39.6803L10.683 34.1167L12.5457 33.6587C13.0031 34.5224 13.9106 35.1125 14.9536 35.1125C15.4551 35.1125 15.925 34.9756 16.3288 34.738L18.8634 37.3315L16.329 39.9249ZM12.2306 12.6216C12.2319 13.0284 12.3231 13.4142 12.4848 13.7607L10.1647 15.6365L8.69912 14.0912L9.95417 12.0618L12.2306 12.6216ZM17.5961 3.38397H21.9747C22.031 3.60994 22.1152 3.82501 22.2241 4.02487L19.7175 6.65597L17.2716 4.15319C17.417 3.91808 17.5274 3.65925 17.5961 3.38397ZM23.1179 4.998C23.5482 5.28303 24.0635 5.44958 24.6171 5.44958C24.9065 5.44958 25.1852 5.40379 25.4469 5.31977L28.8878 10.8833L27.025 11.3414C26.5677 10.4776 25.6602 9.88763 24.6171 9.88763C24.1157 9.88763 23.6458 10.0245 23.2418 10.262L20.6397 7.59957L23.1179 4.998ZM34.205 21.8409H27.2594C27.1379 21.3535 26.8853 20.9176 26.5409 20.5732L29.5244 17.4274L34.3784 21.3518C34.3058 21.5075 34.2473 21.671 34.205 21.8409ZM13.5488 22.5C13.5488 21.7245 14.1791 21.0936 14.9537 21.0936C15.7164 21.0936 16.3585 21.7354 16.3585 22.5C16.3585 23.2756 15.7283 23.9065 14.9537 23.9065C14.1791 23.9065 13.5488 23.2756 13.5488 22.5ZM21.9747 21.8409H17.5959C17.5273 21.5656 17.4168 21.3068 17.2715 21.0716L19.7853 18.4994L22.2991 21.0716C22.1538 21.3067 22.0433 21.5656 21.9747 21.8409ZM17.596 23.1592H21.9747C22.0434 23.4345 22.1539 23.6933 22.2993 23.9285L19.7855 26.5007L17.2716 23.9284C17.4169 23.6933 17.5274 23.4345 17.596 23.1592ZM23.2159 22.5757C23.3063 21.7853 23.7049 21.0935 24.6171 21.0935C25.3917 21.0935 26.022 21.7245 26.022 22.5C26.022 23.2754 25.3917 23.9064 24.6171 23.9064C23.8678 23.9065 23.2555 23.316 23.2159 22.5757ZM25.3775 19.8841C25.136 19.8137 24.881 19.7753 24.617 19.7753C24.1155 19.7753 23.6456 19.9122 23.2417 20.1497L20.707 17.5563L23.2417 14.9628C23.6456 15.2004 24.1155 15.3372 24.617 15.3372C25.2324 15.3372 25.8005 15.1317 26.2571 14.786L28.4959 16.5961L25.3775 19.8841ZM17.596 13.2716H21.9747C22.0434 13.5469 22.1539 13.8057 22.2993 14.0409L19.7855 16.613L17.2717 14.0408C17.4169 13.8057 17.5274 13.5469 17.596 13.2716ZM26.022 12.6124C26.022 13.3702 25.3895 14.0188 24.6171 14.0188C23.8424 14.0188 23.2121 13.388 23.2121 12.6124C23.2121 11.8369 23.8424 11.206 24.6171 11.206C25.3917 11.206 26.022 11.8369 26.022 12.6124ZM27.0859 13.7607C27.2476 13.4141 27.3388 13.0283 27.3402 12.6216L29.6166 12.0618L30.8717 14.0912L29.4062 15.6365L27.0859 13.7607ZM22.2992 11.1839C22.1538 11.4191 22.0433 11.678 21.9747 11.9532H17.5959C17.5245 11.6664 17.4072 11.3978 17.2527 11.1547L19.7296 8.55476L22.2992 11.1839ZM16.3586 12.6124C16.3586 13.388 15.7284 14.0188 14.9538 14.0188C14.1894 14.0188 13.5489 13.3685 13.5489 12.6124C13.5489 11.8369 14.1792 11.206 14.9538 11.206C15.7284 11.206 16.3586 11.8369 16.3586 12.6124ZM13.3137 14.786C13.7702 15.1316 14.3384 15.3371 14.9537 15.3371C15.4552 15.3371 15.925 15.2003 16.3289 14.9627L18.8635 17.5562L16.329 20.1497C15.925 19.9121 15.4552 19.7753 14.9537 19.7753C14.6898 19.7753 14.4348 19.8137 14.1932 19.8841L11.0747 16.5961L13.3137 14.786ZM13.0299 20.5732C12.6854 20.9175 12.4329 21.3535 12.3113 21.8409H5.3658C5.32343 21.671 5.26498 21.5075 5.19238 21.3518L10.0464 17.4275L13.0299 20.5732ZM5.3658 23.1592H12.3113C12.3833 23.448 12.5017 23.7185 12.6578 23.9628L9.58668 27.201L5.19238 23.6483C5.26498 23.4926 5.32343 23.3291 5.3658 23.1592ZM13.6137 24.8707C14.0096 25.0956 14.4668 25.2248 14.9537 25.2248C15.4552 25.2248 15.925 25.0879 16.329 24.8504L18.8636 27.4438L16.329 30.0373C15.925 29.7997 15.4552 29.6629 14.9538 29.6629C14.3385 29.6629 13.7703 29.8684 13.3138 30.214L10.6152 28.0323L13.6137 24.8707ZM21.9747 31.7285H17.5959C17.5273 31.4532 17.4168 31.1944 17.2715 30.9593L19.7854 28.3871L22.2992 30.9592C22.1538 31.1944 22.0433 31.4532 21.9747 31.7285ZM15.935 33.3917C15.6839 33.6334 15.2967 33.7941 14.9537 33.7941C14.1791 33.7941 13.5488 33.1632 13.5488 32.3877C13.5488 31.6298 14.1814 30.9812 14.9537 30.9812C15.7158 30.9812 16.3585 31.6228 16.3585 32.3877C16.3586 32.7355 16.19 33.1434 15.935 33.3917ZM12.4848 31.2394C12.3232 31.586 12.232 31.9718 12.2306 32.3784L9.95417 32.9382L8.37848 30.3905L9.7049 28.9919L12.4848 31.2394ZM17.2715 33.8161C17.4168 33.5809 17.5274 33.3221 17.5959 33.0469H21.9747C22.0433 33.3221 22.1538 33.581 22.2992 33.8162L19.7854 36.3883L17.2715 33.8161ZM23.2159 32.4633C23.3044 31.6896 23.7135 30.9812 24.6171 30.9812C25.3815 30.9812 26.022 31.6316 26.022 32.3877C26.022 33.1632 25.3917 33.7941 24.6171 33.7941C23.8678 33.7941 23.2555 33.2036 23.2159 32.4633ZM26.2572 30.214C25.8006 29.8684 25.2325 29.6629 24.6171 29.6629C24.1157 29.6629 23.6458 29.7997 23.2418 30.0373L20.7072 27.4438L23.2418 24.8504C23.6457 25.088 24.1156 25.2248 24.6171 25.2248C25.1041 25.2248 25.5611 25.0957 25.9571 24.8707L28.9557 28.0323L26.2572 30.214ZM26.9129 23.9629C27.069 23.7186 27.1874 23.4481 27.2594 23.1592H34.205C34.2473 23.3291 34.3058 23.4926 34.3784 23.6483L29.984 27.201L26.9129 23.9629ZM34.2487 19.5516L30.4345 16.4679L31.5889 15.2508L34.2487 19.5516ZM30.9622 11.731L33.7636 11.0421L31.81 13.102L30.9622 11.731ZM36.8472 8.19845C37.6219 8.19845 38.2522 8.82933 38.2522 9.60488C38.2522 10.3804 37.6219 11.0113 36.8472 11.0113C36.0726 11.0113 35.4424 10.3804 35.4424 9.60488C35.4424 8.82933 36.0726 8.19845 36.8472 8.19845ZM34.2214 8.88409C34.1591 9.11102 34.125 9.34947 34.1242 9.59574L30.2333 10.5525L26.5669 4.62437C26.5766 4.61444 26.5861 4.60434 26.5956 4.59423L34.2214 8.88409ZM24.617 1.31836C25.3917 1.31836 26.0219 1.94933 26.0219 2.72479C26.0219 3.50025 25.3917 4.13113 24.617 4.13113C23.8423 4.13113 23.212 3.50025 23.212 2.72479C23.212 1.94933 23.8423 1.31836 24.617 1.31836ZM16.329 5.07517L18.8075 7.61126L16.2989 10.2447C15.9017 10.018 15.4428 9.88763 14.9537 9.88763C13.9106 9.88763 13.0031 10.4777 12.5457 11.3415L10.683 10.8834L14.1262 5.31607C14.3904 5.40309 14.6686 5.44958 14.9537 5.44958C15.4552 5.44958 15.925 5.31274 16.329 5.07517ZM12.9908 4.58535C12.9982 4.59335 13.0054 4.60179 13.0129 4.60961L9.3375 10.5524L5.44666 9.59565C5.44587 9.34938 5.41177 9.11094 5.34945 8.884L12.9908 4.58535ZM2.72351 11.0113C1.94889 11.0113 1.3186 10.3804 1.3186 9.60488C1.3186 8.82933 1.9488 8.19845 2.72351 8.19845C3.49821 8.19845 4.12842 8.82933 4.12842 9.60488C4.12842 10.3804 3.49812 11.0113 2.72351 11.0113ZM5.80721 11.042L8.60868 11.7309L7.76084 13.1018L5.80721 11.042ZM9.13622 16.4679L5.32212 19.5515L7.9819 15.2508L9.13622 16.4679ZM1.31851 22.5C1.31851 21.7245 1.9488 21.0936 2.72342 21.0936C3.48784 21.0936 4.12833 21.7439 4.12833 22.5C4.12833 23.258 3.49575 23.9065 2.72342 23.9065C1.9488 23.9065 1.31851 23.2756 1.31851 22.5ZM5.32212 25.4486L8.67653 28.1606L7.66135 29.231L5.32212 25.4486ZM8.60868 33.2691L5.13138 34.1242C5.09667 34.0586 5.05913 33.9948 5.01932 33.9324L7.4402 31.3798L8.60868 33.2691ZM2.72351 36.8016C1.94889 36.8016 1.3186 36.1708 1.3186 35.3952C1.3186 34.6197 1.94889 33.9888 2.72351 33.9888C3.49812 33.9888 4.12842 34.6197 4.12842 35.3952C4.12842 36.1708 3.49812 36.8016 2.72351 36.8016ZM5.34936 36.1161C5.41168 35.8892 5.44578 35.6507 5.44658 35.4044L9.33741 34.4477L13.0038 40.3758C12.9941 40.3857 12.9846 40.3958 12.975 40.4059L5.34936 36.1161ZM14.9537 43.6817C14.1791 43.6817 13.5488 43.0508 13.5488 42.2753C13.5488 41.4998 14.1791 40.869 14.9537 40.869C15.7158 40.869 16.3585 41.5105 16.3585 42.2753C16.3586 43.0508 15.7284 43.6817 14.9537 43.6817ZM23.2418 39.9249L20.7071 37.3314L23.2418 34.738C23.6457 34.9754 24.1156 35.1124 24.617 35.1124C25.6602 35.1124 26.5677 34.5223 27.0249 33.6586L28.8877 34.1167L25.444 39.6846C25.1791 39.5971 24.9007 39.5504 24.617 39.5504C24.1156 39.5505 23.6457 39.6874 23.2418 39.9249ZM26.581 40.4142C26.5734 40.4061 26.5655 40.3985 26.5578 40.3905L30.2333 34.4477L34.1242 35.4044C34.125 35.6507 34.1591 35.8892 34.2214 36.116L26.581 40.4142ZM38.2522 35.3952C38.2522 36.1708 37.6219 36.8016 36.8472 36.8016C36.0726 36.8016 35.4424 36.1708 35.4424 35.3952C35.4424 34.6197 36.0726 33.9888 36.8472 33.9888C37.6219 33.9888 38.2522 34.6197 38.2522 35.3952ZM34.5514 33.9324C34.5116 33.9948 34.4742 34.0587 34.4394 34.1242L30.9621 33.2691L32.1305 31.3799L34.5514 33.9324ZM30.8942 28.1606L34.2487 25.4486L31.9095 29.231L30.8942 28.1606ZM36.8472 23.9065C36.0828 23.9065 35.4424 23.2563 35.4424 22.5C35.4424 21.7245 36.0726 21.0936 36.8472 21.0936C37.6219 21.0936 38.2522 21.7246 38.2522 22.5C38.2522 23.2755 37.6219 23.9065 36.8472 23.9065Z" fill="#4A4A4A"/>
</svg>
