<svg width="46" height="41" viewBox="0 0 46 41" fill="none" xmlns="http://www.w3.org/2000/svg">
<path fill-rule="evenodd" clip-rule="evenodd" d="M7.6864 1.10669V4.95947H8.6532V1.10669C8.6532 0.718364 8.968 0.403564 9.35632 0.403564C9.74465 0.403564 10.0594 0.718364 10.0594 1.10669V4.95947H11.0262V1.10669C11.0262 0.718364 11.341 0.403564 11.7294 0.403564C12.1177 0.403564 12.4325 0.718364 12.4325 1.10669V4.96002C13.5087 4.98494 14.3734 5.86511 14.3734 6.9473V8.23322C14.3733 9.3153 13.5086 10.1956 12.4325 10.2205V12.377H27.0798C27.086 12.3768 27.0923 12.3767 27.0985 12.3767H31.8329C31.8392 12.3767 31.8454 12.3768 31.8516 12.377H34.4052V10.2191C33.3487 10.1725 32.5065 9.30123 32.5065 8.23322V6.9473C32.5065 5.8793 33.3487 5.00806 34.4052 4.96144V1.10669C34.4052 0.718364 34.72 0.403564 35.1083 0.403564C35.4966 0.403564 35.8114 0.718364 35.8114 1.10669V4.95947H36.7782V1.10669C36.7782 0.718364 37.093 0.403564 37.4813 0.403564C37.8696 0.403564 38.1844 0.718364 38.1844 1.10669V4.95947H39.1512V1.10669C39.1512 0.718364 39.466 0.403564 39.8544 0.403564C40.2427 0.403564 40.5575 0.718364 40.5575 1.10669V4.95947H41.5243V1.10669C41.5243 0.718364 41.8391 0.403564 42.2274 0.403564C42.6157 0.403564 42.9305 0.718364 42.9305 1.10669V4.96438C43.9627 5.0366 44.7776 5.89676 44.7776 6.9473V8.23322C44.7776 9.28374 43.9627 10.1439 42.9306 10.2161V12.3775C44.6222 12.4079 45.9839 13.7882 45.9839 15.4865V37.4864C45.9839 39.2038 44.5914 40.596 42.8734 40.596H31.8559C31.8483 40.5962 31.8406 40.5964 31.8329 40.5964H27.0985C27.0908 40.5964 27.0831 40.5962 27.0755 40.596H4.00645C2.2885 40.596 0.895996 39.2038 0.895996 37.4864V15.4865C0.895996 13.8032 2.23377 12.4323 3.90454 12.3786V10.2125C2.89369 10.1189 2.10229 9.26851 2.10229 8.23322V6.9473C2.10229 5.91201 2.89369 5.0616 3.90454 4.96802V1.10669C3.90454 0.718364 4.21934 0.403564 4.60767 0.403564C4.99599 0.403564 5.31079 0.718364 5.31079 1.10669V4.95947H6.28015V1.10669C6.28015 0.718364 6.59495 0.403564 6.98328 0.403564C7.3716 0.403564 7.6864 0.718364 7.6864 1.10669ZM31.1298 39.1897H27.8016V25.5342C27.8019 25.5266 27.802 25.5189 27.802 25.5113C27.802 25.5036 27.8019 25.496 27.8016 25.4884V23.1611C27.8019 23.1535 27.802 23.1459 27.802 23.1382L27.8018 23.1217C27.8018 23.1192 27.8017 23.1167 27.8016 23.1143V20.7821C27.8018 20.7753 27.8019 20.7685 27.8019 20.7617C27.8019 20.7548 27.8018 20.748 27.8016 20.7412V18.4091C27.8018 18.4023 27.8019 18.3955 27.8019 18.3886C27.8019 18.3818 27.8018 18.375 27.8016 18.3682V13.7832H31.1298V18.3689C31.1296 18.3755 31.1295 18.382 31.1295 18.3886C31.1295 18.3952 31.1296 18.4018 31.1298 18.4083V20.742C31.1296 20.7485 31.1295 20.7551 31.1295 20.7617C31.1295 20.7683 31.1296 20.7748 31.1298 20.7814V23.115C31.1296 23.1216 31.1295 23.1281 31.1295 23.1347L31.1295 23.1365L31.1295 23.1382C31.1295 23.1448 31.1296 23.1514 31.1298 23.1579V25.4916C31.1296 25.4981 31.1295 25.5047 31.1295 25.5113C31.1295 25.5179 31.1296 25.5244 31.1298 25.531V39.1897ZM32.536 39.1897H42.8734C43.8151 39.1897 44.5776 38.4268 44.5776 37.4864V15.4865C44.5776 14.5652 43.8457 13.8143 42.9306 13.7841V24.3248C42.9306 25.3687 42.0849 26.2144 41.0409 26.2144H32.536V39.1897ZM32.536 24.8082H41.0409C41.3083 24.8082 41.5243 24.5921 41.5243 24.3248V13.0858L41.5243 13.0801L41.5243 13.0743V10.221H40.5575V23.1347V23.1382C40.5575 23.5266 40.2427 23.8414 39.8544 23.8414H32.536V24.8082ZM32.536 22.4316H39.1513V10.221H38.1845V20.7617C38.1845 21.15 37.8697 21.4648 37.4814 21.4648H32.536V22.4316ZM32.536 20.0585H36.7782V10.221H35.8115V18.3886C35.8115 18.7769 35.4967 19.0917 35.1083 19.0917H32.536V20.0585ZM32.536 17.6855H34.4052V13.7832H32.536V17.6855ZM26.3954 13.7832H12.4325V23.8879H15.267V19.5751C15.267 18.5312 16.1126 17.6855 17.1566 17.6855H26.3954V13.7832ZM26.3954 19.0917H17.1566C16.8893 19.0917 16.6732 19.3078 16.6732 19.5751V24.5911C16.6732 24.9794 16.3584 25.2942 15.9701 25.2942H11.7294C11.341 25.2942 11.0262 24.9794 11.0262 24.5911V13.0801V10.221H10.0594V26.261H17.64V20.7617C17.64 20.3733 17.9548 20.0585 18.3431 20.0585H26.3954V19.0917ZM26.3954 21.4648H19.0463V26.9641C19.0463 27.3524 18.7315 27.6672 18.3431 27.6672H9.35632C8.968 27.6672 8.6532 27.3524 8.6532 26.9641V10.221H7.6864V28.634H20.0131V23.1347C20.0131 22.7464 20.3279 22.4316 20.7162 22.4316H26.3954V21.4648ZM26.3954 23.8414H21.4203V29.3407C21.4203 29.729 21.1055 30.0438 20.7171 30.0438H6.98071C6.59239 30.0438 6.27759 29.729 6.27759 29.3407V10.221H5.31079V30.5272C5.31079 30.7942 5.52739 31.0106 5.79419 31.0106H9.44756L9.4557 31.0105L9.47085 31.0106H17.8692L17.8803 31.0105L17.8925 31.0106H21.9037C22.1705 31.0106 22.3871 30.7942 22.3871 30.5272V25.5113C22.3871 25.123 22.7019 24.8082 23.0902 24.8082H26.3954V23.8414ZM26.3954 26.2144H23.7933V30.5272C23.7933 31.5715 22.9464 32.4168 21.9037 32.4168H18.6211C18.554 35.0933 16.3637 37.2429 13.67 37.2429C10.9774 37.2429 8.78616 35.0934 8.71899 32.4168H5.79419C4.75142 32.4168 3.90454 31.5715 3.90454 30.5272V13.7862C3.01041 13.8389 2.30225 14.5803 2.30225 15.4865V37.4864C2.30225 38.4268 3.06482 39.1897 4.00645 39.1897H26.3954V26.2144ZM11.7294 8.8147L11.7412 8.81479H12.3856C12.7066 8.81479 12.9671 8.55451 12.9672 8.23322V6.9473C12.9672 6.62608 12.7068 6.36572 12.3856 6.36572H4.09012C3.7689 6.36572 3.50854 6.62608 3.50854 6.9473V8.23322C3.50854 8.55444 3.7689 8.81479 4.09012 8.81479H4.59585L4.60767 8.8147L4.61948 8.81479H6.9689L6.98071 8.8147L6.98199 8.8147L6.98328 8.8147L6.99509 8.81479H9.34451L9.35632 8.8147L9.36814 8.81479H11.7176L11.7294 8.8147ZM42.2393 8.81479H42.7898C43.111 8.81479 43.3713 8.55444 43.3713 8.23322V6.9473C43.3713 6.62608 43.111 6.36572 42.7898 6.36572H34.4943C34.1731 6.36572 33.9127 6.62608 33.9127 6.9473V8.23322C33.9127 8.55444 34.1731 8.81479 34.4943 8.81479H35.0965L35.1083 8.8147L35.1201 8.81479H37.4696L37.4814 8.8147L37.4932 8.81479H39.8426L39.8544 8.8147L39.8662 8.81479H42.2157L42.2275 8.8147L42.2393 8.81479ZM10.1259 32.4168C10.1925 34.3166 11.7541 35.8367 13.67 35.8367C15.5868 35.8367 17.1476 34.3167 17.2142 32.4168H10.1259Z" fill="#4A4A4A"/>
</svg>
