<svg width="46" height="45" viewBox="0 0 46 45" fill="none" xmlns="http://www.w3.org/2000/svg">
<g clip-path="url(#clip0_801_1076)">
<path d="M42.2274 15.0801H42.8734C44.2032 15.0801 45.2808 16.1576 45.2808 17.4865V39.4864C45.2808 40.8153 44.2032 41.8929 42.8734 41.8929H4.00645C2.67666 41.8929 1.59912 40.8153 1.59912 39.4864V17.4865C1.59912 16.1576 2.67666 15.0801 4.00645 15.0801H4.60762" stroke="#4A4A4A" stroke-width="1.40625" stroke-miterlimit="10" stroke-linecap="round" stroke-linejoin="round"/>
<path d="M35.1084 15.0801H11.7295" stroke="#4A4A4A" stroke-width="1.40625" stroke-miterlimit="10" stroke-linecap="round" stroke-linejoin="round"/>
<path d="M17.8799 33.7136C17.9062 33.9026 17.9194 34.0942 17.9194 34.2902C17.9194 36.6369 16.0175 38.5397 13.6699 38.5397C11.3232 38.5397 9.42041 36.6369 9.42041 34.2902C9.42041 34.0942 9.43359 33.9026 9.45996 33.7136" stroke="#4A4A4A" stroke-width="1.40625" stroke-miterlimit="10" stroke-linecap="round" stroke-linejoin="round"/>
<path d="M6.98071 3.10669V7.66206" stroke="#4A4A4A" stroke-width="1.40625" stroke-miterlimit="10" stroke-linecap="round" stroke-linejoin="round"/>
<path d="M4.60767 7.66206V3.10669" stroke="#4A4A4A" stroke-width="1.40625" stroke-miterlimit="10" stroke-linecap="round" stroke-linejoin="round"/>
<path d="M42.2275 3.10669V7.66206" stroke="#4A4A4A" stroke-width="1.40625" stroke-miterlimit="10" stroke-linecap="round" stroke-linejoin="round"/>
<path d="M39.8545 7.66206V3.10669" stroke="#4A4A4A" stroke-width="1.40625" stroke-miterlimit="10" stroke-linecap="round" stroke-linejoin="round"/>
<path d="M4.60767 11.5178V32.5272C4.60767 33.1829 5.1394 33.7137 5.79419 33.7137H21.9037C22.5584 33.7137 23.0902 33.1829 23.0902 32.5272V27.5113H27.0989" stroke="#4A4A4A" stroke-width="1.40625" stroke-miterlimit="10" stroke-linecap="round" stroke-linejoin="round"/>
<path d="M42.2276 11.5178V26.3248C42.2276 26.9804 41.6967 27.5113 41.0411 27.5113H31.8328" stroke="#4A4A4A" stroke-width="1.40625" stroke-miterlimit="10" stroke-linecap="round" stroke-linejoin="round"/>
<path d="M6.98071 11.5178V31.3407H20.7171V25.1382H27.0989" stroke="#4A4A4A" stroke-width="1.40625" stroke-miterlimit="10" stroke-linecap="round" stroke-linejoin="round"/>
<path d="M39.8545 11.5178V25.1347V25.1382H31.8328" stroke="#4A4A4A" stroke-width="1.40625" stroke-miterlimit="10" stroke-linecap="round" stroke-linejoin="round"/>
<path d="M9.35645 3.10669V7.66206" stroke="#4A4A4A" stroke-width="1.40625" stroke-miterlimit="10" stroke-linecap="round" stroke-linejoin="round"/>
<path d="M6.9834 7.66206V3.10669" stroke="#4A4A4A" stroke-width="1.40625" stroke-miterlimit="10" stroke-linecap="round" stroke-linejoin="round"/>
<path d="M39.8545 3.10669V7.66206" stroke="#4A4A4A" stroke-width="1.40625" stroke-miterlimit="10" stroke-linecap="round" stroke-linejoin="round"/>
<path d="M37.4814 7.66206V3.10669" stroke="#4A4A4A" stroke-width="1.40625" stroke-miterlimit="10" stroke-linecap="round" stroke-linejoin="round"/>
<path d="M6.9834 11.5178V31.3372H20.7163V25.1347H27.0989" stroke="#4A4A4A" stroke-width="1.40625" stroke-miterlimit="10" stroke-linecap="round" stroke-linejoin="round"/>
<path d="M39.8545 11.5178V25.1347H31.8328" stroke="#4A4A4A" stroke-width="1.40625" stroke-miterlimit="10" stroke-linecap="round" stroke-linejoin="round"/>
<path d="M37.4815 11.5178V22.7617H31.8328" stroke="#4A4A4A" stroke-width="1.40625" stroke-miterlimit="10" stroke-linecap="round" stroke-linejoin="round"/>
<path d="M9.35645 11.5178V28.9641H18.3433V22.7617H27.0989" stroke="#4A4A4A" stroke-width="1.40625" stroke-miterlimit="10" stroke-linecap="round" stroke-linejoin="round"/>
<path d="M11.7295 3.10669V7.66206" stroke="#4A4A4A" stroke-width="1.40625" stroke-miterlimit="10" stroke-linecap="round" stroke-linejoin="round"/>
<path d="M9.35645 7.66206V3.10669" stroke="#4A4A4A" stroke-width="1.40625" stroke-miterlimit="10" stroke-linecap="round" stroke-linejoin="round"/>
<path d="M37.4814 3.10669V7.66206" stroke="#4A4A4A" stroke-width="1.40625" stroke-miterlimit="10" stroke-linecap="round" stroke-linejoin="round"/>
<path d="M35.1084 7.66206V3.10669" stroke="#4A4A4A" stroke-width="1.40625" stroke-miterlimit="10" stroke-linecap="round" stroke-linejoin="round"/>
<path d="M37.4815 11.5178V22.7617H31.8328" stroke="#4A4A4A" stroke-width="1.40625" stroke-miterlimit="10" stroke-linecap="round" stroke-linejoin="round"/>
<path d="M9.35645 11.5178V28.9641H18.3433V22.7617H27.0989" stroke="#4A4A4A" stroke-width="1.40625" stroke-miterlimit="10" stroke-linecap="round" stroke-linejoin="round"/>
<path d="M11.7295 11.5178V26.5911H15.9702V21.5751C15.9702 20.9195 16.5011 20.3886 17.1567 20.3886H27.0989" stroke="#4A4A4A" stroke-width="1.40625" stroke-miterlimit="10" stroke-linecap="round" stroke-linejoin="round"/>
<path d="M35.1084 11.5178V20.3886H31.8328" stroke="#4A4A4A" stroke-width="1.40625" stroke-miterlimit="10" stroke-linecap="round" stroke-linejoin="round"/>
<path d="M42.7899 11.5177H34.4944C33.7849 11.5177 33.2097 10.9425 33.2097 10.233V8.94705C33.2097 8.23751 33.7849 7.66235 34.4944 7.66235H42.7899C43.4994 7.66235 44.0746 8.23751 44.0746 8.94705V10.233C44.0746 10.9425 43.4994 11.5177 42.7899 11.5177Z" stroke="#4A4A4A" stroke-width="1.40625" stroke-miterlimit="10" stroke-linecap="round" stroke-linejoin="round"/>
<path d="M12.3856 11.5177H4.09012C3.38058 11.5177 2.80542 10.9425 2.80542 10.233V8.94705C2.80542 8.23751 3.38058 7.66235 4.09012 7.66235H12.3856C13.0951 7.66235 13.6703 8.23751 13.6703 8.94705V10.233C13.6702 10.9425 13.095 11.5177 12.3856 11.5177Z" stroke="#4A4A4A" stroke-width="1.40625" stroke-miterlimit="10" stroke-linecap="round" stroke-linejoin="round"/>
<path d="M31.833 15.0798H27.0986V41.8932H31.833V15.0798Z" stroke="#4A4A4A" stroke-width="1.40625" stroke-miterlimit="10" stroke-linecap="round" stroke-linejoin="round"/>
</g>
<defs>
<clipPath id="clip0_801_1076">
<rect width="45" height="45" fill="white" transform="translate(0.939941)"/>
</clipPath>
</defs>
</svg>
