<svg width="45" height="46" viewBox="0 0 45 46" fill="none" xmlns="http://www.w3.org/2000/svg">
<g clip-path="url(#clip0_801_1116)">
<path d="M44.3407 21.9308H33.7272V20.4311H36.5908C36.9548 20.4311 37.2499 20.1359 37.2499 19.7719C37.2499 19.4078 36.9548 19.1127 36.5908 19.1127H33.7272V17.6129H35.7153C36.4559 17.6129 37.1523 17.3245 37.6759 16.8008L42.0112 12.4655C42.2937 12.6062 42.6068 12.6811 42.9317 12.6811C43.4842 12.6811 44.0035 12.4659 44.3942 12.0753C44.7849 11.6847 45 11.1653 45 10.6128C45 10.0604 44.7849 9.54102 44.3942 9.15035C44.0036 8.75967 43.4842 8.54452 42.9317 8.54452C42.3792 8.54452 41.8599 8.75967 41.4692 9.15026C41.0785 9.54093 40.8634 10.0603 40.8634 10.6128C40.8634 10.9376 40.9383 11.2507 41.079 11.5332L36.7437 15.8685C36.469 16.1432 36.1038 16.2945 35.7152 16.2945H33.7271V14.8401C33.7271 12.9227 32.1672 11.3628 30.2498 11.3628H28.7954V5.52733C29.6135 5.25144 30.2045 4.47739 30.2045 3.56738C30.2045 2.42691 29.2766 1.49915 28.1362 1.49915C26.9959 1.49915 26.068 2.427 26.068 3.56738C26.068 4.47739 26.659 5.25136 27.4771 5.52733V11.3627H25.9773V8.49917C25.9773 8.13513 25.6822 7.83999 25.3181 7.83999C24.9541 7.83999 24.659 8.13513 24.659 8.49917V11.3627H23.1591V0.749265C23.1591 0.385223 22.864 0.0900879 22.4999 0.0900879C22.1359 0.0900879 21.8407 0.385223 21.8407 0.749265V11.3627H20.341V8.49917C20.341 8.13513 20.0459 7.83999 19.6818 7.83999C19.3178 7.83999 19.0226 8.13513 19.0226 8.49917V11.3627H17.5229V9.37473C17.5229 8.63408 17.2344 7.93772 16.7107 7.41407L12.3739 3.0773C12.757 2.30378 12.6286 1.33927 11.9854 0.695916C11.1789 -0.110478 9.86675 -0.11039 9.06036 0.695916C8.25397 1.50231 8.25397 2.81442 9.06036 3.6209C9.4636 4.02406 9.99323 4.22568 10.5229 4.22568C10.8382 4.22568 11.153 4.15246 11.4417 4.00947L15.7785 8.34633C16.0533 8.62098 16.2045 8.98625 16.2045 9.37473V11.3627H14.7501C14.4561 11.3627 14.1637 11.3996 13.8811 11.4723C13.5285 11.563 13.3163 11.9224 13.407 12.275C13.4977 12.6276 13.8571 12.8399 14.2097 12.7491C14.385 12.704 14.5668 12.6811 14.75 12.6811H30.2498C31.4403 12.6811 32.4088 13.6496 32.4088 14.84V30.3399C32.4088 30.523 32.3859 30.7046 32.3409 30.8798C32.2503 31.2324 32.4626 31.5917 32.8152 31.6823C32.8702 31.6965 32.9254 31.7033 32.9798 31.7033C33.2734 31.7033 33.5412 31.5056 33.6177 31.208C33.6903 30.9257 33.7271 30.6335 33.7271 30.3398V28.8854H39.5625C39.8384 29.7035 40.6124 30.2945 41.5225 30.2945C42.6629 30.2945 43.5907 29.3667 43.5907 28.2262C43.5907 27.0858 42.6628 26.158 41.5225 26.158C40.6124 26.158 39.8385 26.749 39.5625 27.5671H33.7271V26.0672H36.5907C36.9547 26.0672 37.2498 25.7721 37.2498 25.408C37.2498 25.044 36.9547 24.7488 36.5907 24.7488H33.7271V23.2492H44.3407C44.7047 23.2492 44.9998 22.954 44.9998 22.59C44.9998 22.226 44.7047 21.9308 44.3407 21.9308ZM42.4014 10.0826C42.543 9.94092 42.7313 9.86296 42.9316 9.86296C43.1319 9.86296 43.3202 9.94092 43.4618 10.0826C43.6035 10.2243 43.6815 10.4125 43.6815 10.6128C43.6815 10.8131 43.6035 11.0014 43.4618 11.1431C43.3202 11.2848 43.1319 11.3627 42.9316 11.3627C42.7313 11.3627 42.543 11.2848 42.4014 11.1431C42.2597 11.0014 42.1817 10.8131 42.1817 10.6128C42.1817 10.4125 42.2597 10.2242 42.4014 10.0826ZM11.053 2.68874C10.7607 2.98098 10.2849 2.98106 9.99244 2.68865C9.70003 2.39624 9.70003 1.92049 9.99244 1.62817C10.1387 1.48192 10.3306 1.40888 10.5228 1.40888C10.7148 1.40888 10.9068 1.48201 11.053 1.62817C11.3454 1.92058 11.3454 2.39633 11.053 2.68874ZM28.1362 4.31726C27.7228 4.31726 27.3864 3.98081 27.3864 3.56738C27.3864 3.15394 27.7227 2.8175 28.1362 2.8175C28.5498 2.8175 28.8861 3.15394 28.8861 3.56738C28.8861 3.98081 28.5497 4.31726 28.1362 4.31726ZM41.5225 27.4764C41.9361 27.4764 42.2724 27.8129 42.2724 28.2263C42.2724 28.6398 41.936 28.9762 41.5225 28.9762C41.1091 28.9762 40.7727 28.6398 40.7727 28.2263C40.7726 27.8128 41.109 27.4764 41.5225 27.4764Z" fill="#4A4A4A"/>
<path d="M35.9396 41.5593C35.2963 40.9159 34.3317 40.7875 33.5582 41.1706L29.2214 36.8338C28.9467 36.5591 28.7954 36.1938 28.7954 35.8053V33.8174H30.2498C30.5438 33.8174 30.8361 33.7804 31.1187 33.7078C31.4712 33.6171 31.6835 33.2577 31.5928 32.9051C31.5021 32.5525 31.1429 32.3403 30.7901 32.431C30.6148 32.4761 30.4331 32.4989 30.2498 32.4989H14.75C13.5595 32.4989 12.5911 31.5304 12.5911 30.34V14.8402C12.5911 14.6569 12.6139 14.4752 12.659 14.3C12.7498 13.9475 12.5375 13.5881 12.185 13.4973C11.8324 13.4065 11.473 13.6188 11.3823 13.9713C11.3095 14.2538 11.2727 14.5461 11.2727 14.8402V16.2946H5.43724C5.16136 15.4765 4.38731 14.8855 3.47729 14.8855C2.33683 14.8855 1.40906 15.8133 1.40906 16.9538C1.40906 18.0942 2.33691 19.022 3.47729 19.022C4.38731 19.022 5.16127 18.431 5.43724 17.6129H11.2726V19.1128H8.40908C8.04504 19.1128 7.7499 19.4079 7.7499 19.772C7.7499 20.136 8.04504 20.4311 8.40908 20.4311H11.2726V21.9309H0.659177C0.295136 21.9309 0 22.226 0 22.5901C0 22.9541 0.295136 23.2493 0.659177 23.2493H11.2726V24.749H8.40908C8.04504 24.749 7.7499 25.0442 7.7499 25.4082C7.7499 25.7722 8.04504 26.0674 8.40908 26.0674H11.2726V27.5672H9.28455C8.5439 27.5672 7.84755 27.8556 7.3239 28.3793L2.98862 32.7146C2.70614 32.5739 2.39299 32.499 2.06815 32.499C1.51567 32.499 0.996324 32.7142 0.605652 33.1047C0.215155 33.4954 0 34.0148 0 34.5672C0 35.1196 0.215155 35.6391 0.605828 36.0297C0.996412 36.4204 1.51584 36.6355 2.06832 36.6355C2.6208 36.6355 3.14014 36.4203 3.53082 36.0297C3.92149 35.6391 4.13664 35.1197 4.13664 34.5672C4.13664 34.2424 4.06176 33.9292 3.92105 33.6468L8.25633 29.3115C8.53098 29.0368 8.89625 28.8855 9.28482 28.8855H11.2729V30.3399C11.2729 32.2573 12.8329 33.8172 14.7502 33.8172H16.2046V39.6526C15.3865 39.9285 14.7955 40.7025 14.7955 41.6125C14.7955 42.753 15.7234 43.6808 16.8638 43.6808C18.0041 43.6808 18.932 42.7529 18.932 41.6125C18.932 40.7025 18.341 39.9285 17.5229 39.6526V33.8172H19.0227V36.6807C19.0227 37.0448 19.3178 37.3399 19.6819 37.3399C20.0459 37.3399 20.3411 37.0448 20.3411 36.6807V33.8172H21.8407V44.4308C21.8407 44.7949 22.1359 45.09 22.4999 45.09C22.864 45.09 23.1591 44.7949 23.1591 44.4308V33.8174H24.6588V36.6809C24.6588 37.045 24.954 37.3401 25.318 37.3401C25.6821 37.3401 25.9772 37.045 25.9772 36.6809V33.8174H27.477V35.8053C27.477 36.546 27.7654 37.2424 28.2892 37.766L32.6259 42.1028C32.2428 42.8763 32.3712 43.8408 33.0146 44.4842C33.4177 44.8874 33.9474 45.0889 34.4771 45.0889C35.0067 45.0889 35.5364 44.8874 35.9396 44.4842C36.746 43.6778 36.746 42.3657 35.9396 41.5593ZM3.47729 17.7036C3.06377 17.7036 2.72741 17.3672 2.72741 16.9538C2.72741 16.5402 3.06386 16.2039 3.47729 16.2039C3.89073 16.2039 4.22717 16.5403 4.22717 16.9538C4.22726 17.3673 3.89081 17.7036 3.47729 17.7036ZM2.59848 35.0975C2.4568 35.2392 2.26854 35.3171 2.06823 35.3171C1.86793 35.3171 1.67967 35.2392 1.53799 35.0975C1.39631 34.9558 1.31835 34.7675 1.31835 34.5672C1.31835 34.3669 1.39631 34.1787 1.53799 34.037C1.67967 33.8953 1.86793 33.8174 2.06823 33.8174C2.26854 33.8174 2.4568 33.8953 2.59848 34.037C2.74016 34.1787 2.81811 34.3669 2.81811 34.5672C2.81811 34.7675 2.74016 34.9559 2.59848 35.0975ZM17.6135 41.6127C17.6135 42.0261 17.2771 42.3626 16.8636 42.3626C16.4501 42.3626 16.1137 42.0261 16.1137 41.6127C16.1137 41.1993 16.4502 40.8628 16.8636 40.8628C17.277 40.8628 17.6135 41.1993 17.6135 41.6127ZM35.0074 43.552C34.715 43.8444 34.2392 43.8443 33.9468 43.552C33.6544 43.2596 33.6544 42.7838 33.9468 42.4915C34.0931 42.3454 34.2851 42.2722 34.4772 42.2722C34.6692 42.2722 34.8612 42.3454 35.0074 42.4915C35.2997 42.7838 35.2997 43.2596 35.0074 43.552Z" fill="#4A4A4A"/>
<path d="M29.4999 20.8288C29.4999 19.4191 28.4687 18.2249 27.0571 17.8369C27.0989 17.6645 27.1221 17.4872 27.1221 17.3061C27.1221 15.9714 25.9374 14.8855 24.4814 14.8855C23.6927 14.8855 22.9842 15.2045 22.4999 15.7086C22.0157 15.2045 21.3071 14.8855 20.5184 14.8855C19.0624 14.8855 17.8778 15.9714 17.8778 17.3061C17.8778 17.4872 17.901 17.6645 17.9427 17.8369C16.5311 18.2248 15.5 19.419 15.5 20.8288C15.5 21.5178 15.7438 22.1678 16.1942 22.7047C15.7538 23.2748 15.5 23.9669 15.5 24.7038C15.4998 25.8246 16.0987 26.8711 17.0851 27.5203C17.0851 27.5208 17.0851 27.5213 17.0851 27.5218C17.0851 29.0508 18.4475 30.2947 20.1222 30.2947C21.0845 30.2947 21.9431 29.8834 22.4999 29.2438C23.0567 29.8834 23.9153 30.2947 24.8777 30.2947C26.4894 30.2947 27.8111 29.1424 27.9083 27.693C28.8872 27.125 29.4999 26.1302 29.4999 25.056C29.4999 24.2659 29.163 23.5121 28.5832 22.9424C29.1629 22.3727 29.4999 21.6189 29.4999 20.8288ZM27.1669 23.5253C27.8021 23.8605 28.1812 24.4328 28.1812 25.056C28.1812 25.5207 27.9653 25.9639 27.6006 26.2953C27.254 25.6536 26.6415 25.1428 25.8676 24.8997C25.5205 24.7906 25.1504 24.9837 25.0412 25.331C24.932 25.6783 25.1252 26.0484 25.4725 26.1574C26.1445 26.3686 26.5961 26.917 26.5961 27.5219C26.5961 28.3239 25.8251 28.9764 24.8774 28.9764C23.9297 28.9764 23.1588 28.3239 23.1588 27.5219V23.2947C23.1588 22.4927 23.9297 21.8403 24.8774 21.8403C25.2414 21.8403 25.5365 21.5451 25.5365 21.1811C25.5365 20.817 25.2414 20.5219 24.8774 20.5219C24.2398 20.5219 23.6478 20.7026 23.1588 21.0103V20.1683C23.1588 19.8043 22.8636 19.5091 22.4996 19.5091C22.1355 19.5091 21.8404 19.8043 21.8404 20.1683V23.8278C21.6186 23.6886 21.3753 23.5734 21.1121 23.4907C20.7646 23.3815 20.3948 23.5747 20.2857 23.9218C20.1766 24.2692 20.3696 24.6392 20.7169 24.7484C21.3889 24.9596 21.8404 25.5079 21.8404 26.1128V27.5218C21.8404 28.3238 21.0694 28.9763 20.1218 28.9763C19.1741 28.9763 18.4031 28.3238 18.4031 27.5218C18.4031 27.1781 18.5488 26.8439 18.8134 26.581C19.0716 26.3243 19.0728 25.9069 18.8162 25.6487C18.5595 25.3905 18.1422 25.3893 17.884 25.6459C17.7261 25.803 17.5901 25.9745 17.4771 26.1569C17.0608 25.7632 16.8178 25.2451 16.8178 24.7036C16.8178 23.727 17.5843 22.869 18.6818 22.6172C19.0366 22.5358 19.2583 22.1821 19.1769 21.8273C19.0955 21.4724 18.7417 21.2509 18.387 21.3323C17.9452 21.4336 17.5384 21.6028 17.1777 21.8249C16.9439 21.5311 16.8179 21.1871 16.8179 20.8286C16.8182 19.8371 17.7581 19.03 18.9167 19.0223C18.9226 19.0225 18.9285 19.0233 18.9343 19.0233C19.0848 19.0233 19.236 18.972 19.3599 18.8672C19.6126 18.6533 19.6633 18.2903 19.4936 18.0172C19.4886 18.0091 19.4841 18.0009 19.4788 17.993C19.4761 17.9891 19.4728 17.9853 19.47 17.9813C19.4598 17.967 19.4493 17.953 19.438 17.9394C19.4377 17.939 19.4374 17.9385 19.437 17.9382C19.3271 17.8082 19.1959 17.593 19.1959 17.306C19.1959 16.6982 19.7891 16.2038 20.5182 16.2038C21.2472 16.2038 21.8405 16.6982 21.8405 17.306C21.8405 17.67 22.1356 17.9652 22.4997 17.9652C22.8637 17.9652 23.1588 17.67 23.1588 17.306C23.1588 16.6982 23.7521 16.2038 24.4812 16.2038C25.2102 16.2038 25.8035 16.6982 25.8035 17.306C25.8035 17.4684 25.7609 17.6069 25.7046 17.7208C25.3297 17.7563 24.967 17.8469 24.6227 17.9921C24.2873 18.1335 24.13 18.5201 24.2715 18.8556C24.4129 19.191 24.7995 19.3484 25.135 19.2069C25.4199 19.0867 25.7265 19.025 26.0462 19.0225C26.0525 19.0227 26.0588 19.0233 26.0651 19.0233C26.071 19.0233 26.0768 19.0225 26.0827 19.0223C27.2414 19.0299 28.1812 19.8371 28.1812 20.8286C28.1812 21.4519 27.8021 22.024 27.1669 22.3593C26.9507 22.4734 26.8153 22.6978 26.8153 22.9423C26.8153 23.1868 26.9507 23.4112 27.1669 23.5253Z" fill="#4A4A4A"/>
</g>
<defs>
<clipPath id="clip0_801_1116">
<rect width="45" height="45" fill="white" transform="translate(0 0.0900879)"/>
</clipPath>
</defs>
</svg>
