<svg width="45" height="45" viewBox="0 0 45 45" fill="none" xmlns="http://www.w3.org/2000/svg">
<path d="M30.9928 38.6277H18.9738C18.5482 38.6277 18.1481 38.7893 17.8472 39.0827L13.1852 43.6296C12.9752 43.751 12.8402 43.696 12.7805 43.4644V39.7333C12.7805 39.1237 12.2712 38.6277 11.6453 38.6277H7.9974C4.33487 38.6277 1.35515 35.7209 1.35515 32.1479V7.79858C1.35515 4.22571 4.33487 1.31886 7.9974 1.31886H11.1164C11.4907 1.31886 11.794 1.0237 11.794 0.659429C11.794 0.29516 11.4906 0 11.1164 0H7.9974C3.58755 0 0 3.4984 0 7.79858V32.1479C0 36.448 3.58764 39.9465 7.9974 39.9465H11.4252V43.4644C11.4252 44.7982 13.1625 45.5191 14.1444 44.5612L18.8064 40.0143C18.8512 39.9706 18.9106 39.9465 18.9738 39.9465H30.9928C31.367 39.9465 31.6703 39.6514 31.6703 39.2871C31.6703 38.9229 31.367 38.6277 30.9928 38.6277Z" fill="#4A4A4A"/>
<path d="M37.0025 0H14.0926C13.7183 0 13.415 0.29516 13.415 0.659429C13.415 1.0237 13.7184 1.31886 14.0926 1.31886H37.0025C40.665 1.31886 43.6448 4.22562 43.6448 7.79858V32.1479C43.6448 35.7209 40.665 38.6277 37.0025 38.6277H33.7013C33.3271 38.6277 33.0238 38.9229 33.0238 39.2871C33.0238 39.6514 33.3271 39.9465 33.7013 39.9465H37.0025C41.4124 39.9465 44.9999 36.4481 44.9999 32.1479V7.79858C45 3.49849 41.4124 0 37.0025 0Z" fill="#4A4A4A"/>
<path d="M12.618 29.258C12.4143 28.9678 12.007 28.8787 11.698 29.0636C11.3776 29.2554 11.2799 29.6851 11.4905 29.9897C11.6962 30.2871 12.1225 30.3724 12.4301 30.1725C12.7357 29.974 12.8241 29.5559 12.618 29.258Z" fill="#4A4A4A"/>
<path d="M8.01642 16.3473V10.5476C8.01642 9.4821 8.53075 8.50605 9.32342 7.79123C9.58777 7.53344 9.58723 7.11589 9.32225 6.85862C9.05727 6.60153 8.62823 6.60171 8.36397 6.85977C7.30072 7.79915 6.66118 9.14491 6.66118 10.5476V16.3473C6.66118 17.3027 6.27975 18.201 5.58708 18.8764C4.96705 19.4813 4.96705 20.4654 5.58717 21.0701C6.27975 21.7456 6.66118 22.6439 6.66118 23.5993V29.3989C6.66118 30.8017 7.30072 32.1475 8.36397 33.0868C8.68325 33.3447 9.00261 33.3452 9.32225 33.088C9.58723 32.8307 9.58777 32.4132 9.32342 32.1554C8.52081 31.4535 8.01642 30.4585 8.01642 29.3989V23.5993C8.01642 22.2921 7.49442 21.063 6.54644 20.1385C6.45302 20.0474 6.45312 19.8991 6.54644 19.8081C7.49442 18.8836 8.01642 17.6546 8.01642 16.3473Z" fill="#4A4A4A"/>
<path d="M36.9837 23.5993V29.3988C36.9837 30.4644 36.4693 31.4404 35.6767 32.1553C35.4123 32.4131 35.4129 32.8307 35.6778 33.088C35.9974 33.3451 36.3168 33.3448 36.6361 33.0868C37.6994 32.1474 38.3389 30.8017 38.3389 29.3988V23.5993C38.3389 22.6438 38.7203 21.7456 39.4129 21.0701C40.033 20.4653 40.033 19.4813 39.4129 18.8764C38.7203 18.2009 38.3389 17.3027 38.3389 16.3472V10.5476C38.3389 9.14479 37.6994 7.79911 36.6361 6.85973C36.3718 6.60185 35.9429 6.60141 35.6778 6.85859C35.4129 7.11586 35.4123 7.53341 35.6767 7.7912C36.4793 8.49301 36.9837 9.48795 36.9837 10.5476V16.3472C36.9837 17.6546 37.5057 18.8836 38.4536 19.808C38.547 19.8991 38.5471 20.0473 38.4537 20.1384C37.5058 21.063 36.9837 22.292 36.9837 23.5993Z" fill="#4A4A4A"/>
<path d="M29.6072 26.3457C29.6072 25.9814 29.3039 25.6863 28.9297 25.6863H12.0543C11.68 25.6863 11.3767 25.9815 11.3767 26.3457C11.3767 26.71 11.6801 27.0051 12.0543 27.0051H28.9297C29.304 27.0051 29.6072 26.7099 29.6072 26.3457Z" fill="#4A4A4A"/>
<path d="M24.1441 9.75537H12.0543C11.68 9.75537 11.3767 10.0506 11.3767 10.4148C11.3767 10.7791 11.6801 11.0742 12.0543 11.0742H24.1441C24.5184 11.0742 24.8217 10.7791 24.8217 10.4148C24.8217 10.0505 24.5184 9.75537 24.1441 9.75537Z" fill="#4A4A4A"/>
<path d="M19.0443 12.9414H12.0543C11.68 12.9414 11.3767 13.2366 11.3767 13.6008C11.3767 13.9651 11.6801 14.2603 12.0543 14.2603H19.0443C19.4186 14.2603 19.7218 13.965 19.7218 13.6008C19.7218 13.2366 19.4186 12.9414 19.0443 12.9414Z" fill="#4A4A4A"/>
<path d="M12.0543 23.8191H19.0443C19.4186 23.8191 19.7218 23.5239 19.7218 23.1597C19.7218 22.7954 19.4186 22.5002 19.0443 22.5002H12.0543C11.68 22.5002 11.3767 22.7954 11.3767 23.1597C11.3767 23.5239 11.6801 23.8191 12.0543 23.8191Z" fill="#4A4A4A"/>
<path d="M12.0543 17.4465H13.37C13.7443 17.4465 14.0475 17.1514 14.0475 16.7871C14.0475 16.4228 13.7443 16.1277 13.37 16.1277H12.0543C11.68 16.1277 11.3767 16.4228 11.3767 16.7871C11.3767 17.1514 11.6801 17.4465 12.0543 17.4465Z" fill="#4A4A4A"/>
<path d="M21.3121 16.1277H16.1502C15.7759 16.1277 15.4727 16.4228 15.4727 16.7871C15.4727 17.1514 15.7759 17.4465 16.1502 17.4465H21.3121C21.6864 17.4465 21.9897 17.1514 21.9897 16.7871C21.9897 16.4229 21.6863 16.1277 21.3121 16.1277Z" fill="#4A4A4A"/>
<path d="M33.739 16.7871C33.739 16.4228 33.4356 16.1277 33.0614 16.1277H24.1441C23.7698 16.1277 23.4666 16.4228 23.4666 16.7871C23.4666 17.1514 23.7698 17.4465 24.1441 17.4465H33.0614C33.4356 17.4465 33.739 17.1514 33.739 16.7871Z" fill="#4A4A4A"/>
<path d="M12.0543 20.6328H14.6236C14.9979 20.6328 15.3011 20.3376 15.3011 19.9734C15.3011 19.6091 14.9978 19.314 14.6236 19.314H12.0543C11.68 19.314 11.3767 19.6091 11.3767 19.9734C11.3767 20.3376 11.6801 20.6328 12.0543 20.6328Z" fill="#4A4A4A"/>
<path d="M16.8418 19.9731C16.8418 20.3374 17.1452 20.6326 17.5194 20.6326H24.1443C24.5186 20.6326 24.8219 20.3373 24.8219 19.9731C24.8219 19.6089 24.5185 19.3137 24.1443 19.3137H17.5194C17.1451 19.3137 16.8418 19.609 16.8418 19.9731Z" fill="#4A4A4A"/>
<path d="M15.1877 29.2582C14.9796 28.9607 14.5573 28.8759 14.2481 29.0762C13.9407 29.2754 13.8563 29.6905 14.0602 29.9898C14.2638 30.2888 14.6937 30.3715 14.9998 30.1727C15.3048 29.9745 15.3942 29.5557 15.1877 29.2582Z" fill="#4A4A4A"/>
<path d="M17.4526 29.0147C17.1089 28.8833 16.7111 29.036 16.568 29.3716C16.4271 29.7021 16.5919 30.0973 16.9341 30.2333C17.275 30.3689 17.678 30.2091 17.8194 29.8763C17.9608 29.5434 17.7925 29.1538 17.4526 29.0147Z" fill="#4A4A4A"/>
</svg>
