<svg width="1906" height="586" viewBox="0 0 1906 586" fill="none" xmlns="http://www.w3.org/2000/svg">
<path d="M1277.02 153.404C1270.43 153.404 1265.36 151.558 1261.81 147.866C1258.32 144.124 1256.57 138.98 1256.57 132.433V90.1216H1248.82C1247.83 90.1216 1246.99 89.8016 1246.31 89.1617C1245.62 88.5217 1245.27 87.5618 1245.27 86.2818V79.0454L1257.46 77.0517L1261.3 56.3761C1261.54 55.3916 1262.01 54.6285 1262.7 54.087C1263.39 53.5455 1264.27 53.2748 1265.36 53.2748H1274.81V77.1255H1295.04V90.1216H1274.81V131.177C1274.81 133.54 1275.37 135.386 1276.51 136.715C1277.69 138.045 1279.29 138.709 1281.31 138.709C1282.44 138.709 1283.37 138.586 1284.11 138.34C1284.9 138.045 1285.56 137.749 1286.11 137.454C1286.7 137.159 1287.21 136.888 1287.66 136.642C1288.1 136.346 1288.54 136.199 1288.99 136.199C1289.53 136.199 1289.97 136.346 1290.31 136.642C1290.66 136.888 1291.03 137.282 1291.42 137.823L1296.89 146.684C1294.23 148.899 1291.18 150.573 1287.73 151.705C1284.28 152.837 1280.72 153.404 1277.02 153.404Z" fill="#0084D7"/>
<path d="M1186.49 85.7627C1188.02 84.2366 1189.62 82.8336 1191.29 81.5537C1193.02 80.2246 1194.81 79.117 1196.68 78.2309C1198.6 77.2955 1200.65 76.5818 1202.81 76.0895C1204.98 75.548 1207.34 75.2772 1209.9 75.2772C1214.04 75.2772 1217.71 75.991 1220.9 77.4186C1224.1 78.797 1226.76 80.7661 1228.88 83.3259C1231.05 85.8365 1232.67 88.864 1233.75 92.4084C1234.89 95.9036 1235.45 99.7679 1235.45 104.001V152.22H1217.21V104.001C1217.21 99.3741 1216.15 95.8051 1214.04 93.2945C1211.92 90.7347 1208.7 89.4548 1204.36 89.4548C1201.21 89.4548 1198.26 90.1686 1195.5 91.5961C1192.75 93.0237 1190.14 94.9682 1187.68 97.4296V152.22H1169.44V76.4587H1180.59C1182.95 76.4587 1184.5 77.5663 1185.24 79.7815L1186.49 85.7627Z" fill="#0084D7"/>
<path d="M1150.83 76.4589V152.22H1132.51V76.4589H1150.83ZM1153.34 54.3803C1153.34 55.9556 1153.02 57.4324 1152.38 58.8108C1151.74 60.1892 1150.87 61.3952 1149.79 62.429C1148.76 63.4628 1147.53 64.2997 1146.1 64.9396C1144.67 65.5303 1143.15 65.8257 1141.52 65.8257C1139.95 65.8257 1138.44 65.5303 1137.02 64.9396C1135.64 64.2997 1134.43 63.4628 1133.4 62.429C1132.36 61.3952 1131.53 60.1892 1130.89 58.8108C1130.3 57.4324 1130 55.9556 1130 54.3803C1130 52.7558 1130.3 51.2297 1130.89 49.8021C1131.53 48.3745 1132.36 47.1439 1133.4 46.1101C1134.43 45.0763 1135.64 44.264 1137.02 43.6733C1138.44 43.0334 1139.95 42.7134 1141.52 42.7134C1143.15 42.7134 1144.67 43.0334 1146.1 43.6733C1147.53 44.264 1148.76 45.0763 1149.79 46.1101C1150.87 47.1439 1151.74 48.3745 1152.38 49.8021C1153.02 51.2297 1153.34 52.7558 1153.34 54.3803Z" fill="#0084D7"/>
<path d="M1080.66 75.2772C1086.27 75.2772 1091.37 76.1879 1095.94 78.0094C1100.57 79.8308 1104.51 82.4152 1107.76 85.7627C1111.06 89.1102 1113.59 93.196 1115.36 98.0203C1117.14 102.845 1118.02 108.235 1118.02 114.192C1118.02 120.197 1117.14 125.612 1115.36 130.437C1113.59 135.261 1111.06 139.371 1107.76 142.768C1104.51 146.165 1100.57 148.774 1095.94 150.595C1091.37 152.417 1086.27 153.327 1080.66 153.327C1075 153.327 1069.85 152.417 1065.23 150.595C1060.6 148.774 1056.64 146.165 1053.34 142.768C1050.09 139.371 1047.55 135.261 1045.73 130.437C1043.96 125.612 1043.07 120.197 1043.07 114.192C1043.07 108.235 1043.96 102.845 1045.73 98.0203C1047.55 93.196 1050.09 89.1102 1053.34 85.7627C1056.64 82.4152 1060.6 79.8308 1065.23 78.0094C1069.85 76.1879 1075 75.2772 1080.66 75.2772ZM1080.66 139.298C1086.96 139.298 1091.61 137.181 1094.62 132.947C1097.67 128.714 1099.19 122.511 1099.19 114.339C1099.19 106.167 1097.67 99.9402 1094.62 95.6574C1091.61 91.3746 1086.96 89.2332 1080.66 89.2332C1074.26 89.2332 1069.51 91.3992 1066.41 95.7313C1063.36 100.014 1061.83 106.217 1061.83 114.339C1061.83 122.462 1063.36 128.664 1066.41 132.947C1069.51 137.181 1074.26 139.298 1080.66 139.298Z" fill="#0084D7"/>
<path d="M981.428 132.577C983.496 135.088 985.736 136.86 988.148 137.894C990.609 138.927 993.267 139.444 996.123 139.444C998.879 139.444 1001.37 138.927 1003.58 137.894C1005.8 136.86 1007.67 135.284 1009.19 133.168C1010.77 131.051 1011.97 128.393 1012.81 125.193C1013.65 121.944 1014.07 118.129 1014.07 113.747C1014.07 109.317 1013.7 105.576 1012.96 102.524C1012.27 99.4222 1011.26 96.9116 1009.93 94.9917C1008.6 93.0718 1006.98 91.6689 1005.06 90.7828C1003.19 89.8967 1001.05 89.4536 998.633 89.4536C994.843 89.4536 991.618 90.2659 988.96 91.8904C986.302 93.4657 983.791 95.7055 981.428 98.6099V132.577ZM980.468 86.7953C983.57 83.3002 987.089 80.4696 991.028 78.3036C994.966 76.1376 999.593 75.0546 1004.91 75.0546C1009.04 75.0546 1012.81 75.916 1016.21 77.639C1019.65 79.362 1022.61 81.8726 1025.07 85.1708C1027.58 88.4198 1029.5 92.4565 1030.83 97.2808C1032.21 102.056 1032.9 107.545 1032.9 113.747C1032.9 119.409 1032.13 124.651 1030.61 129.476C1029.08 134.3 1026.89 138.484 1024.03 142.029C1021.23 145.573 1017.81 148.354 1013.77 150.373C1009.78 152.342 1005.3 153.326 1000.33 153.326C996.098 153.326 992.48 152.686 989.477 151.406C986.474 150.077 983.791 148.256 981.428 145.942V176.956H963.189V76.4576H974.339C976.702 76.4576 978.253 77.5652 978.991 79.7804L980.468 86.7953Z" fill="#0084D7"/>
<path d="M940.8 108.058C940.8 104.12 940.234 100.6 939.101 97.4989C938.018 94.3484 936.468 91.6901 934.449 89.5241C932.431 87.3581 930.019 85.7089 927.213 84.5767C924.456 83.3952 921.404 82.8045 918.057 82.8045C914.266 82.8045 910.869 83.3952 907.867 84.5767C904.864 85.7582 902.255 87.4565 900.039 89.6717C897.873 91.887 896.126 94.5453 894.797 97.6466C893.468 100.748 892.581 104.218 892.138 108.058H940.8ZM891.769 112.563V113.966C891.769 119.479 892.409 124.328 893.689 128.512C894.969 132.697 896.79 136.216 899.153 139.072C901.516 141.878 904.371 143.994 907.719 145.422C911.066 146.85 914.808 147.563 918.943 147.563C922.635 147.563 925.835 147.17 928.542 146.382C931.25 145.545 933.514 144.634 935.336 143.65C937.206 142.616 938.683 141.705 939.766 140.918C940.849 140.081 941.637 139.662 942.129 139.662C942.769 139.662 943.261 139.908 943.606 140.401L945.526 142.764C944.344 144.24 942.769 145.619 940.8 146.899C938.88 148.179 936.714 149.286 934.302 150.222C931.939 151.108 929.379 151.822 926.622 152.363C923.915 152.905 921.183 153.175 918.426 153.175C913.405 153.175 908.827 152.314 904.691 150.591C900.556 148.819 897.012 146.259 894.058 142.911C891.105 139.564 888.816 135.478 887.191 130.654C885.616 125.78 884.828 120.217 884.828 113.966C884.828 108.698 885.567 103.849 887.043 99.4188C888.569 94.9391 890.735 91.0993 893.541 87.8996C896.397 84.6505 899.867 82.1153 903.953 80.2939C908.088 78.4725 912.765 77.5618 917.983 77.5618C922.118 77.5618 925.958 78.2756 929.502 79.7032C933.046 81.1308 936.123 83.2229 938.732 85.9797C941.341 88.6872 943.384 92.0347 944.861 96.0221C946.387 100.01 947.15 104.588 947.15 109.757C947.15 110.84 947.003 111.578 946.707 111.972C946.412 112.366 945.919 112.563 945.23 112.563H891.769Z" fill="#0084D7"/>
<path d="M814.809 91.5916C818.206 87.358 822.12 83.9613 826.55 81.4015C831.03 78.8417 836.002 77.5618 841.466 77.5618C845.503 77.5618 849.047 78.2017 852.099 79.4816C855.201 80.7616 857.76 82.6076 859.779 85.0197C861.797 87.4319 863.323 90.3363 864.357 93.733C865.391 97.1297 865.908 100.969 865.908 105.252V152.215H858.819V105.252C858.819 98.3604 857.244 92.97 854.093 89.081C850.942 85.1428 846.143 83.1737 839.694 83.1737C834.919 83.1737 830.439 84.4044 826.255 86.8658C822.12 89.2779 818.428 92.65 815.179 96.982V152.215H808.09V78.7432H812.003C813.234 78.7432 813.948 79.3586 814.145 80.5893L814.809 91.5916Z" fill="#0084D7"/>
<path d="M789.131 99.9389C789.131 108.012 787.925 115.347 785.513 121.944C783.101 128.491 779.704 134.103 775.323 138.779C770.942 143.407 765.675 147 759.521 149.56C753.417 152.071 746.673 153.326 739.289 153.326C731.904 153.326 725.16 152.071 719.056 149.56C712.952 147 707.709 143.407 703.328 138.779C698.947 134.103 695.55 128.491 693.138 121.944C690.726 115.347 689.52 108.012 689.52 99.9389C689.52 91.9148 690.726 84.6291 693.138 78.0819C695.55 71.4854 698.947 65.8734 703.328 61.2461C707.709 56.5694 712.952 52.9512 719.056 50.3914C725.16 47.8316 731.904 46.5516 739.289 46.5516C746.673 46.5516 753.417 47.8316 759.521 50.3914C765.675 52.902 770.942 56.4956 775.323 61.1722C779.704 65.8488 783.101 71.4854 785.513 78.0819C787.925 84.6291 789.131 91.9148 789.131 99.9389ZM781.304 99.9389C781.304 92.6532 780.295 86.106 778.277 80.2971C776.258 74.4883 773.403 69.5655 769.711 65.5289C766.019 61.4922 761.589 58.4155 756.42 56.2987C751.251 54.1327 745.54 53.0497 739.289 53.0497C733.086 53.0497 727.4 54.1327 722.231 56.2987C717.062 58.4155 712.607 61.4922 708.866 65.5289C705.174 69.5655 702.294 74.4883 700.227 80.2971C698.208 86.106 697.199 92.6532 697.199 99.9389C697.199 107.274 698.208 113.846 700.227 119.655C702.294 125.414 705.174 130.312 708.866 134.349C712.607 138.386 717.062 141.462 722.231 143.579C727.4 145.696 733.086 146.754 739.289 146.754C745.54 146.754 751.251 145.696 756.42 143.579C761.589 141.462 766.019 138.386 769.711 134.349C773.403 130.312 776.258 125.414 778.277 119.655C780.295 113.846 781.304 107.274 781.304 99.9389Z" fill="#0084D7"/>
<path d="M1906 248.994V541.581H1870.64V248.994H1906Z" fill="#A6A6A6"/>
<path d="M1796.42 248.994V541.581H1761.06V248.994H1796.42Z" fill="#A6A6A6"/>
<path d="M1620.45 335.897C1632.5 335.897 1643.62 337.949 1653.82 342.054C1664.01 346.027 1672.82 351.854 1680.24 359.534C1687.65 367.082 1693.41 376.484 1697.52 387.74C1701.75 398.863 1703.87 411.576 1703.87 425.878C1703.87 431.439 1703.28 435.147 1702.09 437.001C1700.89 438.855 1698.64 439.782 1695.33 439.782H1561.45C1561.72 452.494 1563.44 463.552 1566.62 472.954C1569.8 482.356 1574.17 490.235 1579.73 496.591C1585.29 502.815 1591.91 507.516 1599.59 510.694C1607.27 513.74 1615.88 515.262 1625.41 515.262C1634.29 515.262 1641.9 514.269 1648.26 512.283C1654.74 510.164 1660.31 507.913 1664.94 505.529C1669.58 503.146 1673.42 500.961 1676.46 498.975C1679.64 496.856 1682.35 495.796 1684.61 495.796C1687.52 495.796 1689.77 496.922 1691.36 499.173L1701.29 512.084C1696.92 517.381 1691.69 522.016 1685.6 525.989C1679.51 529.829 1672.95 533.007 1665.93 535.523C1659.05 538.039 1651.9 539.893 1644.48 541.085C1637.07 542.409 1629.72 543.071 1622.43 543.071C1608.53 543.071 1595.68 540.754 1583.9 536.119C1572.25 531.352 1562.12 524.466 1553.51 515.461C1545.03 506.324 1538.41 495.068 1533.64 481.693C1528.88 468.319 1526.49 452.958 1526.49 435.611C1526.49 421.574 1528.61 408.464 1532.85 396.281C1537.22 384.098 1543.44 373.571 1551.52 364.699C1559.6 355.694 1569.47 348.676 1581.12 343.644C1592.77 338.479 1605.88 335.897 1620.45 335.897ZM1621.24 361.918C1604.16 361.918 1590.72 366.884 1580.92 376.815C1571.12 386.614 1565.03 400.254 1562.65 417.734H1672.09C1672.09 409.523 1670.97 402.042 1668.72 395.288C1666.46 388.402 1663.15 382.509 1658.78 377.61C1654.41 372.578 1649.05 368.737 1642.69 366.089C1636.47 363.308 1629.32 361.918 1621.24 361.918Z" fill="#A6A6A6"/>
<path d="M1108.2 256.94H1140.18C1143.63 256.94 1146.47 257.801 1148.72 259.522C1150.98 261.244 1152.5 263.429 1153.29 266.077L1212.09 463.915C1213.15 467.491 1214.07 471.331 1214.87 475.436C1215.8 479.541 1216.66 483.845 1217.45 488.347C1218.38 483.845 1219.31 479.541 1220.23 475.436C1221.16 471.199 1222.22 467.358 1223.41 463.915L1290.35 266.077C1291.14 263.826 1292.67 261.773 1294.92 259.919C1297.3 257.933 1300.15 256.94 1303.46 256.94H1314.58C1318.03 256.94 1320.81 257.801 1322.93 259.522C1325.18 261.244 1326.77 263.429 1327.69 266.077L1394.23 463.915C1396.62 470.801 1398.74 478.681 1400.59 487.553C1401.39 483.183 1402.11 479.012 1402.78 475.039C1403.44 471.066 1404.3 467.358 1405.36 463.915L1464.35 266.077C1465.01 263.693 1466.47 261.575 1468.72 259.721C1471.11 257.867 1473.95 256.94 1477.26 256.94H1507.26L1418.47 541.581H1383.91L1311.8 324.475C1310.35 320.37 1309.02 315.603 1307.83 310.174C1307.17 312.822 1306.51 315.404 1305.84 317.92C1305.31 320.304 1304.72 322.489 1304.06 324.475L1231.55 541.581H1196.99L1108.2 256.94Z" fill="#A6A6A6"/>
<path d="M985.83 407.504H1083.95V437.497H985.83V407.504Z" fill="#A6A6A6"/>
<path d="M940.177 399.36C940.177 420.68 936.8 440.08 930.046 457.559C923.293 475.039 913.759 490.003 901.443 502.45C889.128 514.898 874.363 524.565 857.148 531.451C839.933 538.204 820.865 541.581 799.942 541.581H693.475V256.94H799.942C820.865 256.94 839.933 260.383 857.148 267.269C874.363 274.022 889.128 283.689 901.443 296.269C913.759 308.717 923.293 323.681 930.046 341.16C936.8 358.64 940.177 378.04 940.177 399.36ZM900.649 399.36C900.649 381.88 898.265 366.254 893.498 352.482C888.731 338.711 881.977 327.057 873.237 317.523C864.498 307.989 853.904 300.705 841.456 295.673C829.008 290.641 815.17 288.125 799.942 288.125H732.208V510.396H799.942C815.17 510.396 829.008 507.88 841.456 502.848C853.904 497.815 864.498 490.598 873.237 481.197C881.977 471.662 888.731 460.009 893.498 446.237C898.265 432.465 900.649 416.839 900.649 399.36Z" fill="#A6A6A6"/>
<rect width="585.784" height="585.784" fill="white"/>
<path fill-rule="evenodd" clip-rule="evenodd" d="M313.744 207.693C301.014 203.36 283.698 200.631 266.047 200.631C248.397 200.631 231.312 203.36 218.816 207.685C212.542 209.856 207.719 212.329 204.573 214.836C201.355 217.4 200.635 219.361 200.635 220.534C200.635 221.723 201.373 223.722 204.605 226.338C207.76 228.892 212.59 231.425 218.86 233.657C231.351 238.102 248.423 240.953 266.047 240.953C283.672 240.953 300.975 238.102 313.7 233.648C320.089 231.411 325.035 228.871 328.276 226.303C331.611 223.661 332.339 221.668 332.339 220.534C332.339 219.417 331.629 217.46 328.308 214.871C325.077 212.351 320.137 209.869 313.744 207.693ZM266.047 195.262C302.305 195.262 337.709 206.433 337.709 220.534C337.709 221.303 337.603 222.065 337.398 222.819V248.632L335 247.128L332.029 248.903V230.174C320.602 239.587 293.571 246.322 266.047 246.322C238.674 246.322 212.289 239.66 201.002 230.328V262.735C201.002 264.988 202.324 267.553 205.57 270.271C208.79 272.968 213.587 275.531 219.687 277.745C231.863 282.163 248.671 284.988 266.832 284.988C268.48 284.988 270.115 284.964 271.736 284.919L270.93 285.4V290.311C269.572 290.342 268.206 290.357 266.832 290.357C248.184 290.357 230.735 287.466 217.855 282.792C211.427 280.46 205.997 277.633 202.122 274.388C201.715 274.046 201.321 273.697 200.942 273.34V306.502C200.942 308.754 202.242 311.259 205.433 313.885C208.608 316.497 213.343 318.953 219.378 321.059C231.423 325.262 248.058 327.871 266.043 327.871C267.686 327.871 269.315 327.846 270.93 327.796V333.168C269.313 333.216 267.684 333.241 266.043 333.241C247.611 333.241 230.353 330.576 217.609 326.129C211.25 323.91 205.867 321.196 202.021 318.031C201.646 317.722 201.282 317.406 200.931 317.083V352.091C200.931 354.554 202.286 357.238 205.46 360.013C208.624 362.779 213.337 365.389 219.335 367.634C231.311 372.116 247.85 374.936 265.726 374.936C273.812 374.936 281.624 374.359 288.864 373.312L296.227 377.52C286.915 379.308 276.522 380.306 265.726 380.306C247.358 380.306 230.157 377.418 217.453 372.663C211.112 370.29 205.751 367.399 201.926 364.056C198.11 360.72 195.561 356.685 195.561 352.091V301.03H195.572V257.265H195.632V223.046C195.39 222.219 195.266 221.381 195.266 220.534C195.266 206.433 229.79 195.262 266.047 195.262Z" fill="#A6A6A6"/>
<path d="M390.309 358.357L334.485 391.917L277.663 358.357V289.204L334.485 255.645L390.309 289.204V358.357Z" stroke="#A6A6A6" stroke-width="5.36969" stroke-linejoin="round"/>
<path d="M280.689 325.568H299.521L310.757 314.031L324.241 360.013L335.304 286.79L351.208 335.683L364.692 312.634L377.052 325.568H387.473" stroke="#A6A6A6" stroke-width="5.36969" stroke-linecap="square" stroke-linejoin="round"/>
<line x1="48.8129" y1="42.7141" x2="48.8128" y2="390.524" stroke="#F4A628" stroke-width="12.2038"/>
<line x1="42.7109" y1="48.8153" x2="122.036" y2="48.8153" stroke="#F4A628" stroke-width="12.2038"/>
<path d="M42.7109 536.969H543.068" stroke="#0084D7" stroke-width="12.2038"/>
<line y1="-6.10192" x2="396.625" y2="-6.10192" transform="matrix(-1 3.77141e-05 -3.59358e-05 -1 543.068 42.7134)" stroke="#0084D7" stroke-width="12.2038"/>
<line x1="537.252" y1="42.7134" x2="537.252" y2="543.07" stroke="#0084D7" stroke-width="12.2038"/>
<line x1="48.8129" y1="414.93" x2="48.8129" y2="543.071" stroke="#0084D7" stroke-width="12.2038"/>
<line x1="494.256" y1="500.358" x2="494.255" y2="183.058" stroke="#D61D45" stroke-width="12.2038"/>
<line x1="500.357" y1="494.256" x2="378.319" y2="494.256" stroke="#D61D45" stroke-width="12.2038"/>
<line x1="91.5289" y1="500.358" x2="91.5289" y2="85.4275" stroke="#4DC48D" stroke-width="12.2038"/>
<line x1="494.256" y1="158.65" x2="494.255" y2="85.4272" stroke="#4DC48D" stroke-width="12.2038"/>
<line x1="353.912" y1="494.256" x2="85.4277" y2="494.256" stroke="#4DC48D" stroke-width="12.2038"/>
<line x1="500.299" y1="91.5292" x2="85.4326" y2="91.5292" stroke="#4DC48D" stroke-width="12.2038"/>
<line x1="457.643" y1="452.003" x2="277.495" y2="452.003" stroke="#F4A628" stroke-width="12.2038"/>
<line x1="457.643" y1="134.242" x2="128.167" y2="134.242" stroke="#0084D7" stroke-width="12.2038"/>
<line x1="454.557" y1="277.482" x2="454.557" y2="457.644" stroke="#F4A628" stroke-width="12.2038"/>
<line x1="454.557" y1="128.141" x2="454.557" y2="251.062" stroke="#0084D7" stroke-width="12.2038"/>
<line x1="251.047" y1="452.003" x2="128.135" y2="452.003" stroke="#0084D7" stroke-width="12.2038"/>
<line x1="134.264" y1="128.141" x2="134.264" y2="457.644" stroke="#0084D7" stroke-width="12.2038"/>
</svg>
