<svg width="1201" height="358" viewBox="0 0 1201 358" fill="none" xmlns="http://www.w3.org/2000/svg">
<rect x="0.775391" width="357.451" height="357.451" fill="white"/>
<path fill-rule="evenodd" clip-rule="evenodd" d="M192.264 126.734C184.495 124.09 173.929 122.425 163.158 122.425C152.388 122.425 141.963 124.09 134.337 126.729C130.509 128.054 127.566 129.563 125.646 131.093C123.683 132.657 123.243 133.854 123.243 134.57C123.243 135.295 123.693 136.515 125.666 138.112C127.591 139.67 130.538 141.216 134.364 142.578C141.987 145.29 152.404 147.029 163.158 147.029C173.913 147.029 184.472 145.29 192.237 142.572C196.135 141.207 199.153 139.657 201.131 138.09C203.166 136.478 203.61 135.261 203.61 134.57C203.61 133.888 203.177 132.694 201.151 131.114C199.179 129.576 196.164 128.062 192.264 126.734ZM163.158 119.148C185.283 119.148 206.887 125.965 206.887 134.57C206.887 135.044 206.821 135.514 206.694 135.978V151.725L205.215 150.798L203.417 151.872V140.456C196.442 146.198 179.95 150.306 163.158 150.306C146.452 150.306 130.348 146.239 123.463 140.543V160.319C123.463 161.695 124.27 163.259 126.251 164.918C128.216 166.564 131.143 168.128 134.865 169.479C142.295 172.175 152.552 173.898 163.633 173.898C164.635 173.898 165.629 173.884 166.613 173.857L166.119 174.152V177.147C165.296 177.165 164.467 177.175 163.633 177.175C152.254 177.175 141.606 175.411 133.747 172.559C129.825 171.135 126.511 169.41 124.147 167.43C123.9 167.223 123.661 167.012 123.432 166.796V187.027C123.432 188.401 124.225 189.93 126.173 191.533C128.109 193.126 130.999 194.625 134.682 195.91C142.032 198.475 152.183 200.067 163.157 200.067C164.153 200.067 165.14 200.052 166.119 200.021V203.3C165.139 203.329 164.151 203.344 163.157 203.344C151.91 203.344 141.379 201.717 133.602 199.004C129.722 197.649 126.437 195.994 124.091 194.063C123.86 193.873 123.637 193.679 123.422 193.481V214.846C123.422 216.349 124.249 217.987 126.185 219.68C128.116 221.368 130.992 222.961 134.652 224.331C141.96 227.066 152.052 228.786 162.96 228.786C167.889 228.786 172.651 228.435 177.064 227.798L181.558 230.366C175.879 231.455 169.543 232.063 162.96 232.063C151.752 232.063 141.256 230.301 133.504 227.399C129.634 225.951 126.363 224.187 124.029 222.147C121.7 220.111 120.145 217.649 120.145 214.846V183.688H120.155V156.982H120.186V136.089C120.041 135.589 119.967 135.082 119.967 134.57C119.967 125.965 141.034 119.148 163.158 119.148Z" fill="#A6A6A6"/>
<path d="M238.955 218.672L204.891 239.151L170.218 218.672V176.474L204.891 155.996L238.955 176.474V218.672Z" stroke="#A6A6A6" stroke-width="3.27663" stroke-linejoin="round"/>
<path d="M172.059 198.667H183.55L190.406 191.626L198.634 219.685L205.385 175.004L215.09 204.839L223.318 190.774L230.86 198.667H237.219" stroke="#A6A6A6" stroke-width="3.27663" stroke-linecap="square" stroke-linejoin="round"/>
<line x1="30.5574" y1="26.0645" x2="30.5574" y2="238.301" stroke="#F4A628" stroke-width="7.4469"/>
<line x1="26.834" y1="29.7902" x2="75.2388" y2="29.7902" stroke="#F4A628" stroke-width="7.4469"/>
<path d="M26.834 327.664H332.157" stroke="#0084D7" stroke-width="7.4469"/>
<line y1="-3.72345" x2="242.024" y2="-3.72345" transform="matrix(-1 3.77141e-05 -3.59358e-05 -1 332.16 26.0645)" stroke="#0084D7" stroke-width="7.4469"/>
<line x1="328.61" y1="26.0645" x2="328.61" y2="331.387" stroke="#0084D7" stroke-width="7.4469"/>
<line x1="30.5574" y1="253.193" x2="30.5574" y2="331.386" stroke="#0084D7" stroke-width="7.4469"/>
<line x1="302.376" y1="305.318" x2="302.376" y2="111.699" stroke="#D61D45" stroke-width="7.4469"/>
<line x1="306.1" y1="301.593" x2="231.631" y2="301.593" stroke="#D61D45" stroke-width="7.4469"/>
<line x1="56.6281" y1="305.318" x2="56.6281" y2="52.1241" stroke="#4DC48D" stroke-width="7.4469"/>
<line x1="302.376" y1="96.8047" x2="302.376" y2="52.1233" stroke="#4DC48D" stroke-width="7.4469"/>
<line x1="216.74" y1="301.593" x2="52.9086" y2="301.593" stroke="#4DC48D" stroke-width="7.4469"/>
<line x1="306.064" y1="55.8465" x2="52.9093" y2="55.8465" stroke="#4DC48D" stroke-width="7.4469"/>
<line x1="280.031" y1="275.815" x2="170.103" y2="275.815" stroke="#F4A628" stroke-width="7.4469"/>
<line x1="280.031" y1="81.9168" x2="78.9819" y2="81.9168" stroke="#0084D7" stroke-width="7.4469"/>
<line x1="278.149" y1="169.322" x2="278.149" y2="279.259" stroke="#F4A628" stroke-width="7.4469"/>
<line x1="278.149" y1="78.1934" x2="278.149" y2="153.201" stroke="#0084D7" stroke-width="7.4469"/>
<line x1="153.969" y1="275.815" x2="78.9671" y2="275.815" stroke="#0084D7" stroke-width="7.4469"/>
<line x1="82.7039" y1="78.1934" x2="82.7039" y2="279.259" stroke="#0084D7" stroke-width="7.4469"/>
<path d="M837.031 102.997C832.43 102.997 828.884 101.7 826.393 99.1049C823.902 96.4757 822.657 92.8604 822.657 88.2591V58.5239H817.26C816.568 58.5239 815.962 58.2991 815.443 57.8493C814.959 57.3996 814.717 56.725 814.717 55.8255V50.7399L823.279 49.3387L825.978 34.8084C826.116 34.1165 826.428 33.5803 826.912 33.1997C827.431 32.8192 828.071 32.6289 828.832 32.6289H835.474V49.3906H849.486V58.5239H835.474V87.3769C835.474 89.0375 835.889 90.3349 836.72 91.269C837.55 92.2031 838.657 92.6701 840.041 92.6701C840.837 92.6701 841.494 92.5836 842.013 92.4106C842.566 92.2031 843.034 91.9955 843.414 91.7879C843.829 91.5803 844.193 91.3901 844.504 91.2171C844.815 91.0095 845.127 90.9057 845.438 90.9057C845.819 90.9057 846.13 91.0095 846.372 91.2171C846.614 91.3901 846.874 91.6668 847.15 92.0474L850.991 98.2746C849.122 99.8315 846.977 101.008 844.556 101.803C842.134 102.599 839.626 102.997 837.031 102.997Z" fill="#0084D7"/>
<path d="M761.016 102.165V48.9221H768.852C770.512 48.9221 771.602 49.7005 772.121 51.2573L773.003 55.4607C774.076 54.3537 775.2 53.3504 776.376 52.4509C777.587 51.5514 778.85 50.773 780.164 50.1157C781.514 49.4583 782.949 48.9567 784.472 48.6107C785.994 48.2648 787.654 48.0918 789.453 48.0918C792.36 48.0918 794.937 48.5934 797.186 49.5967C799.434 50.5654 801.303 51.9492 802.79 53.7482C804.312 55.5126 805.454 57.6403 806.215 60.1312C807.011 62.5875 807.409 65.3033 807.409 68.2785V102.165H794.591V68.2785C794.591 65.0265 793.83 62.5183 792.308 60.7539C790.82 58.9549 788.571 58.0554 785.561 58.0554C783.347 58.0554 781.272 58.5571 779.334 59.5603C777.397 60.5636 775.563 61.9302 773.833 63.66V102.165H761.016Z" fill="#0084D7"/>
<path d="M746.736 48.9206V102.164H733.918V48.9206H746.736ZM748.656 33.4043C748.656 34.5114 748.431 35.5493 747.982 36.5179C747.532 37.4866 746.927 38.3342 746.165 39.0607C745.439 39.7873 744.574 40.3754 743.571 40.8251C742.567 41.2403 741.495 41.4479 740.353 41.4479C739.246 41.4479 738.191 41.2403 737.188 40.8251C736.219 40.3754 735.371 39.7873 734.645 39.0607C733.918 38.3342 733.33 37.4866 732.881 36.5179C732.465 35.5493 732.258 34.5114 732.258 33.4043C732.258 32.2626 732.465 31.1902 732.881 30.1869C733.33 29.1836 733.918 28.3187 734.645 27.5922C735.371 26.8657 736.219 26.2948 737.188 25.8797C738.191 25.43 739.246 25.2051 740.353 25.2051C741.495 25.2051 742.567 25.43 743.571 25.8797C744.574 26.2948 745.439 26.8657 746.165 27.5922C746.927 28.3187 747.532 29.1836 747.982 30.1869C748.431 31.1902 748.656 32.2626 748.656 33.4043Z" fill="#0084D7"/>
<path d="M697.869 48.0918C701.848 48.0918 705.446 48.7318 708.663 50.0119C711.915 51.2919 714.683 53.1082 716.966 55.4607C719.249 57.8132 721.014 60.6847 722.259 64.0751C723.505 67.4655 724.127 71.2538 724.127 75.4399C724.127 79.6606 723.505 83.4661 722.259 86.8565C721.014 90.2469 719.249 93.1357 716.966 95.5228C714.683 97.9099 711.915 99.7435 708.663 101.024C705.446 102.304 701.848 102.944 697.869 102.944C693.891 102.944 690.275 102.304 687.023 101.024C683.771 99.7435 680.986 97.9099 678.668 95.5228C676.385 93.1357 674.603 90.2469 673.323 86.8565C672.078 83.4661 671.455 79.6606 671.455 75.4399C671.455 71.2538 672.078 67.4655 673.323 64.0751C674.603 60.6847 676.385 57.8132 678.668 55.4607C680.986 53.1082 683.771 51.2919 687.023 50.0119C690.275 48.7318 693.891 48.0918 697.869 48.0918ZM697.869 93.0838C702.297 93.0838 705.567 91.5961 707.677 88.6209C709.822 85.6457 710.894 81.2866 710.894 75.5436C710.894 69.8007 709.822 65.4243 707.677 62.4145C705.567 59.4047 702.297 57.8997 697.869 57.8997C693.372 57.8997 690.05 59.422 687.905 62.4664C685.76 65.4762 684.688 69.8353 684.688 75.5436C684.688 81.252 685.76 85.6111 687.905 88.6209C690.05 91.5961 693.372 93.0838 697.869 93.0838Z" fill="#0084D7"/>
<path d="M614.332 119.551V48.9235H622.168C622.998 48.9235 623.708 49.1138 624.296 49.4943C624.884 49.8749 625.264 50.463 625.437 51.2587L626.475 56.1886C628.62 53.7323 631.076 51.7431 633.844 50.2208C636.646 48.6986 639.916 47.9375 643.652 47.9375C646.558 47.9375 649.205 48.5429 651.592 49.7538C654.014 50.9646 656.089 52.729 657.819 55.047C659.583 57.3303 660.933 60.1672 661.867 63.5576C662.835 66.9134 663.32 70.7708 663.32 75.1299C663.32 79.1084 662.784 82.7929 661.711 86.1833C660.639 89.5737 659.099 92.5143 657.093 95.0052C655.121 97.4961 652.716 99.4508 649.879 100.869C647.077 102.253 643.929 102.945 640.435 102.945C637.425 102.945 634.865 102.495 632.754 101.596C630.679 100.662 628.81 99.3816 627.15 97.7556V119.551H614.332ZM639.241 58.0568C636.577 58.0568 634.294 58.6276 632.391 59.7693C630.523 60.8764 628.776 62.4505 627.15 64.4916V88.3628C628.603 90.1618 630.177 91.4245 631.872 92.1511C633.602 92.843 635.453 93.1889 637.425 93.1889C639.362 93.1889 641.109 92.8257 642.666 92.0992C644.257 91.3727 645.589 90.2656 646.662 88.778C647.769 87.2903 648.617 85.4222 649.205 83.1734C649.793 80.8901 650.087 78.2089 650.087 75.1299C650.087 72.0163 649.827 69.387 649.308 67.242C648.824 65.0625 648.115 63.2981 647.181 61.9488C646.247 60.5996 645.105 59.6136 643.756 58.9909C642.441 58.3682 640.936 58.0568 639.241 58.0568Z" fill="#0084D7"/>
<path d="M582.068 49.7012C584.974 49.7012 587.655 50.2028 590.111 51.2061C592.602 52.2094 594.747 53.6797 596.546 55.6171C598.38 57.5198 599.798 59.8724 600.802 62.6746C601.839 65.4769 602.358 68.6943 602.358 72.3269C602.358 73.088 602.237 73.6069 601.995 73.8837C601.788 74.1605 601.442 74.2989 600.957 74.2989H563.646V75.2848C563.646 79.1596 564.095 82.5673 564.995 85.5079C565.894 88.4486 567.174 90.9222 568.835 92.9288C570.496 94.9007 572.502 96.3883 574.855 97.3916C577.207 98.3949 579.836 98.8966 582.743 98.8966C585.337 98.8966 587.586 98.6198 589.489 98.0663C591.392 97.4781 592.983 96.8381 594.263 96.1462C595.578 95.4197 596.616 94.7796 597.377 94.2261C598.138 93.638 598.691 93.3439 599.037 93.3439C599.487 93.3439 599.833 93.5169 600.075 93.8628L601.424 95.5234C600.594 96.5613 599.487 97.53 598.103 98.4295C596.754 99.329 595.232 100.107 593.536 100.765C591.876 101.387 590.077 101.889 588.14 102.27C586.237 102.65 584.317 102.84 582.379 102.84C578.851 102.84 575.633 102.235 572.727 101.024C569.821 99.7787 567.33 97.9798 565.254 95.6272C563.179 93.2747 561.57 90.4033 560.428 87.0129C559.321 83.5879 558.768 79.6785 558.768 75.2848C558.768 71.5831 559.287 68.1754 560.324 65.0618C561.397 61.9135 562.919 59.215 564.891 56.9663C566.898 54.683 569.337 52.9013 572.208 51.6212C575.114 50.3412 578.401 49.7012 582.068 49.7012ZM582.12 53.3856C579.456 53.3856 577.069 53.8008 574.958 54.6311C572.848 55.4614 571.015 56.6549 569.458 58.2118C567.936 59.7686 566.69 61.6368 565.721 63.8163C564.787 65.9958 564.165 68.4349 563.853 71.1333H597.896C597.896 68.3657 597.515 65.8921 596.754 63.7125C595.993 61.4984 594.92 59.6302 593.536 58.108C592.153 56.5858 590.492 55.4268 588.555 54.6311C586.617 53.8008 584.472 53.3856 582.12 53.3856Z" fill="#0084D7"/>
<path d="M504.213 102.166V50.2028H506.948C507.859 50.2028 508.385 50.638 508.525 51.5084L508.999 59.3421C511.383 56.3479 514.153 53.9455 517.308 52.1351C520.499 50.2898 524.04 49.3672 527.932 49.3672C530.807 49.3672 533.331 49.8198 535.505 50.725C537.714 51.6303 539.537 52.9359 540.974 54.6419C542.412 56.3479 543.499 58.402 544.235 60.8044C544.971 63.2067 545.339 65.9224 545.339 68.9514V102.166H540.343V68.9514C540.343 64.0771 539.221 60.2647 536.977 57.5142C534.733 54.7289 531.297 53.3363 526.669 53.3363C523.233 53.3363 520.043 54.2241 517.098 55.9997C514.153 57.7405 511.523 60.1429 509.209 63.2067V102.166H504.213Z" fill="#0084D7"/>
<path d="M490.884 65.1899C490.884 70.8992 490.028 76.0863 488.317 80.7512C486.606 85.3813 484.197 89.3499 481.089 92.6571C477.982 95.9295 474.263 98.4708 469.933 100.281C465.604 102.057 460.802 102.944 455.53 102.944C450.327 102.944 445.561 102.057 441.231 100.281C436.902 98.4708 433.183 95.9295 430.075 92.6571C426.968 89.3499 424.541 85.3813 422.795 80.7512C421.084 76.0863 420.229 70.8992 420.229 65.1899C420.229 59.5154 421.084 54.3632 422.795 49.7331C424.541 45.0682 426.968 41.0995 430.075 37.8271C433.183 34.5199 436.902 31.9612 441.231 30.1509C445.561 28.3407 450.327 27.4355 455.53 27.4355C460.802 27.4355 465.604 28.3407 469.933 30.1509C474.263 31.9264 477.982 34.4677 481.089 37.7749C484.197 41.0821 486.606 45.0682 488.317 49.7331C490.028 54.3632 490.884 59.5154 490.884 65.1899ZM485.332 65.1899C485.332 60.0376 484.616 55.4075 483.185 51.2996C481.753 47.1918 479.728 43.7105 477.109 40.8558C474.525 38.0012 471.4 35.8254 467.734 34.3285C464.067 32.7967 459.999 32.0308 455.53 32.0308C451.13 32.0308 447.097 32.7967 443.431 34.3285C439.8 35.8254 436.657 38.0012 434.003 40.8558C431.385 43.7105 429.342 47.1918 427.875 51.2996C426.444 55.4075 425.728 60.0376 425.728 65.1899C425.728 70.377 426.444 75.0245 427.875 79.1324C429.342 83.2055 431.385 86.6693 434.003 89.524C436.657 92.3786 439.8 94.5544 443.431 96.0513C447.097 97.5483 451.13 98.2968 455.53 98.2968C459.999 98.2968 464.067 97.5483 467.734 96.0513C471.4 94.5544 474.525 92.3786 477.109 89.524C479.728 86.6693 481.753 83.2055 483.185 79.1324C484.616 75.0245 485.332 70.377 485.332 65.1899Z" fill="#0084D7"/>
<path d="M1147.54 153.246V327.384H1126.43V153.246H1147.54Z" fill="#A6A6A6"/>
<path d="M1082.12 153.246V327.384H1061.02V153.246H1082.12Z" fill="#A6A6A6"/>
<path d="M977.116 204.965C984.308 204.965 990.947 206.186 997.032 208.63C1003.12 210.994 1008.37 214.462 1012.8 219.033C1017.22 223.525 1020.66 229.121 1023.11 235.82C1025.64 242.441 1026.91 250.007 1026.91 258.519C1026.91 261.829 1026.55 264.036 1025.84 265.139C1025.13 266.242 1023.78 266.794 1021.81 266.794H941.907C942.065 274.36 943.093 280.941 944.99 286.537C946.886 292.133 949.494 296.822 952.814 300.605C956.133 304.309 960.085 307.107 964.669 308.999C969.252 310.811 974.39 311.718 980.08 311.718C985.375 311.718 989.919 311.127 993.713 309.944C997.585 308.683 1000.9 307.344 1003.67 305.925C1006.44 304.506 1008.73 303.206 1010.55 302.024C1012.44 300.763 1014.06 300.132 1015.41 300.132C1017.15 300.132 1018.49 300.802 1019.44 302.142L1025.37 309.826C1022.76 312.979 1019.64 315.737 1016 318.102C1012.36 320.387 1008.45 322.279 1004.26 323.776C1000.15 325.274 995.886 326.377 991.46 327.086C987.035 327.874 982.648 328.268 978.302 328.268C970.003 328.268 962.337 326.889 955.303 324.131C948.348 321.293 942.303 317.195 937.165 311.836C932.107 306.398 928.156 299.699 925.311 291.738C922.466 283.778 921.043 274.636 921.043 264.311C921.043 255.957 922.307 248.155 924.837 240.904C927.445 233.653 931.159 227.387 935.98 222.107C940.801 216.747 946.689 212.57 953.644 209.575C960.598 206.502 968.423 204.965 977.116 204.965ZM977.59 220.452C967.395 220.452 959.373 223.407 953.525 229.318C947.677 235.15 944.041 243.268 942.619 253.672H1007.94C1007.94 248.785 1007.27 244.332 1005.92 240.313C1004.58 236.214 1002.6 232.707 999.996 229.791C997.388 226.796 994.187 224.511 990.393 222.934C986.679 221.279 982.411 220.452 977.59 220.452Z" fill="#A6A6A6"/>
<path d="M671.391 157.977H690.477C692.532 157.977 694.231 158.489 695.574 159.513C696.918 160.538 697.827 161.838 698.301 163.415L733.391 281.162C734.023 283.29 734.577 285.576 735.051 288.019C735.604 290.462 736.118 293.023 736.592 295.703C737.145 293.023 737.698 290.462 738.252 288.019C738.805 285.497 739.437 283.211 740.148 281.162L780.099 163.415C780.573 162.075 781.482 160.853 782.826 159.75C784.248 158.568 785.947 157.977 787.923 157.977H794.562C796.617 157.977 798.276 158.489 799.541 159.513C800.884 160.538 801.833 161.838 802.386 163.415L842.1 281.162C843.522 285.26 844.787 289.95 845.893 295.23C846.367 292.629 846.802 290.147 847.197 287.782C847.592 285.418 848.106 283.211 848.738 281.162L883.947 163.415C884.342 161.996 885.211 160.735 886.555 159.632C887.978 158.528 889.677 157.977 891.653 157.977H909.553L856.562 327.386H835.935L792.902 198.171C792.033 195.728 791.243 192.891 790.531 189.66C790.136 191.236 789.741 192.773 789.346 194.27C789.03 195.689 788.674 196.989 788.279 198.171L745.009 327.386H724.382L671.391 157.977Z" fill="#A6A6A6"/>
<path d="M598.355 247.584H656.918V265.435H598.355V247.584Z" fill="#A6A6A6"/>
<path d="M571.111 242.74C571.111 255.429 569.096 266.976 565.065 277.379C561.035 287.782 555.345 296.688 547.995 304.097C540.645 311.505 531.833 317.259 521.558 321.357C511.284 325.376 499.904 327.386 487.417 327.386H423.875V157.977H487.417C499.904 157.977 511.284 160.026 521.558 164.124C531.833 168.144 540.645 173.897 547.995 181.384C555.345 188.793 561.035 197.699 565.065 208.102C569.096 218.505 571.111 230.051 571.111 242.74ZM547.52 242.74C547.52 232.337 546.098 223.037 543.253 214.84C540.408 206.644 536.377 199.708 531.161 194.034C525.945 188.359 519.622 184.024 512.193 181.03C504.764 178.035 496.505 176.537 487.417 176.537H446.992V308.826H487.417C496.505 308.826 504.764 307.328 512.193 304.333C519.622 301.338 525.945 297.043 531.161 291.447C536.377 285.773 540.408 278.837 543.253 270.64C546.098 262.444 547.52 253.144 547.52 242.74Z" fill="#A6A6A6"/>
<path d="M1187.98 165.993C1188.15 166.316 1188.31 166.654 1188.45 167.007C1188.6 167.35 1188.75 167.699 1188.89 168.052C1189.03 167.688 1189.18 167.33 1189.33 166.977C1189.48 166.624 1189.64 166.286 1189.82 165.963L1196.32 153.84C1196.4 153.689 1196.48 153.568 1196.57 153.477C1196.66 153.386 1196.75 153.321 1196.85 153.28C1196.97 153.24 1197.09 153.215 1197.22 153.205C1197.35 153.194 1197.51 153.189 1197.69 153.189H1200.78V175.074H1197.17V160.938C1197.17 160.676 1197.18 160.389 1197.19 160.076C1197.21 159.763 1197.23 159.445 1197.26 159.122L1190.62 171.533C1190.47 171.815 1190.27 172.037 1190.03 172.199C1189.79 172.35 1189.5 172.426 1189.18 172.426H1188.62C1188.29 172.426 1188.01 172.35 1187.76 172.199C1187.52 172.037 1187.32 171.815 1187.17 171.533L1180.44 159.077C1180.48 159.41 1180.5 159.738 1180.51 160.061C1180.53 160.373 1180.54 160.666 1180.54 160.938V175.074H1176.94V153.189H1180.03C1180.21 153.189 1180.37 153.194 1180.5 153.205C1180.63 153.215 1180.75 153.24 1180.85 153.28C1180.96 153.321 1181.06 153.386 1181.15 153.477C1181.24 153.568 1181.33 153.689 1181.41 153.84L1187.98 165.993Z" fill="#A6A6A6"/>
<path d="M1174.37 153.189V156.534H1167.75V175.074H1163.66V156.534H1157.02V153.189H1174.37Z" fill="#A6A6A6"/>
</svg>
