<svg width="632" height="646" viewBox="0 0 632 646" fill="none" xmlns="http://www.w3.org/2000/svg">
<rect x="8.31445" y="8.31226" width="616" height="630" rx="60" fill="white"/>
<rect x="8.31445" y="8.31226" width="616" height="630" rx="60" stroke="#0084D7" stroke-width="15" stroke-linejoin="round"/>
<path d="M135.91 341.505H141.088H151.154H222.005H232.073H237.251C243.362 341.505 248.335 346.17 248.335 351.903V369.729C248.335 391.846 229.154 409.837 205.582 409.837H167.579C144.007 409.837 124.826 391.846 124.826 369.729V351.903C124.826 346.17 129.799 341.505 135.91 341.505Z" fill="white"/>
<path d="M183.448 216.385L138.896 341.505H234.268L190.06 216.393C188.959 213.278 184.556 213.273 183.448 216.385Z" fill="white"/>
<path d="M175.193 216.733C179.295 206.511 193.88 206.528 197.957 216.76L198.146 217.263L238.771 332.235C248.57 332.973 257.106 340.791 257.106 351.345V369.17C257.106 396.65 233.463 418.048 205.584 418.048H167.581C139.702 418.048 116.059 396.65 116.059 369.17V351.345C116.059 340.917 124.393 333.159 134.045 332.264L175.004 217.236L175.193 216.733ZM135.912 349.716C135.106 349.716 134.475 350.02 134.079 350.392C133.692 350.755 133.598 351.097 133.598 351.345V369.17C133.598 385.924 148.316 400.508 167.581 400.508H205.584C224.849 400.508 239.566 385.924 239.566 369.17V351.345C239.566 351.097 239.473 350.755 239.086 350.392C238.69 350.02 238.059 349.716 237.253 349.716H135.912ZM152.694 332.177H220.148L186.551 237.094L152.694 332.177Z" fill="url(#paint0_linear_3572_17)"/>
<path d="M395.375 341.505H400.553H410.619H481.47H491.538H496.715C502.827 341.505 507.8 346.17 507.8 351.903V369.729C507.8 391.846 488.619 409.837 465.047 409.837H427.044C403.472 409.837 384.291 391.846 384.291 369.729V351.903C384.291 346.17 389.264 341.505 395.375 341.505Z" fill="white"/>
<path d="M442.911 218.393L398.359 343.513H493.731L449.523 218.401C448.422 215.286 444.019 215.281 442.911 218.393Z" fill="white"/>
<path d="M434.657 216.733C438.758 206.511 453.344 206.529 457.421 216.76L457.61 217.263L498.234 332.235C508.033 332.973 516.569 340.792 516.569 351.345V369.17C516.569 396.65 492.926 418.048 465.047 418.048H427.044C399.165 418.048 375.521 396.65 375.521 369.17V351.345C375.522 340.917 383.857 333.159 393.509 332.264L434.468 217.236L434.657 216.733ZM395.375 349.716C394.569 349.716 393.938 350.02 393.542 350.392C393.155 350.755 393.061 351.097 393.061 351.345V369.17C393.061 385.924 407.779 400.508 427.044 400.508H465.047C484.312 400.508 499.029 385.924 499.029 369.17V351.345C499.029 351.097 498.936 350.755 498.549 350.392C498.152 350.02 497.522 349.716 496.716 349.716H395.375ZM412.158 332.177H479.612L446.015 237.094L412.158 332.177Z" fill="url(#paint1_linear_3572_17)"/>
<path d="M316.98 128.312C304.571 128.312 297.621 134.297 297.621 143.15V169.688C292.491 169.688 287.518 169.591 284.854 169.567C265.553 169.393 246.006 169.318 234.022 171.67C206.994 176.975 202.435 194.275 174.808 196.989H140.665C136.095 196.989 125.361 199.181 125.361 210.253C125.361 224.128 136.713 224.548 140.665 224.548H174.128C202.702 225.62 222.635 197.271 248.317 197.271C261.89 197.271 275.963 197.327 288.512 197.327H297.621V374.458H333.905V197.271C346.454 197.271 371.84 197.271 384.977 197.44C410.657 197.769 430.591 225.789 459.166 224.716H492.629C496.581 224.716 507.932 224.296 507.932 210.421C507.932 199.35 497.199 197.157 492.629 197.158H458.486C430.859 194.444 426.648 174.861 399.272 171.838C378.697 169.567 355.102 169.688 333.905 169.567V143.15C333.905 136.014 329.389 128.312 316.98 128.312Z" fill="white" stroke="#0084D7" stroke-width="17.5397" stroke-linejoin="round"/>
<path d="M296.844 374.458V197.327H287.734C275.186 197.327 261.113 197.271 247.539 197.271C221.857 197.271 201.925 225.62 173.35 224.548H139.887C135.936 224.548 124.584 224.128 124.584 210.253C124.584 199.181 135.318 196.989 139.887 196.989H174.03C201.658 194.275 206.217 176.975 233.244 171.67C245.228 169.318 264.776 169.393 284.077 169.567C286.741 169.591 291.714 169.688 296.844 169.688V143.15C296.844 134.297 303.794 128.312 316.203 128.312C328.612 128.312 333.128 136.014 333.128 143.15V169.567C354.324 169.688 377.92 169.567 398.494 171.838C425.871 174.861 430.081 194.444 457.709 197.158H491.852C496.421 197.157 507.155 199.35 507.155 210.421C507.155 224.296 495.803 224.716 491.852 224.716H458.389C429.814 225.789 409.88 197.769 384.2 197.44C371.063 197.271 345.676 197.271 333.128 197.271V374.458" stroke="#0084D7" stroke-width="17.5397" stroke-linejoin="round"/>
<path d="M291.385 449.39V485.257H256.881C247.104 485.257 228.451 487.776 228.451 505.162V518.312H404.843V505.162C404.843 489.344 390.963 485.301 384.022 485.257H342.224V438.922V392.586C342.224 372.353 326.191 367.072 316.587 367.072C297.893 367.07 291.385 376.93 291.385 392.586V449.39Z" fill="white"/>
<path d="M291.385 485.257V449.39V392.586C291.385 376.93 297.893 367.07 316.587 367.072C326.191 367.072 342.224 372.353 342.224 392.586V438.922V485.257M291.385 485.257H256.881C247.104 485.257 228.451 487.776 228.451 505.162V518.312H404.843V505.162C404.843 489.344 390.963 485.301 384.022 485.257H342.224M291.385 485.257H342.224" stroke="#0084D7" stroke-width="17.5397" stroke-linejoin="round"/>
<circle cx="315.871" cy="182.95" r="20.5486" stroke="#0084D7" stroke-width="17.5397"/>
<defs>
<linearGradient id="paint0_linear_3572_17" x1="186.583" y1="209.076" x2="186.583" y2="418.048" gradientUnits="userSpaceOnUse">
<stop stop-color="#0084D7"/>
<stop offset="1" stop-color="#4DC48D"/>
</linearGradient>
<linearGradient id="paint1_linear_3572_17" x1="405.635" y1="209.077" x2="405.635" y2="418.049" gradientUnits="userSpaceOnUse">
<stop stop-color="#0084D7"/>
<stop offset="1" stop-color="#4DC48D"/>
</linearGradient>
</defs>
</svg>
