<svg width="40" height="46" viewBox="0 0 40 46" fill="none" xmlns="http://www.w3.org/2000/svg">
<path d="M39.6463 25.8291C39.2474 23.6443 38.0587 22.2541 37.1036 21.1372C36.247 20.1354 35.5688 19.3424 35.5577 18.2475C36.0499 12.6587 34.6213 8.00399 31.4255 4.78518C29.9262 3.27512 28.0547 2.10936 25.8629 1.32036C23.5909 0.502596 20.9643 0.0878906 18.0561 0.0878906C13.8424 0.0878906 10.028 1.21915 7.02542 3.35947C4.29236 5.30762 2.25756 8.04308 1.14091 11.2701C-0.0505367 14.7135 -0.108867 18.5311 0.976667 22.0199C2.10864 25.6574 4.38019 28.7308 7.55715 30.9295C7.78704 35.4163 6.46 38.9364 5.48485 41.5233C5.05779 42.6561 4.72047 43.551 4.61018 44.2845C4.57973 44.487 4.64548 44.6918 4.79041 44.8459C4.93504 44.9997 5.14419 45.0879 5.36419 45.0879H5.36572L26.1823 45.0503C26.6021 45.0495 26.942 44.7337 26.942 44.3444C26.942 42.577 26.3187 41.0092 25.8178 39.7494C24.9703 37.6181 24.9754 37.2125 25.8541 36.8558C26.3564 36.6518 27.8721 36.9928 29.0899 37.2666C31.3732 37.78 33.7344 38.311 34.8207 37.0573C34.8921 36.9749 34.9426 36.8788 34.9686 36.7758C35.5122 34.6179 36.0246 33.9336 36.3638 33.4809C36.6644 33.0795 36.9483 32.7005 36.9483 31.8662C36.9483 31.6459 36.8374 31.4382 36.6484 31.3047C36.1483 30.9515 35.7925 30.6804 35.5841 30.4942C35.8976 30.3704 36.3651 30.2303 36.5565 30.1731C36.8692 30.0794 37.0818 29.8102 37.0838 29.5055L37.0998 26.9796L39.0372 26.6406C39.4445 26.5693 39.7155 26.2084 39.6463 25.8291ZM36.2008 25.7002C35.8428 25.7628 35.5828 26.0519 35.5806 26.3896L35.5642 28.9897C34.6981 29.2652 34.0125 29.5701 33.8934 30.2158C33.7667 30.903 34.363 31.4471 35.3956 32.1924C35.3561 32.3509 35.2721 32.4629 35.113 32.6755C34.719 33.2015 34.1293 33.989 33.5365 36.2566C32.9051 36.6719 30.8409 36.2076 29.4485 35.8944C27.714 35.5044 26.216 35.1676 25.2435 35.5624C24.1835 35.9925 23.6537 36.7106 23.6687 37.6965C23.6803 38.4548 24.0088 39.281 24.3891 40.2376C24.7961 41.2612 25.2489 42.3998 25.3812 43.6398L6.31813 43.6742C6.47028 43.1873 6.68628 42.6144 6.92208 41.9889C7.90504 39.3814 9.39041 35.441 9.05718 30.5125C9.04291 30.3007 8.92644 30.1061 8.74031 29.9826C2.76616 26.0198 0.237309 18.5023 2.59051 11.7014C4.80097 5.31335 10.5825 1.49965 18.0561 1.49965C23.3896 1.49965 27.5109 2.92677 30.3054 5.74147C33.2112 8.66814 34.5018 12.9631 34.0377 18.1619C34.036 18.1813 34.0351 18.2007 34.0351 18.2201C34.0351 19.821 34.9461 20.8864 35.9106 22.0143C36.7241 22.9656 37.5616 23.945 37.985 25.388L36.2008 25.7002ZM31.2417 13.7342H29.7023C29.43 12.7469 29.0101 11.8076 28.4487 10.9298L29.5379 9.91984C29.8352 9.6442 29.8352 9.19728 29.5379 8.92164L26.5124 6.11611C26.3697 5.98376 26.176 5.90938 25.9741 5.90938C25.7722 5.90938 25.5786 5.98376 25.4358 6.11611L24.3466 7.12614C23.3996 6.60555 22.3865 6.21617 21.3223 5.96364V4.53609C21.3223 4.14626 20.9814 3.83021 20.561 3.83021H16.2823C15.8619 3.83021 15.5211 4.14626 15.5211 4.53609V5.96364C14.4564 6.21626 13.4436 6.60555 12.4968 7.12605L11.4076 6.11611C11.1104 5.84047 10.6285 5.84038 10.3311 6.11611L7.30556 8.92155C7.16282 9.0539 7.08261 9.23346 7.08261 9.4207C7.08261 9.60793 7.16282 9.78749 7.30556 9.91984L8.3948 10.9299C7.83338 11.808 7.41356 12.7473 7.14122 13.7342H5.6017C5.1813 13.7342 4.84046 14.0502 4.84046 14.44V18.4075C4.84046 18.7974 5.1813 19.1134 5.6017 19.1134H7.14132C7.41365 20.1006 7.83357 21.0398 8.3948 21.9176L7.30556 22.9277C7.00829 23.2034 7.0082 23.6503 7.30556 23.9259L10.331 26.7315C10.4738 26.8638 10.6674 26.9382 10.8693 26.9382C11.0712 26.9382 11.2648 26.8638 11.4076 26.7315L12.497 25.7213C13.4439 26.2419 14.457 26.6313 15.5212 26.8838V28.3114C15.5212 28.7012 15.862 29.0173 16.2824 29.0173H20.5611C20.9815 29.0173 21.3223 28.7012 21.3223 28.3114V26.8837C22.3869 26.6312 23.4 26.2418 24.3467 25.7214L25.4359 26.7315C25.7332 27.0072 26.2151 27.0072 26.5124 26.7315L29.538 23.926C29.6807 23.7937 29.7609 23.6141 29.7609 23.4269C29.7609 23.2396 29.6807 23.0601 29.538 22.9277L28.4486 21.9176C29.0101 21.0395 29.43 20.1001 29.7023 19.1133H31.2417C31.6621 19.1133 32.003 18.7973 32.003 18.4074V14.4399C32.003 14.0501 31.6621 13.7342 31.2417 13.7342ZM30.4805 17.7016H29.095C28.732 17.7016 28.4194 17.9394 28.3484 18.2695C28.0897 19.4731 27.5848 20.6026 26.8477 21.6268C26.6462 21.9068 26.686 22.2797 26.9427 22.5177L27.9232 23.4269L25.9742 25.234L24.9937 24.3248C24.737 24.0868 24.3348 24.05 24.0329 24.2369C22.929 24.9201 21.7109 25.3883 20.4123 25.6283C20.0562 25.6942 19.7999 25.984 19.7999 26.3206V27.6055H17.0437V26.3206C17.0437 25.984 16.7873 25.6942 16.4313 25.6283C15.1333 25.3884 13.9153 24.9203 12.8107 24.2368C12.5089 24.05 12.1066 24.0868 11.8499 24.3248L10.8693 25.234L8.92044 23.4268L9.90092 22.5176C10.1577 22.2796 10.1973 21.9066 9.99579 21.6266C9.259 20.603 8.75411 19.4735 8.49519 18.2694C8.42411 17.9393 8.11162 17.7016 7.7486 17.7016H6.36295V15.1458H7.7486C8.11162 15.1458 8.4242 14.9081 8.49519 14.5779C8.75392 13.3744 9.25881 12.2448 9.99589 11.2207C10.1974 10.9407 10.1577 10.5678 9.90092 10.3298L8.92044 9.42061L10.8694 7.61346L11.8498 8.52255C12.1064 8.76061 12.5088 8.79749 12.8107 8.61052C13.9147 7.92732 15.1328 7.45914 16.4314 7.21896C16.7873 7.15314 17.0437 6.86338 17.0437 6.52676V5.24197H19.7999V6.52667C19.7999 6.86329 20.0562 7.15314 20.4123 7.21896C21.7102 7.45888 22.9284 7.92705 24.0329 8.61052C24.3349 8.7974 24.7371 8.76061 24.9937 8.52246L25.9741 7.61338L27.923 9.42061L26.9426 10.3297C26.6859 10.5678 26.6462 10.9407 26.8477 11.2207C27.5845 12.2443 28.0894 13.3739 28.3484 14.578C28.4194 14.9082 28.7319 15.1459 29.0949 15.1459H30.4804V17.7016H30.4805ZM23.7393 12.1988C23.7393 11.809 23.3984 11.4929 22.9781 11.4929H21.7582V10.042H20.2357V11.4929H19.183V10.042H17.6605V11.4929H16.6078V10.042H15.0853V11.4929H13.8653C13.4449 11.4929 13.1041 11.809 13.1041 12.1988V13.33H11.5394V14.7417H13.1041V15.7179H11.5394V17.1296H13.1041V18.1058H11.5394V19.5175H13.1041V20.6487C13.1041 21.0385 13.4449 21.3546 13.8653 21.3546H15.0853V22.8054H16.6078V21.3546H17.6605V22.8054H19.183V21.3546H20.2357V22.8054H21.7582V21.3546H22.9781C23.3984 21.3546 23.7393 21.0385 23.7393 20.6487V19.5175H25.304V18.1058H23.7393V17.1296H25.304V15.7179H23.7393V14.7417H25.304V13.33H23.7393V12.1988ZM22.2168 19.9429H14.6265V12.9047H22.2168V19.9429ZM16.3309 19.0684H20.5125C20.9329 19.0684 21.2737 18.7524 21.2737 18.3625V14.485C21.2737 14.0952 20.9329 13.7792 20.5125 13.7792H16.3309C15.9105 13.7792 15.5696 14.0952 15.5696 14.485V18.3625C15.5696 18.7524 15.9105 19.0684 16.3309 19.0684ZM17.0921 15.1909H19.7512V17.6567H17.0921V15.1909Z" fill="#4A4A4A"/>
</svg>
