<?xml version="1.0" encoding="UTF-8"?>
<svg version="1.1" viewBox="0 0 2048 2048" width="1280" height="1280" xmlns="http://www.w3.org/2000/svg">
<path transform="translate(1170,96)" d="m0 0h28l24 3 22 6 20 8 20 10 12 8 13 10 15 14 9 10 13 18 9 16 6 12 7 19 6 25 222 1 31 2 30 4 27 6 30 9 26 10 28 13 23 13 21 14 19 14 13 11 10 9 8 7 15 15 7 8 12 14 15 20 10 15 13 22 12 23 10 23 9 25 7 24 7 34 4 33 1 20v22l-2 33-4 27-5 24-8 29-11 30-12 26-13 24-14 22-14 19-9 11-11 13-7 8h-2l-2 4-8 8-8 7-13 12-13 10-15 11-15 10-24 14-15 8-20 9-24 9-26 8-26 6-24 4-28 3-23 1h-518l39 39 1 4-10 9-30 30-3 4-5-2v-2l-4-2-109-109-2-4 117-117 4 1 42 42-2 4-14 15-12 12h-2l-2 4-7 6-1 2 520-1 22-1 25-3 29-6 24-7 26-10 25-12 18-10 15-10 14-10 13-11 11-9 20-20 9-11 11-13 18-27 9-16 8-15 10-24 10-30 6-26 4-26 2-26v-25l-3-34-5-27-6-23-10-29-13-28-13-23-12-18-10-13-9-11-11-12-20-20-11-9-18-14-17-11-21-12-27-13-27-10-26-7-26-5-35-3-226-1-1 10-5 19-8 20-10 19-11 16-11 13-9 10-14 12-14 10-21 12-16 7-19 6-24 5-12 1h-31l-17-2-17-4-21-7-23-11-14-9-13-10-10-9-14-14-11-14-8-13-11-21-7-19-5-18-3-17-1-10v-29l4-27 6-21 8-19 10-19 12-17 12-14 12-12 14-11 15-10 14-8 19-8 20-6 21-4z" fill="#223A59"/>
<path transform="translate(722,832)" d="m0 0h28l24 3 22 6 20 8 20 10 12 8 13 10 15 14 9 10 13 18 9 16 9 19 7 22 4 21 1 10v35l-2 16-6 24-8 21-11 21-8 12-13 16-11 12-11 9-10 8-18 11-16 8-12 5-20 6-20 4-12 1h-31l-17-2-17-4-21-7-23-11-14-9-13-10-10-9-14-14-11-14-8-13-12-23-6-17-6-22v-5l-105 1-29 3-26 5-25 7-25 9-26 12-18 10-19 12-17 13-11 9-12 11-3 1-1 3-6 5-7 8-11 12-10 13-10 14-13 21-12 23-10 23-11 33-6 27-3 20-2 21v41l4 35 5 24 7 24 8 22 9 20 12 23 12 19 14 19 12 14 9 10 19 19 11 9 14 11 16 11 15 9 22 12 23 10 36 12 27 6 22 3 27 2 76 1-1-3-8-7-30-30 1-4 42-42 4 1 115 115-1 5-5 5-3 1-2 4-88 88h-2l-1 3-8 7-4 5-5 2-7-8-32-32-4-3 1-4 37-37 1-2h-72l-36-2-33-5-34-8-33-11-23-10-23-11-27-16-16-11-12-9-16-13-12-11-8-7-12-12-7-8-12-14-13-17-13-19-12-20-12-23-10-22-9-24-9-31-5-24-4-27-2-23v-46l3-29 5-30 7-28 11-33 12-28 10-19 12-21 13-19 9-12 13-16 7-8 9-10 20-20 11-9 13-11 18-13 20-13 25-14 23-11 26-10 25-8 30-7 33-5 30-2 98-1 1-9 6-21 8-19 10-19 11-16 13-15 12-12 14-11 15-10 14-8 19-8 20-6 21-4z" fill="#48B1CD"/>
<path transform="translate(850,1568)" d="m0 0h28l24 3 22 6 20 8 20 10 12 8 13 10 15 14 9 10 13 18 9 16 6 12 7 19 6 25 371 1-7-8-32-32 1-4 42-42 4 1 115 115-1 5-5 5-3 1-2 4-88 88h-2l-1 3-8 7-4 5-5 2-7-8-32-32-4-3 1-4 37-37 1-2h-372l-1 10-5 19-8 20-10 19-11 16-11 13-9 10-14 12-14 10-21 12-16 7-19 6-24 5-12 1h-31l-17-2-17-4-21-7-23-11-14-9-13-10-10-9-14-14-11-14-8-13-11-21-7-19-5-18-3-17-1-10v-29l4-27 6-21 8-19 10-19 12-17 12-14 12-12 14-11 15-10 14-8 19-8 20-6 21-4z" fill="#48B1CD"/>
<path transform="translate(274,96)" d="m0 0h28l18 2 25 6 21 8 22 11 12 8 13 10 15 14 9 10 13 18 9 16 9 19 7 23 3 14 371 1-7-8-32-32 1-4 42-42 4 1 115 115-1 5-5 5-3 1-2 4-88 88h-2l-1 3-8 7-4 5-5 2-7-8-32-32-4-3 1-4 37-37 1-2h-372l-1 10-5 19-8 20-10 19-11 16-11 13-9 10-14 12-14 10-21 12-16 7-19 6-24 5-12 1h-31l-17-2-17-4-21-7-23-11-14-9-13-10-10-9-14-14-11-14-8-13-11-21-7-19-5-18-4-26v-31l4-26 6-21 8-19 10-19 11-16 13-15 12-12 14-11 15-10 14-8 19-8 20-6 21-4z" fill="#48B1CD"/>
<path transform="translate(1170,96)" d="m0 0h28l24 3 22 6 20 8 20 10 12 8 13 10 15 14 9 10 13 18 9 16 6 12 7 19 6 25 1 2 1 11v39l-2 12 2 1h-3l-1 10-5 19-8 20-10 19-11 16-11 13-9 10-14 12-14 10-21 12-16 7-19 6-24 5-12 1h-31l-17-2-17-4-21-7-23-11-14-9-13-10-10-9-14-14-11-14-8-13-11-21-7-19-5-18-3-17-1-10v-29l4-27 6-21 8-19 10-19 12-17 12-14 12-12 14-11 15-10 14-8 19-8 20-6 21-4z" fill="#48B1CD"/>
<path transform="translate(1746,1568)" d="m0 0h28l24 3 22 6 20 8 20 10 12 8 13 10 15 14 9 10 13 18 9 16 9 19 8 26 3 16 1 11v33l-2 17-6 25-8 21-11 21-11 16-11 13-9 10-14 12-14 10-21 12-16 7-19 6-24 5-12 1h-31l-17-2-17-4-21-7-23-11-14-9-13-10-10-9-14-14-11-14-8-13-11-21-7-19-5-18-3-17-1-10v-29l4-27 6-21 8-19 10-19 12-17 12-14 12-12 14-11 15-10 14-8 19-8 20-6 21-4z" fill="#DD4F49"/>
<path transform="translate(449,992)" d="m0 0h96v63l-2 1-101 1-29 3-26 5-25 7-25 9-26 12-18 10-19 12-17 13-11 9-12 11-3 1-1 3-6 5-7 8-11 12-10 13-10 14-13 21-12 23-10 23-11 33-6 27-3 20-2 21v41l4 35 5 24 7 24 8 22 9 20 12 23 12 19 14 19 12 14 9 10 19 19 11 9 14 11 16 11 15 9 22 12 23 10 36 12 27 6 22 3 27 2 76 1-1-3-8-7-30-30 1-4 42-42 4 1 115 115-1 5-5 5-3 1-2 4-88 88h-2l-1 3-8 7-4 5-5 2-7-8-32-32-4-3 1-4 37-37 1-2h-72l-36-2-33-5-34-8-33-11-23-10-23-11-27-16-16-11-12-9-16-13-12-11-8-7-12-12-7-8-12-14-13-17-13-19-12-20-12-23-10-22-9-24-9-31-5-24-4-27-2-23v-46l3-29 5-30 7-28 11-33 12-28 10-19 12-21 13-19 9-12 13-16 7-8 9-10 20-20 11-9 13-11 18-13 20-13 25-14 23-11 26-10 25-8 30-7 33-5z" fill="#223B5A"/>
<path transform="translate(853,170)" d="m0 0 4 1 115 115-1 5-5 5-3 1-2 4-88 88h-2l-1 3-8 7-4 5-5 2-7-8-32-32-4-3 1-4 37-37 1-2h-369l-2-1 1-14v-37l-1-12h371l-7-8-32-32 1-4z" fill="#223A59"/>
<path transform="translate(1429,1642)" d="m0 0 4 1 115 115-1 5-5 5-3 1-2 4-88 88h-2l-1 3-8 7-4 5-5 2-7-8-32-32-4-3 1-4 37-37 1-2h-369v-40l-1-23 1-1h369l-7-8-32-32 1-4z" fill="#223A59"/>
</svg>
