<?xml version="1.0" encoding="UTF-8"?>
<svg version="1.1" viewBox="0 0 2048 2048" width="1280" height="1280" xmlns="http://www.w3.org/2000/svg">
<path transform="translate(1067,140)" d="m0 0h47l20 3 21 5 23 8 23 11 16 10 19 14 13 12 15 15 11 14 12 19 11 23 9 25 5 23 2 15v16l-3 20-6 15-1 2v13l1 20v72l-3 38-4 27-6 26-8 24-7 16 11-4 12-2h27l14 3 13 5 13 7 10 8 12 11 11 14 10 15 13 25 13 31 12 36 10 37 8 37 7 44 5 41 2 26v13l67-8 141-16 18-2h8v54l-6 20-16 49-29 87-6-2-15-9-23-13-14-8-5 3-26 15-24 14-29 16-26 15-18 11-3 7-7 27-9 26-9 21-9 19-9 16-12 19-14 19-11 13-8 10h-2l-2 4-9 9-8 7-12 11-12 9-18 13-25 15-15 8-28 13-35 15-30 11-36 12-30 9-44 11-38 8-36 6-38 5-45 4-49 3h-46l-35-3-30-5-27-7-21-8-16-8-14-10-12-11-10-13-8-16-4-14-1-23v-84l2-75 3-60 1-5-28 16-8 5-4-1-78-45-22-13-13-8-52-30-10-6-5 2-25 14-17 10-9 5h-3l-7-20-9-25-17-50-15-43-5-16v-55l16 1 91 10 141 16 20 3v56l-2 2-7 1 3 3 26 15 24 14 21 12 6 4v-8l8-45 7-30 7-24 8-21 8-16 9-13 15-16 19-19 8-7 11-10 11-9 13-11 13-10 21-16 19-13 13-9 17-11 28-17 14-8 6-7 9-11 11-14 12-14 4-5v-71l-1-3-4-2-10-11-11-14-14-21-13-22-8-16-10-21-11-28-10-28-6-21-5-25-3-23-1-13v-18l2-22 4-27 7-28 7-20 10-22 12-20 12-16 13-15 14-14 11-9 18-13 19-11 21-10 24-8 16-4 15-3zm644 815 1 2zm-1378 3m1377 0m-1 1 1 2zm-1375 2 1 2zm1374 0-1 7 2-3zm-1373 3 1 2zm1 2 1 3zm1370 2 1 2zm-1369 2 1 2zm1368 0 1 3zm-1367 3 1 3zm1366 0 1 3zm-1 3 1 3zm-1364 1 1 2zm1 2 1 3zm1362 0 1 4zm-1361 4m1360 0 1 3zm-1359 3 1 2zm1358 0-1 6 2-3zm-1357 2 1 3zm232 1m-231 2 1 2zm1354 1 1 3zm-1130 1m-223 1 1 2zm1352 1 1 3zm-1351 2 1 2zm1350 1-2 5 1 4 2-9zm-1349 2 1 2zm1 2 1 3zm1 3 1 6 1-4zm1148 1m196 1 1 3zm-1 3-1 5 2-2zm-1341 1 1 5 1-3zm1339 4 1 4zm-1337 1 1 3zm1 3 1 3zm1335 0 1 2zm-1334 3 1 3zm1333 0-1 5 2-2zm-1332 3 1 3zm1 3 1 3zm1329 0 1 3zm-1328 3 1 3zm1327 0 1 2zm-1326 3 1 3zm1325 0-1 6 2-3zm-1324 3 1 2zm1 3 1 2zm1321 0 1 3zm-1320 3 1 2zm1319 0 1 2zm-1318 3 1 2zm1317 0 1 3zm-1316 2 1 3zm1315 1 1 2zm-1314 2 1 3zm1313 1 1 3zm-1312 2 1 3zm1311 1 1 2zm-1310 2 1 2zm1309 1 1 3zm-1308 1 1 3zm1307 2 1 2zm-1306 2 1 2zm1305 1 1 2zm-1304 2 1 2zm1303 1 1 2zm-1302 1 1 3zm67 1 4 1zm1167 0 2 2v-2zm-1169 1m6 0m1230 0 1 2zm-1300 1 1 3zm73 0m-13 1m1239 1 1 2zm-1298 1 1 2zm77 0m1220 2 1 2zm-1246 1m-50 1 1 2zm48 0m35 0m1165 0m-1163 1m1210 0 1 2zm-1294 1 1 2zm86 0m1 1m1165 0m-1163 1m1165 0m39 0 1 2zm-1292 1 1 2zm92 1m1164 0m-1163 1m1165 0m33 0m-1196 1m1165 0m-1259 1m1263 1m-1164 1m1165 0m-1263 1 1 2zm100 0m1165 0m-1164 1m2 1m1165 0m-1163 1m1165 0m-1269 1m106 0m1166 1m-1163 1m1165 0m-1163 1m1166 1m-1276 1 1 4zm1283 1-1 5 2-3zm-1166 1m9 5m1 1m2 1m4 2m-132 4v19h1v-19zm1280 3v29h1v-29zm-1279 20v10h1v-10z" fill="#FED357"/>
<path transform="translate(1276,638)" d="m0 0 2 1 14 32 18 42 10 22 17 41 17 40 26 62 13 30 2 5v8l-3 19-6 43-4 28v15l7 45 8 44 1 3v14l-12 63-6 28-8 37-13 52-9 30-12 35-9 22-5 11-7 14-3 9-4 4-16 9-17 9-33 15-27 11-27 10-36 12-30 9-44 11-38 8-36 6-38 5-45 4-49 3h-46l-35-3-30-5-27-7-21-8-16-8-14-10-12-11-10-13-8-16-4-14-1-23v-84l2-75 3-60 1-5-28 16-8 5-4-1-78-45-22-13-13-8-52-30-10-6-5 2-25 14-17 10-9 5h-3l-7-20-9-25-17-50-15-43-5-16v-55l16 1 91 10 141 16 20 3v56l-2 2-7 1 3 3 26 15 24 14 21 12 6 4v-8l8-45 7-30 7-24 8-21 8-16 9-13 15-16 19-19 8-7 11-10 11-9 13-11 13-10 21-16 19-13 13-9 17-11 28-17 14-8h3l7 11 12 22 21 32 10 17 9 15 8 14v3h2l10 17 14 24 10 17 14 24 10 17 7 12v3h2l15 26 7 12v3h2l15 26 14 24 1 5h2l10 18v3h2l2 4v3h2l13 23 1 5 3 1 11 20 4 7v3h2l2 4v3h2l10 18v3h2l2 4v3h2l12 21v4h2l12 21 14 24 8 14 14 24 6 10 4 8 3 7 3 4v2l3 1 3 9 12 22 10 18 9 18h2l1 7 4 1 3-1 3-25 4-42 3-46 1-31v-22l-1-97-1-17-1-49-5-76-7-91-5-57-6-65-6-67-8-89-2-14zm-943 320m1 3 1 2zm1 3 1 2zm1 2 1 3zm1 4 1 2zm1 3 1 3zm1 4 1 2zm1 2 1 3zm1 4m1 3 1 2zm1 2 1 3zm232 1m-231 2 1 2zm224 2m-223 1 1 2zm1 3 1 2zm1 3 1 2zm1 2 1 3zm1 3 1 6 1-4zm2 6 1 5 1-3zm2 5 1 3zm1 3 1 3zm1 3 1 3zm1 3 1 3zm1 3 1 3zm1 3 1 3zm1 3 1 3zm1 3 1 2zm1 3 1 2zm1 3 1 2zm1 3 1 2zm1 2 1 3zm1 3 1 3zm1 3 1 3zm1 3 1 2zm1 2 1 3zm1 4 1 2zm1 3 1 2zm1 2 1 3zm67 1 4 1zm-2 1m6 0m-70 1 1 3zm73 0m-13 1m-59 2 1 2zm77 0m-26 3m-50 1 1 2zm48 0m35 0m2 1m-84 1 1 2zm86 0m1 1m2 1m-88 1 1 2zm92 1m1 1m2 1m-94 1m99 2m-98 1 1 2zm100 0m1 1m2 1m2 1m-104 1m106 0m3 2m2 1m-110 2 1 4zm117 2m9 5m1 1m2 1m4 2m-132 4v19h1v-19zm1 23v10h1v-10z" fill="#8CD676"/>
<path transform="translate(1793,77)" d="m0 0h6l18 10 22 14 2 6v281l-6 12-9 8-23 13-24 14-28 16-24 14-28 16-24 14-52 30-28 16-13 8-6 8-13 20-14 22-15 23-11 17-10 16-9 14-10 17-4 5-36-21-1-2v-23l1-22-4 2-8-1-18-10-18-11-4-4-1-146v-138l6-12 5-5 7-6 21-12 19-11 71-41 24-14 23-13 24-14 26-15 16-9 22-12 17-10 71-41 26-15zm-361 260m2 1 4 4-1-4zm3 26v16h1v-16zm0 111v66h1v-66zm0 67m0 30m0 2v42h1v-42z" fill="#0270C6"/>
<path transform="translate(1067,140)" d="m0 0h47l20 3 21 5 23 8 23 11 16 10 19 14 13 12 15 15 11 14 12 19 11 23 9 25 5 23 2 15v16l-3 20-6 15-1 2-6 1-14-2h-13l-12 9-15 11-11 7-16 9-22 9-25 6-9 1h-27l-14-2-25-7-18-8-16-8-12-5-14-3h-13l-14 3-12 6-7 6h-2l-2 4-7 11-8 20-12 34-11 27-12 25-10 16-9 12-4 5-5 1-8-16-11-23-11-28-10-28-6-21-5-25-3-23-1-13v-18l2-22 4-27 7-28 7-20 10-22 12-20 12-16 13-15 14-14 11-9 18-13 19-11 21-10 24-8 16-4 15-3z" fill="#2D2D2D"/>
<path transform="translate(1300,620)" d="m0 0h27l14 3 13 5 13 7 10 8 12 11 11 14 10 15 13 25 13 31 12 36 10 37 8 37 7 44 5 41 2 26v13l67-8 141-16 18-2h8v54l-6 20-16 49-29 87-6-2-15-9-23-13-14-8-5 3-26 15-24 14-29 16-26 15-18 11-3 7-7 27-9 26-9 21-9 19-9 16-12 19-14 19-11 13-8 10h-2l-2 4-9 9-8 7-12 11-12 9-18 13-8 5-2-1 3-9 5-10 5-11 9-21 12-34 12-40 11-44 8-35 6-31 5-24 8-42v-14l-5-25-6-36-5-31v-15l12-84 1-6v-8l-21-49-15-36-17-40-17-41-13-30-10-22-17-40-7-16 2 18 8 89 14 154 8 98 6 88 1 16v17h-1l-6-92-8-100-6-67-3-26-1-20-3-25-1-20-3-24-2-26-2-17-2-26-3-29v-17l2-4 11-4zm411 335 1 2zm-1 3m-1 1 1 2zm-1 2-1 7 2-3zm-2 7 1 2zm-1 2 1 3zm-1 3 1 3zm-1 3 1 3zm-1 3 1 4zm-1 4 1 3zm-1 3-1 6 2-3zm-2 6 1 3zm-1 3 1 3zm-1 3-2 5 1 4 2-9zm-199 8m196 1 1 3zm-1 3-1 5 2-2zm-2 5 1 4zm-1 4 1 2zm-1 3-1 5 2-2zm-2 6 1 3zm-1 3 1 2zm-1 3-1 6 2-3zm-2 6 1 3zm-1 3 1 2zm-1 3 1 3zm-1 3 1 2zm-1 3 1 3zm-1 3 1 2zm-1 3 1 3zm-1 3 1 2zm-1 3 1 2zm-1 3 1 2zm-68 2 2 2v-2zm67 1 1 2zm-1 3 1 2zm-1 3 1 2zm-48 2m47 1 1 2zm-42 2m2 1m39 0 1 2zm-36 2m2 1m33 0m-31 1m4 2m1 1m2 1m3 2m2 1m3 2m2 1m3 2m7 2-1 5 2-3zm-2 17v29h1v-29z" fill="#8CD676"/>
<path transform="translate(1777,1260)" d="m0 0 9 3 32 12 49 19 85 33 43 17 8 3 1 2v53l-3 3-27 11-36 14-85 33-30 11-43 17h-3l-1-46h-104l-148-1-1-5v-132l252-1 1-45z" fill="#EE5D59"/>
<path transform="translate(268,1260)" d="m0 0 3 1v46h253l1 80v57l-3 1h-142l-108-1v48l-5-1-33-13-49-19-28-11-19-8-49-19-41-16-3-1-1-2 1-54 10-5 39-15 43-17 95-37z" fill="#EE5D59"/>
<path transform="translate(1426,1524)" d="m0 0h5l14 8 24 14 28 16 24 14 26 15 24 14 28 16 8 5 5-2 14-8 24-14 14-8h2l19 56 15 43 17 49 2 6 1 55-1 1h-11l-91-10-40-5-67-8-56-6-3-1v-56l5-2h3l-5-5-24-14-26-15-22-13-13-8-24-14-15-9-2-2v-53l5-5 18-10 15-9 26-15 24-14z" fill="#409AE0"/>
<path transform="translate(619,1524)" d="m0 0 7 1 24 14 52 30 20 12 1 1v55l-13 8-48 28-26 15-22 12-20 12-1 3 6 1 3 2v56l-2 1-43 5-72 8-57 6-88 10h-6l-1-5 1-53 14-41 16-49 14-42 7-20 5 2 22 12 24 14 6 4 5-2 23-13 27-16 52-30 24-14 26-15z" fill="#E9E9E9"/>
<path transform="translate(959,720)" d="m0 0h1l2 7 8 11 11 12v2h2l7 8 7 7 8 7 17 14 17 12 13 8 22 12 21 9 27 9 28 6 31 4 12 1-8 15-10 25-7 27-1 8h19l2 5 17 131 14 97 11 68 9 50 7 36 5 21-1 4-6-9-13-23-10-17-12-21-10-17-3-5v-2h-2l-3-7-9-16v-2h-2l-2-7h-2l-8-16-2-5h-2l-2-7h-2l-8-16-8-14-2-1-3-7-11-19v-2h-2l-2-7h-2l-8-16-2-5h-2l-7-14-14-24-9-15v-2h-2l-7-14-15-25v-2h-2l-6-12-10-17-16-27-8-14-14-24-11-18v-2h-2l-7-14-21-35-17-26-10-17-10-18-3-4 2-4 6-8 13-16 9-11 9-10z" fill="#FDFDFD"/>
<path transform="translate(329,947)" d="m0 0 16 1 91 10 141 16 20 3v56l-2 2-7 1 3 3 26 15 24 14 21 12 5 4-1 10-5 51-1 4-1 19-4 39-13 8-19 11-3 2-4-1-78-45-22-13-13-8-52-30-10-6-5 2-25 14-17 10-9 5h-3l-7-20-9-25-17-50-15-43-5-16zm4 11m1 3 1 2zm1 3 1 2zm1 2 1 3zm1 4 1 2zm1 3 1 3zm1 4 1 2zm1 2 1 3zm1 4m1 3 1 2zm1 2 1 3zm232 1m-231 2 1 2zm224 2m-223 1 1 2zm1 3 1 2zm1 3 1 2zm1 2 1 3zm1 3 1 6 1-4zm2 6 1 5 1-3zm2 5 1 3zm1 3 1 3zm1 3 1 3zm1 3 1 3zm1 3 1 3zm1 3 1 3zm1 3 1 3zm1 3 1 2zm1 3 1 2zm1 3 1 2zm1 3 1 2zm1 2 1 3zm1 3 1 3zm1 3 1 3zm1 3 1 2zm1 2 1 3zm1 4 1 2zm1 3 1 2zm1 2 1 3zm67 1 4 1zm-2 1m6 0m-70 1 1 3zm73 0m-13 1m-59 2 1 2zm77 0m-26 3m-50 1 1 2zm48 0m35 0m2 1m-84 1 1 2zm86 0m1 1m2 1m-88 1 1 2zm92 1m1 1m2 1m-94 1m99 2m-98 1 1 2zm100 0m1 1m2 1m2 1m-104 1m106 0m3 2m2 1m-110 2 1 4zm117 2m9 5m1 1m2 1m4 2m-132 4v19h1v-19zm1 23v10h1v-10z" fill="#409AE0"/>
<path transform="translate(955,1637)" d="m0 0h140l2 3v144h82v56l-13 12-11 9-11 10-11 9-10 9-14 11-12 11-11 9-12 11-11 9-10 9-11 9-11 10-4 3h-2l-5-5-11-10-11-9-10-9-11-9-30-26-14-12-15-14-11-9-30-26-3-3v-55l81-1-1-54v-84z" fill="#FED357"/>
<path transform="translate(1276,638)" d="m0 0 2 1 14 32 18 42 10 22 17 41 17 40 26 62 13 30 2 5v8l-3 19-6 43-4 28v15l7 45 8 44 1 3v14l-12 63-6 28-8 37-13 52-9 30-12 35-9 22-5 11-7 14-3 9-5 1-1-1v-12l4-33 4-51 2-50v-22l-1-97-1-17-1-49-5-76-7-91-5-57-6-65-6-67-8-89-2-14z" fill="#45B44E"/>
<path transform="translate(1706,947)" d="m0 0h8v54l-6 20-16 49-29 87-6-2-15-9-23-13-14-8-5 3-26 15-24 14-29 16-26 15-17 10h-1v-11l2-22 1-12 2-57v-97l-1-26 41-5 140-16zm5 8 1 2zm-1 3m-1 1 1 2zm-1 2-1 7 2-3zm-2 7 1 2zm-1 2 1 3zm-1 3 1 3zm-1 3 1 3zm-1 3 1 4zm-1 4 1 3zm-1 3-1 6 2-3zm-2 6 1 3zm-1 3 1 3zm-1 3-2 5 1 4 2-9zm-199 8m196 1 1 3zm-1 3-1 5 2-2zm-2 5 1 4zm-1 4 1 2zm-1 3-1 5 2-2zm-2 6 1 3zm-1 3 1 2zm-1 3-1 6 2-3zm-2 6 1 3zm-1 3 1 2zm-1 3 1 3zm-1 3 1 2zm-1 3 1 3zm-1 3 1 2zm-1 3 1 3zm-1 3 1 2zm-1 3 1 2zm-1 3 1 2zm-68 2 2 2v-2zm67 1 1 2zm-1 3 1 2zm-1 3 1 2zm-48 2m47 1 1 2zm-42 2m2 1m39 0 1 2zm-36 2m2 1m33 0m-31 1m4 2m1 1m2 1m3 2m2 1m3 2m2 1m3 2m7 2-1 5 2-3zm-2 17v29h1v-29z" fill="#E9E9E9"/>
<path transform="translate(925,787)" d="m0 0h3l9 16 5 5 10 16 9 14 24 40 2 4v3h2l10 17 14 24 10 17 14 24 10 17 7 12v3h2l15 26 7 12v3h2l15 26 14 24 1 5h2l10 18v3h2l2 4v3h2l13 23 1 5 3 1 11 20 4 7v3h2l2 4v3h2l10 18v3h2l2 4v3h2l12 21v4h2l12 21 14 24 8 14 14 24 6 10 4 8 3 7 3 4v2l3 1 3 9 12 22 10 18 7 14 2 2 3 12-7-3-7-11-11-13-10-9-15-15v-2h-2l-7-8-55-55-7-8-53-53v-2h-2v-2h-2v-2h-2l-14-16-2-16-5-63-1-10-11 2-22 7-20 5-10 3-5-1-15-53-9-31-7-26-11-39-28-100-7-24-5-20-7-24-10-34-6-19z" fill="#46B44E"/>
<path transform="translate(1192,850)" d="m0 0h8l13 4 16 8 12 9 12 11 3 3-1 4-10 8-13 10 1 10 24 98 9 38 11 44 12 50 16 65 8 33 4 16 2 5v21l-2 50-5 61-4 31-4 4-4-2-1-7h-2l-4-7-6-11-14-26-9-16-2-7-4-4-4-6-3-8-4-20-7-33-13-72-11-70-14-99-15-116-1-4h-9l-10-1v-8l8-30 9-22z" fill="#EF5F59"/>
<path transform="translate(960,653)" d="m0 0 6 2 18 11 13 8 3 1v2l5 2 8 4 19 10 16 7 20 7 23 6 32 5h22l26-3 15-4 18-8 14-8 17-13 9-8h3v30l-4 26-5 22-7 22-8 21-12 26-14 24-1 5-25-2-32-5-20-5-27-9-28-13-19-11-16-11-14-11-13-11-13-12-6-6v-2h-2l-7-8-12-15-2-3z" fill="#EEC14D"/>
<path transform="translate(1274,631)" d="m0 0h1l3 36 2 19 2 26 2 19 3 31 1 7 1 20 3 25 1 20 4 37 6 67 8 103 5 78 1 32 1 17v94l-2-1-11-44-10-42-18-73-11-46-5-19-6-26-24-99v-5l10-8 14-11-1-4-9-9-13-10-16-9-11-4-9-2-1-3 13-23 8-16 9-20 7-19 7-24 5-27 4-32 1-16 9-14 9-15z" fill="#FDFDFD"/>
<path transform="translate(59,1355)" d="m0 0 5 1 18 6 8 4 10 3 3 1v2l7 1 37 14 9 4 29 11 39 15 40 16 6 1 1-6 1-16 1-13-1-2v-6l107-1 19-1h58l36-1h27l5 1 1 55-3 1h-142l-108-1v48l-5-1-33-13-49-19-28-11-19-8-49-19-36-14 2-5h-2v-5l-3-5 2-4-1-16 2-3-1-10 7-2z" fill="#CA4A48"/>
<path transform="translate(959,720)" d="m0 0h1l2 7 8 11 11 12v2h2l7 8 7 7 8 7 17 14 17 12 13 8 22 12 21 9 27 9 28 6 31 4 12 1-8 15-10 25-7 27-1 8h10v1l-11 1-3 23-8-1-41-13-29-11-28-13-22-12-9-6-7-4-14-11-14-12-6-7v-2l-4-2-4-5v-2h-2l-2-3v-3h-2l-2-6h-2l-3-7-6-8-1-3-2-1v-3h-2v-2h-2l-2-7h-2v-3h-2l-5-9-7-11-2-2-2-9 1-8 1-4-2-2 13-17 13-15z" fill="#E9E9E9"/>
<path transform="translate(1641,164)" d="m0 0 4 1 9 6 16 9 7 4-1 3-27 16-24 14-52 30-21 12-52 30-28 16-17 10h-2l-2 4-6 5-4 7-1 5-1 36h-1l1 72v62h-1v68l-1 46-4-1-24-14-7-6-1-146v-138l6-12 5-5 7-6 21-12 19-11 71-41 24-14 23-13 24-14 26-15zm-209 173m2 1 4 4-1-4z" fill="#0371C6"/>
<path transform="translate(330,948)" d="m0 0 2 3 1 8 4 11 10 30 12 34 4 13 5 12 3 9 7 23 2 10 1 21 1-21 9-4 12-7 11-6 17-10 2-2 5-2 5 1 10 5v2l9 3 7 4v2l7 2 5 4 7 3v2l5 1 2 1v2l5 1v2l7 2 8 5 25 14 24 14 26 15 24 14 3 2 7-1 26-15 7-4h2v17l-4 39-13 8-19 11-3 2-4-1-78-45-22-13-13-8-52-30-10-6-5 2-25 14-17 10-9 5h-3l-7-20-9-25-17-50-15-43-5-16v-53zm52 189v10h1v-10z" fill="#0270C6"/>
<path transform="translate(874,1785)" d="m0 0 8 6 12 11 14 11 6 5v2l4 2 11 9 14 12 11 9 28 24 11 9 11 10 10 8 13 12 4-2 13-12 11-9 3-1 1-3 5-4 3-3 6-5h2l1-3 10-8 12-11 10-9 8-7 14-13 8-7 11-9 10-9 11-9h2l2-4 5-1v54l-13 12-11 9-11 10-11 9-10 9-14 11-12 11-11 9-12 11-11 9-10 9-11 9-11 10-4 3h-2l-5-5-11-10-11-9-10-9-11-9-30-26-14-12-15-14-11-9-30-26-3-3z" fill="#DFB24E"/>
<path transform="translate(1451,1718)" d="m0 0 13 1 9 3h18l15 2 11 2 52 6 65 7 63 7 18 1 4 1 1 55-1 1h-11l-91-10-40-5-67-8-56-6-3-1z" fill="#0270C6"/>
<path transform="translate(593,1717)" d="m0 0h8l1 1v56l-2 1-43 5-72 8-57 6-88 10h-6l-1-5 1-47h6l2-4 52-5 97-12 50-7 8-2 27-3z" fill="#D4D4D3"/>
<path transform="translate(1524,1380)" d="m0 0h1l1 9-1 2 127-1 37-1h63l23-1 1 2 1 27v26l-2 2h-103l-148-1-1-5v-54z" fill="#CA4A48"/>
<path transform="translate(1713,958)" d="m0 0h1v43l-6 20-16 49-29 87-6-2-15-9-23-13-14-8-5 3-26 15-24 14-29 16-26 15-17 10h-1v-11l2-22 1-12 2-57h1v43l11-6 16-9 20-12 3-5 17-10 5-1 32-18 14-8 7 1 20 11 10 6 11 6 10 6 4 2 13-41 8-24 3-8 3-10 9-27h2l2-6 5-14 3-9zm-52 159v29h1v-29z" fill="#D4D4D3"/>
<path transform="translate(1274,631)" d="m0 0h1l3 36 2 19 2 26 2 19 3 31 1 7 1 20 3 25 1 20 2 17v6h-2l-3 8-4 13-8 18-7 12h-2l-8-16-2-3-3-1-3-5-8-8-13-10-16-9-11-4-9-2-1-3 13-23 8-16 9-20 7-19 7-24 5-27 4-32 1-16 9-14 9-15z" fill="#E9E9E9"/>
<path transform="translate(2e3 1349)" d="m0 0 1 2 3-1 1 1v51l-3 3-27 11-36 14-85 33-30 11-5 1h-7l-6 3-6 1-9 2-7-1-4-3-1 2v-43l30-12 17-7 7-2 12-5 28-11 25-10 16-6 55-22 17-6 13-5z" fill="#CA4A48"/>
<path transform="translate(960,653)" d="m0 0 6 2 18 11 13 8 3 1v2l5 2 8 4 19 10 16 7 20 7 23 6 32 5h22l26-3 15-4 18-8 14-8 17-13 9-8h3v30l-4 7-5 1v2h-2v2h-2l-2 4h-2l-1 3-9 7-5 3-14 8-12 5-15 4-26 4h-22l-19-3-22-5-15-4-24-8-17-7-26-13-10-6-11-7-10-6v-2l-6-2-4-3-1 29h-1z" fill="#DFB24D"/>
<path transform="translate(1402,322)" d="m0 0 6 2 21 12 8 4v280l-4-1-24-14-7-6z" fill="#0270C6"/>
<path transform="translate(1329,1581)" d="m0 0 4 2v2l20 11 14 8 19 11 25 14 24 14 28 16 29 17 14 8-2 4-20 11-11 7-11 6h-6l-28-16-24-14-22-13-13-8-24-14-15-9-2-2v-53z" fill="#0370C6"/>
<path transform="translate(1178,1786)" d="m0 0h1v54l-13 12-11 9-11 10-11 9-10 9-14 11-12 11-11 9-12 11-11 9-10 9-11 9-11 10-4 3-2-1 2-9v-45l8-7 21-18h2l1-3 5-4 3-3 6-5h2l1-3 10-8 12-11 10-9 8-7 14-13 8-7 11-9 10-9 11-9h2l2-4z" fill="#EEC14D"/>
<path transform="translate(720,1583)" d="m0 0h3v54l-13 8-48 28-26 15-22 12-16 10h-7l-7-5-9-5-4-4-1-2v-11l2-7 13-9h2v-2h3v-2l4-1v-2l8-4 2-2h3v-2l6-2v-2l5-2 4-4 9-7 17-10 24-14 22-13 10-6z" fill="#B3C0BB"/>
<path transform="translate(1793,79)" d="m0 0h2l3 4 7 3 19 12 3 3-8 5-25 14-13 8-26 15-24 14-52 30-24 14-2-1 23-14 1-2-6-2-10-6-14-8-4-5 22-12 17-10 71-41 26-15 8-5 4 1z" fill="#409AE0"/>
<path transform="translate(584,1722)" d="m0 0h11l4 7v26l1 6-2 4v5 3l-3 2-20 3-79 9-14 1-2-9 2-4-2-1 1-2 1-25 2-10 3-2 9-2 25-3 3-1 28-3 4-1 23-2z" fill="#B3C0BB"/>
<path transform="translate(1552,369)" d="m0 0h13l10 5 12 8 5 8 2 6v12l-5 16-7 14-11 14-13 9-7 3h-10l-12-5-9-6-4-4v-2h-2l-3-8v-18l4-13 8-15 8-10 9-8z" fill="#D3D3D2"/>
<path transform="translate(1650,312)" d="m0 0h16l10 4 3 3 9 7 4 8 1 3v15l-4 14-9 17-11 12-12 9-9 3-9-1-16-8-9-8-3-7-1-5v-12l4-14 9-17 9-11 13-10z" fill="#D3D3D2"/>
<path transform="translate(1752,254)" d="m0 0h11l14 7 8 6 5 6 2 5v18l-4 13-7 14-10 13h-2l-1 3-13 8-5 2h-10l-17-8-10-9-3-8-1-12 4-17 8-15 8-11 10-9 10-5z" fill="#D3D3D2"/>
<path transform="translate(619,1524)" d="m0 0 7 1 24 14 52 30 17 10v3l-8 1-11-7-8-4-9-4-14-9-11-6-15-10-14-7-3-1h-8l-10 5-1 2-5 3-14 8-14 9-10 6h-2v2l-13 8-4 2h-3v2l-8 4-11 7-8 5-5 4-14 8-8 5-3 3-1 3-14 5h-2v2l-9 4-4 5-1 2-11-1-9-2-10-7-6-4-13-8-7-5-9-1-2 6-3 5-2 8-8 24-3 10-4 8-5 15-2 4-5 14-2 6-7 19h-2l-1 5-3 4-2 5h-2l1-7 12-35 14-43 15-45 7-20 5 2 22 12 24 14 6 4 5-2 23-13 27-16 52-30 24-14 26-15z" fill="#FDFDFD"/>
<path transform="translate(1601,1072)" d="m0 0 4 1v52l-5 3-26 15-24 14-14 8h-3l-2-10 1-4v-17l1-18 2-5 10-7 23-13 19-11z" fill="#B3C0BB"/>
<path transform="translate(1178,1786)" d="m0 0h1v54l-6 2-6 5h-2v2l-6 3-5 5-3 1-2 4h-2l-2 4-15 12-8 3-5-1-2-5 1-12 1-20 6-9 7-7h2l1-4 11-10 11-9 10-9 5-4h2l2-4z" fill="#DFB24D"/>
<path transform="translate(1537,1107)" d="m0 0m-55-11h1v43l11-6 16-9 20-12 5-4h2l-2 4-1 4-1 28v8l-1 6 2 8-22 12-22 13-12 7h-1v-11l2-22 1-12z" fill="#D3D3D2"/>
<path transform="translate(1607,1075)" d="m0 0h4v2l10 3 10 6 11 6 10 7 8 5 1 2v42l-4 5-7-2-10-6-21-12-13-8v-41z" fill="#B3C0BB"/>
<path transform="translate(330,948)" d="m0 0 2 3 1 8 4 11 10 30 12 34 4 13 5 12 3 9 7 23 2 10 1 21 2 3v26h-3l-8-23-12-34-11-33-15-43-5-16v-53z" fill="#0672C7"/>
<path transform="translate(1706,947)" d="m0 0h8v11l-4 11v3h-2l-3 12-4 8-1-3 10-31-4 2-2 2-4-1-4-3-25 1-16 3-22 2-14 2-19 1-16 2-18 2-7 1-24 1-9 2-11 1-14 1-12 1-6-3v-2l21-3 158-18zm5 8 1 2z" fill="#FDFDFD"/>
<path transform="translate(593,977)" d="m0 0h4v56l-2 2-4 1h-7l-9-6-11-6-16-9-4-4 1-3 17-10 5-3h2v-2l10-5 12-7v-3z" fill="#0370C6"/>
<path transform="translate(1752,254)" d="m0 0h11l14 7 8 6 2 2-1 4-5-5-5-3h-13l-14 8-5 4-6 8-7 12-5 19v15l1 5h2l1 6-7-1-10-9-3-8-1-12 4-17 8-15 8-11 10-9 10-5z" fill="#E7E7E7"/>
<path transform="translate(1552,369)" d="m0 0h13l8 4-1 4-12 4-7 4h-3l-2 4-5 5-7 11-4 10-3 9-2 8v11l4 10v4h-6l-9-8v-2h-2l-3-8v-18l4-13 8-15 8-10 9-8z" fill="#E7E8E8"/>
<path transform="translate(1650,312)" d="m0 0h16l4 2v2l4 1 1 2-11 3-9 5-6 4-6 5-12 18-5 23v8l2 7 1 1v5l-4 1-8-6-4-5-3-10v-12l4-14 9-17 9-11 13-10z" fill="#E9E9E9"/>
<path transform="translate(626,1637)" d="m0 0 2 1-12 10h-3v2l-6 2v2l-7 4-6 2v2l-4 1v2h-3v2l-11 7-4 5-1 4v11l1 4 5 2 14 9 5 1-4 3-5-1-10-6-27-16-4-3 1-4 25-14 17-10 24-14z" fill="#D4D4D3"/>
<path transform="translate(1716,292)" d="m0 0 5 1 2 2 6 2v8l-3 11v15l1 5h2l1 6-7-1-10-9-3-8-1-12 4-17z" fill="#F9F9F9"/>
<path transform="translate(1619,346)" d="m0 0 2 4 2 2 5 2 1 1v8l-3 14v8l2 7 1 1v5l-4 1-8-6-4-5-3-10v-12l4-14 2-4z" fill="#FAFAFA"/>
<path transform="translate(1276,653)" d="m0 0 1 4h2l8 89 14 154 8 98 6 88 1 16v17h-1l-6-92-8-100-6-67-3-26-1-20-3-25-1-20-3-24-2-26-2-17-2-26-2-18z" fill="#A4C9A0"/>
<path transform="translate(1518,405)" d="m0 0h3v3h2l1 2 5 2-1 9-3 12v12l2 6v4h-5l-6-6v-2h-2l-3-8v-18l4-13z" fill="#F9F9F9"/>
<path transform="translate(1451,316)" d="m0 0 2 1-8 7-4 7-1 5-1 36h-1l1 72v62h-1v68l-1 33h-1v-254l1-16 3-9 6-8z" fill="#429AE0"/>
<path transform="translate(467,1631)" d="m0 0h19l3 3-1 8-7 8-4 2h-10l-6-4v-4l-3-1 1-4 3-5 5-1z" fill="#FEFEFE"/>
<path transform="translate(969,658)" d="m0 0 5 2 23 14 3 1v2l5 2 8 4 19 10 16 7 20 7 23 6 32 5h22l26-3 14-3-1 2-18 5-15 2h-29l-26-4-17-4-19-6-19-7-15-7-19-10-22-13-10-7-6-4z" fill="#EEC14D"/>
<path transform="translate(1116,1891)" d="m0 0 3 1-11 9-11 10-11 9-12 11-11 9-10 9-11 9-11 10-4 3-2-1 1-3 5-4h3l1-4 6-5h4v-3l9-7 10-10h2v-2l11-9 5-4h2l2-4 10-10 12-9h3v-2z" fill="#FFD458"/>
<path transform="translate(1482,992)" d="m0 0h1l1 8 6 2 11 8-1 4-8 5-6 3-1 2-1 58h-1z" fill="#D2D3D2"/>
<path transform="translate(1276,653)" d="m0 0 1 4h2l8 89 7 79v15h-1l-1-6-1-20-3-25-1-20-3-24-2-26-2-17-2-26-2-18z" fill="#98CF8C"/>
<path transform="translate(874,1835)" d="m0 0 6 5 3 3v2h5l9 6 3 4v2l4 2v2l5 2 4 5 3 1 5 5 10 11 8 8v2l-4-2-8-8-8-7-13-11-14-12-15-13-3-3z" fill="#EFC24E"/>
<path transform="translate(1650,312)" d="m0 0h16l4 2v2l4 1 1 2-12 2-10 5-4 1-3-3-6-2 2-4 3-4z" fill="#FBFBFB"/>
<path transform="translate(1752,254)" d="m0 0h11l8 4-1 4-9 2-9 5-6-1-6-4v-3l4-1v-3z" fill="#FAFAFA"/>
<path transform="translate(1552,369)" d="m0 0h13l8 4-1 3-6 1-10 4-4 2-4-1-9-1 1-4 7-6z" fill="#FBFBFB"/>
<path transform="translate(960,718)" d="m0 0h3l2 9 6 10 3 3v2l3 1 7 8 15 15 6 5 5 5 8 6v2h3l5 5 5 3v2l5 2 7 4v2l6 2 9 6 5 3-2 1-16-9-16-11-14-11-13-11-13-12-6-6v-2h-2l-7-8-12-15-2-3z" fill="#FFD458"/>
<path transform="translate(1437,461)" d="m0 0 2 1v44h-1v68l-1 33h-1v-144z" fill="#509FDB"/>
<path transform="translate(1811,1474)" d="m0 0h7v2l-38 15h-3v-12h2v-2l4 2 7 1 18-4z" fill="#EF6059"/>
<path transform="translate(667,1084)" d="m0 0h1v11l-6 56-2 27-3 24-1 5h-1l1-19 3-32v-8l1-3 5-51z" fill="#B3C0BB"/>
<path transform="translate(1316,1261)" d="m0 0 2 1 1 6v19l-2 50-5 61-2 10-1-4 3-29 2-29 2-38z" fill="#DFB24E"/>
<path transform="translate(1093,431)" d="m0 0 32 8 9 1h27l12-1-1 2-10 2-10 1h-10l-18-2-20-5-11-4z" fill="#DD9B4C"/>
<path transform="translate(1451,316)" d="m0 0 2 1-8 7-4 7-1 5-1 36h-1v20h-2v-39l1-16 3-9 6-8z" fill="#4F9FDB"/>
<path transform="translate(1483 1e3)" d="m0 0 2 2v3h2l-1 9-1 1-1 65h-1z" fill="#B3C0BB"/>
<path transform="translate(1529,416)" d="m0 0 1 3-3 13v11l4 10v4h-6l-1-2h3l-3-10v-12l4-15z" fill="#E9E9E9"/>
<path transform="translate(1240,195)" d="m0 0 7 6 17 17 11 14 9 14-1 2-12-17-7-9-9-10-15-15z" fill="#CF734B"/>
<path transform="translate(1712,948)" d="m0 0 2 1v9l-4 11v3h-2l-3 12-4 8-1-3 10-30 1-5v-5z" fill="#EAEAEA"/>
<path transform="translate(949,186)" d="m0 0 2 1-14 12-13 12-12 13-3 2 2-4 12-13 10-10 11-9z" fill="#D8844C"/>
<path transform="translate(1202,836)" d="m0 0 2 2v11l2 2-10-1-1-3 6-10z" fill="#FAFAFA"/>
<path transform="translate(1555,1096)" d="m0 0m-5 1 4 1v2l-15 9h-7l4-4z" fill="#D5D5D5"/>
<path transform="translate(1093,431)" d="m0 0 32 8 9 1v1h-14l-19-5-8-3z" fill="#D88B4B"/>
<path transform="translate(1771,258)" d="m0 0 12 7 4 4-1 4-5-5-5-3-12-1 1-2h5z" fill="#E1E3E2"/>
<path transform="translate(1316,1261)" d="m0 0 2 1 1 6v19l-1 21h-1z" fill="#E5B950"/>
<path transform="translate(1627,364)" d="m0 0 1 4-2 9v8l2 7 1 1v5l-4 1-3-3 4 1-2-8v-15z" fill="#EAEAEA"/>
<path transform="translate(1041,1954)" d="m0 0h3l-2 4-11 10-4 3-2-1 1-3 5-4h3l1-4z" fill="#FDD257"/>
<path transform="translate(1725,312)" d="m0 0 1 4v15l1 5h2l1 6-7-1-1-2 4 1-2-6v-19z" fill="#E7E7E7"/>
<path transform="translate(1271,388)" d="m0 0h13l15 2h4l-1 3-21-3h-7l-6 1z" fill="#D98F4B"/>
<path transform="translate(1451,316)" d="m0 0 2 1-8 7-4 7-2 11-2-3 2-9 6-9z" fill="#409AE1"/>
<path transform="translate(1268,224)" d="m0 0 5 5 11 17-1 2-12-17-3-4z" fill="#DA8D4C"/>
<path transform="translate(1712,948)" d="m0 0 2 1v9l-3 7h-2l1-6 1-5v-5z" fill="#EBEBEB"/>
<path transform="translate(1270,636)" d="m0 0h4v6l-3 3-3-1v-5z" fill="#FBFBFB"/>
<path transform="translate(949,186)" d="m0 0 2 1-14 12-5 4-2-1 10-9z" fill="#E19B4E"/>
<path transform="translate(1151,1807)" d="m0 0 2 1-13 12-5 4-2-1 11-10z" fill="#EEC14D"/>
<path transform="translate(922,563)" d="m0 0 1 3-12 14h-3v-2l4-1 2-4z" fill="#D9924E"/>
<path transform="translate(874,1785)" d="m0 0 5 5-4 1v15h-1z" fill="#EEC14D"/>
<path transform="translate(1666,319)" d="m0 0h6v1l-9 3-8 4-4 1 4-4 8-4z" fill="#EAEAEA"/>
<path transform="translate(1572,375)" d="m0 0m-4 0 4 2-12 4-3 2-3-1 4-3z" fill="#EAEAEA"/>
<path transform="translate(1637,320)" d="m0 0 2 1-13 13v-3l7-8z" fill="#D1D5D3"/>
<path transform="translate(1625,390)" d="m0 0h2l2 3v5l-4 1-3-3 4 1z" fill="#E5E6E6"/>
<path transform="translate(1297,1424)" d="m0 0h2l1 7 4 1 3-1-1 3-3 1-4-3z" fill="#CDB86D"/>
</svg>
