<?xml version="1.0" encoding="UTF-8"?>
<svg version="1.1" viewBox="0 0 2048 2048" width="1280" height="1280" xmlns="http://www.w3.org/2000/svg">
<path transform="translate(589,340)" d="m0 0h38l22 3 21 5 21 7 40 17 25 11 16 10 13 10 13 13 11 15 8 14 7 16 5 17 2 12 1 13v40l-2 21-5 21-8 20-10 18-10 14-12 13-10 9-15 10-16 8-7 3-1 2-2 14-6 21-10 21-10 14-9 10-8 8-17 12-1 1-1 81h32l24 6 55 16 133 38h6l19-10 19-8 17-5 21-4 11-1h30l23 3 23 6 20 8 21 11 11 7 9-2 147-42 74-21 8-3v-80l-16-12-10-9-7-7-11-15-9-17-7-21-3-20-1-138-10-16-18-27-9-17-5-16-2-14v-11l2-15 5-16 8-16 10-13 9-9 13-9 14-7 13-4 15-2h126l21 2 23 5 22 8 20 10 18 12 11 9 10 9 7 8 11 15 12 23 7 21 3 16 1 9v25l-2 17-5 20-6 15-8 16-12 18-10 13-24 32-11 15-1 2-3 24-6 21-6 14-10 16-9 11-12 12-14 10-4 3-1 81 10 1 143 26 34 7 27 9 17 8 16 10 11 8 13 11 18 18 14 19 9 15 10 21 8 24 5 26 1 12v23l-2 29-11 120-3 27-5 14-60 135-13 29-12 27-10 20-14 21-13 16-1 411-10 1h-1333l-1-1v-38l2-42 3-37 5-44 8-52 10-51 10-42 12-43 5-17-1-4-10-5-15-10-10-8-10-9-8-7-9-10-10-13-13-21-12-25-15-34-64-144-19-44-9-25-5-21-3-18-1-14v-18l2-20 5-25 6-20 9-21 7-13 10-16 11-14 11-12 14-14 14-11 15-10 20-11h2v-57l2-34 4-31 7-34 8-28 9-26 11-30 8-27 7-30 4-24 3-30 1-23 1-45 2-19 4-20 6-20 8-20 12-23 11-16 11-14 12-13 14-13 16-12 21-13 19-9 25-9 22-5z" fill="#E1AE8B"/>
<path transform="translate(589,340)" d="m0 0h38l22 3 21 5 21 7 40 17 25 11 16 10 13 10 13 13 11 15 8 14 7 16 5 17 2 12 1 13v40l-2 21-5 21-8 20-10 18-10 14-12 13-10 9-15 10-16 8-7 3-1 2-2 14-6 21-10 21-10 14-9 10-8 8-17 12-1 1-1 81h32l24 6 55 16 133 38h6l19-10 19-8 17-5 21-4 11-1h30l23 3 23 6 20 8 21 11 11 7 5 5 14 12 9 9 7 8 11 14 10 16 8 16 6 14 5 16 4 18 6 31 5 23 5 25 1 8v10l-3 16-7 14-9 11-10 8-12 6-15 4-41 1-7 9-11 14-8 9-15 11-15 9-20 8-17 4-10 1h-21l-23-5-18-7-15-8-20-15-6 1-31 14-29 12-15 7-9 3-12 8-13 10-6 5-2 3h-2l-2 4-8 9-10 15-11 21-6 18-4 16-1 8-1 111-2 11-1 2h-2l-1 3-4 1-12-1-43-15-30-11-24-9-38-14-15-6-17-6-32-12-19-7-11-6-5-5-6-9-11-25-7-17-8-19-6-13-6-15-6-13-6-15-7-15-5-13-7-15-5-13-7-15-6-13-2-5-2-1h-7l-41 14-60 20-34 11-33 11-12 5h-4l-13-30-9-25-5-21-3-18-1-14v-18l2-20 5-25 6-20 9-21 7-13 10-16 11-14 11-12 14-14 14-11 15-10 20-11h2v-57l2-34 4-31 7-34 8-28 9-26 11-30 8-27 7-30 4-24 3-30 1-23 1-45 2-19 4-20 6-20 8-20 12-23 11-16 11-14 12-13 14-13 16-12 21-13 19-9 25-9 22-5z" fill="#FC8C9C"/>
<path transform="translate(1356,352)" d="m0 0h126l21 2 23 5 22 8 20 10 18 12 11 9 10 9 7 8 11 15 12 23 7 21 3 16 1 9v25l-2 17-5 20-6 15-8 16-12 18-10 13-24 32-11 15-1 2-3 24-6 21-6 14-10 16-9 11-12 12-14 10-4 3-1 81 10 1 143 26 34 7 27 9 17 8 16 10 11 8 13 11 18 18 14 19 9 15 10 21 8 24 5 26 1 12v23l-2 29-11 120-3 27-1 2-5-1-102-34-35-12-40-13-2-1h-6l-8 15-13 31-24 56-10 24-5 11-12 28-14 33-9 20-5 4-11 5-71 27-28 11-29 10-29 11-40 15-21 8-20 7-5-1v-86l-2-47-2-15-5-18-9-21-8-14-12-16-7-7v-2h-2v-2l-4-2-7-7-18-12-23-12-30-13-11-5-18-8-7-1v-3l11-14 9-12 2-2 41-1 15-4 12-6 10-8 8-10 7-14 3-16v-10l-3-17-7-36-6-28-3-15-4-15-6-18-9-19-10-16-10-13-9-10-7-8-11-10-10-8 3-2 51-15 102-29 74-21 8-3v-80l-16-12-10-9-7-7-11-15-9-17-7-21-3-20-1-138-10-16-18-27-9-17-5-16-2-14v-11l2-15 5-16 8-16 10-13 9-9 13-9 14-7 13-4z" fill="#288FFE"/>
<path transform="translate(1633,1218)" d="m0 0h6l38 13 72 24 35 12 25 8 14 5-3 9-13 30-13 29-18 41-18 40-18 41-14 29-9 15-10 14-10 12-1 124-1 1h-313l-55 17-46 14-1 69-1 13-4 13-5 9-9 10-10 7-12 5-14 2h-32l-2-5-8-36-17-84-9-41-5-26h-251l-2-2v-7l3-11 3-3 2 1 1-5 1-29v-66l-1-38-2-15-6-12-2-5h-123l-6-2v-31l3-22 5-17 7-16 5-10 7-11 10-13 11-12 10-9 14-10 16-9 22-10 29-12 24-11 6 1 12 10 13 8 15 7 14 5 20 4h21l16-2 16-5 17-7 16-10 14-11 9 1 18 8 13 6 34 15 19 10 17 12 8 8 2 1v2h2l7 8 8 10 9 14 8 16 6 15 5 20 2 27 1 30v86l7-1 17-6 80-30 18-7 15-5 32-12 41-16 18-7 17-6 11-6 8-16 11-26 9-21 6-15 5-11 13-30 24-56 12-29 8-15z" fill="#E1AE8B"/>
<path transform="translate(408,1583)" d="m0 0 10 3 13 5 9 3 14 5 17 5 19 6 11 3 20 6 7 2 13 3 8 3 14 4 68 21 27 8 13 4 14 4 15 5 19 5 42 12 5 7 1 8v14l2 46 1 14 3 12 10 14 2 1v2l5 2 1 3 5 2 12 4 28 3 16 1 40 1 20 1h132l109-1-1 127-1 1h-798l-1-1v-38l2-42 3-37 5-44 8-52 10-51 10-42 12-43z" fill="#FC8C9C"/>
<path transform="translate(1374,864)" d="m0 0 6 1 8 3 15 5 22 3 10 1h15l15-1 5 1 1 2v389l1 145v44l3 1v2l3 1-3 3-34 13-18 7-29 10-29 11-40 15-21 8-20 7-5-1v-86l-2-47-2-15-5-18-9-21-8-14-12-16-7-7v-2h-2v-2l-4-2-7-7-18-12-23-12-30-13-11-5-18-8-7-1v-3l11-14 9-12 2-2 41-1 15-4 12-6 10-8 8-10 7-14 3-16v-10l-3-17-7-36-6-28-3-15-4-15-6-18-9-19-10-16-10-13-9-10-7-8-11-10-10-8 3-2 51-15 102-29 74-21z" fill="#288FFE"/>
<path transform="translate(589,340)" d="m0 0h38l22 3 21 5 21 7 40 17 25 11 16 10 13 10 13 13 11 15 8 14 7 16 5 17 2 12 1 13v40l-2 21-5 21-8 20-10 18-10 14-12 13-10 9-15 10-16 8-5 2h-3l-1-9v-124l-6 1-11 5-19 8-17 6-17 7-19 8-25 10-12 5-27 10-6 2-96 1 1 18 1 55 3 21 5 17 10 19 7 10 9 10v2l3 1v2l4 2 10 9 10 7 1 2v80l-5 2v2l-18 8-19 9-13 6-9 4-16 7-14 7-14 6-15 7-23 11-14 6-12 6-7 3-13 6-12 5-11 5-9 2-1-1v-54l2-34 4-31 7-34 8-28 9-26 11-30 8-27 7-30 4-24 3-30 1-23 1-45 2-19 4-20 6-20 8-20 12-23 11-16 11-14 12-13 14-13 16-12 21-13 19-9 25-9 22-5z" fill="#D49016"/>
<path transform="translate(1356,352)" d="m0 0h126l21 2 23 5 22 8 20 10 18 12 11 9 10 9 7 8 11 15 12 23 7 21 3 16 1 9v25l-2 17-5 20-6 15-8 16-12 18-10 13-24 32-11 15-1 2-3 24-6 21-6 14-10 16-9 11-12 12-14 10-4 3-1 81-2 2-28 8-14 3-10 1h-15l-27-3-12-3-15-5-6-3v-81l-16-12-10-9-7-7-11-15-9-17-7-21-3-20-1-138-10-16-18-27-9-17-5-16-2-14v-11l2-15 5-16 8-16 10-13 9-9 13-9 14-7 13-4z" fill="#794B23"/>
<path transform="translate(1382,1664)" d="m0 0h314v287l-10 1h-535l1-127 1-1 72-1 14-2 12-5 11-8 8-9 6-13 2-8 1-13 1-69 8-3 58-18z" fill="#784A23"/>
<path transform="translate(932,1245)" d="m0 0 6 1 12 10 13 8 15 7 14 5 20 4h21l16-2 16-5 17-7 16-10 14-11 9 1 18 8 13 6 34 15 19 10 17 12 8 8 2 1v2h2l7 8 8 10 9 14 8 16 6 15 5 20 2 27v22l-9-1-92 1-18 3-8 4-2 8-1 14v67l1 52 2 35v7l-2 1-249 1-2-2v-7l3-11 3-3 2 1 1-5 1-29v-66l-1-38-2-15-6-12-2-5h-123l-6-2v-31l3-22 5-17 7-16 5-10 7-11 10-13 11-12 10-9 14-10 16-9 22-10 29-12z" fill="#B7CF81"/>
<path transform="translate(924,100)" d="m0 0h26l17 3 16 6 14 8 11 8v2l4 2 24 24 4-2 23-23 17-13 16-8 16-5 12-2h26l17 3 16 6 14 8 13 10 9 9 10 14 8 17 4 15 2 16-1 16-5 21-8 16-7 11-12 13-14 12-14 11-17 14-13 11-9 7-17 14-11 9-16 13-17 14-11 9-32 26-5-1v-2l-4-2-10-8-33-27-17-14-14-11-14-12-14-11-13-11-14-11-9-8-10-8-16-13-12-12-7-10-8-15-5-16-2-11v-22l4-19 5-12 7-13 8-10 7-8 16-12 10-6 15-6z" fill="#E02F3E"/>
<path transform="translate(1009,896)" d="m0 0h30l23 3 23 6 20 8 21 11 11 7 5 5 14 12 9 9 7 8 11 14 10 16 8 16 6 14 5 16 4 18 6 31 5 23 5 25 1 8v10l-3 16-7 14-9 11-10 8-12 6-15 4h-41l1-4 5-11 1-5h2l2-12 1-1 2-15h2v-48l-4-2-48-36-13-10-16-12-2-2-5-2-5-5-8-6-3-1v-2l-4-1-10-7v-2h-2l-5-5-5-1-10 8-15 11-9 7-11 8-12 9-10 8-11 8-5 5-9 5-8 7-11 8-13 10-1 1v46l1 1 1 11 3 9 5 16 5 11v2h-39l-16-4-12-6-9-7-5-5-8-10-5-11-3-9v-24l3-13 4-23 4-20 3-12 3-14 4-18 3-12 5-12 7-17h2l3-9h2l2-6 4-4 3-6h2l1-4 3-1 2-4 11-12 10-10 11-9 7-6 8-4 19-10 19-8 17-5 21-4z" fill="#A46733"/>
<path transform="translate(1503,543)" d="m0 0 4 2 16 16 1 3 3 1 1 3 3 1 1 3 3 1 2 4 15 15 3 1 2 4 7 7h3l1 2 1 66-3 24-6 21-6 14-10 16-9 11-12 12-14 10-4 3-1 81-2 2-28 8-14 3-10 1h-15l-27-3-12-3-15-5-6-3v-81l-16-12-10-9-7-7-11-15-9-17-7-21-3-20v-136l1-2z" fill="#E0AD8A"/>
<path transform="translate(929,1631)" d="m0 0h223l2 7 12 57 13 63 9 43 5 23-42 1-123 1h-116l-50-2-6-2 2-12 10-52 7-31 12-56 6-33 2-5 11-1z" fill="#EFAB30"/>
<path transform="translate(732,545)" d="m0 0 4 1v130l1 4-1 2-2 14-6 21-10 21-10 14-9 10-8 8-17 12-1 1-1 74-1 9-26 7-17 3-20 1h-17l-16-3-26-6-5-2-5 1 4-3v-82l-4-2-12-9-8-7-7-8-10-12-9-16-5-11-4-14-3-21-1-57v-16l2-1 94-1 25-9 15-6 13-5 24-10 50-20 17-7z" fill="#E0AD8A"/>
<path transform="translate(850,1280)" d="m0 0 3 1-15 9-13 10-10 9-10 11-10 14-7 11-8 18-4 11-3 11-3 22v31l5 1h120l5 2 4 11 3 5 2 15 1 38v66l-1 29-1 6h-4l-3 9-1 9 1 2 5 1v1l-11 1-4 20-5 26-12 55-9 44-7 36-1 7 5 1v1l-26-1-28-3-12-4-5-3-4-4-2-1v-2l-4-2-9-13-3-12-2-38-1-31-1-22-2-5v-5h-4-4v-2l-2-1v-3l-5-2 2-1 6 1 1-1-3-2 1-2 4-1 1-7v-8l-2-1-2-4-2-13v-4h-2v-21l-2-7v-5l-4-2-2-4-2 1-2-6 1-4-1-4-3 1-2-7-2-3 3-4h3l-1-10-3-1 1-2-4-1-1-5 1-5h2l-5-7h2l1-5-4-2 2-1 6 2 9 2h15l3-3h2l2-16 1-108 3-17 5-17 7-16 7-13 11-16 9-10 5-6 11-9 11-8z" fill="#F3B992"/>
<path transform="translate(1022,1024)" d="m0 0 5 1 5 4v2h2v2l4 2 7 5 3 1v2l5 1 11 9 1 2 5 2 11 9 14 10 5 4 13 10 19 14 13 10 7 5v48h-2l-1 15-2 4-2 9h-2l-1 7-5 10-2 5-9 12-9 11-7 8-15 11-15 9-20 8-17 4-10 1h-21l-23-5-18-7-15-8-20-15-6 1-5 1 5-4 1-2-10-13-6-9-6-10-4-9-6-22-1-1-1-11-1-1v-46l8-7 32-24h3l1-3 13-10 32-24 13-10 11-8 12-9z" fill="#F3B992"/>
<path transform="translate(1270,1438)" d="m0 0 8 1 1 1 1 8v246l14-5 12-5 18-6 9-2 9-3 10-3 11-3 9-1v2l-45 14-46 14-1 69-1 13-4 13-5 9-9 10-10 7-12 5-14 2h-32l-2-5-8-36-17-84-9-41-5-26-2-2h2l-2-22-1-20-1-55v-64l1-14 3-9 8-4 18-3z" fill="#F3B992"/>
<path transform="translate(1409,877)" d="m0 0 21 1h26l14-1 1 2v389l1 145v44l3 1v2l3 1-3 3-34 13-18 7-9 3h-6v-607z" fill="#0579FB"/>
<path transform="translate(862,1824)" d="m0 0h30l20 1h132l109-1-1 127-1 1h-285v-1l30-1-1-5v-42l-1-58v-11l1-7-6-1-27-1z" fill="#F1B993"/>
<path transform="translate(1694,1542)" d="m0 0 2 1v121l-1 1-309-1 4-2 18-7 15-5 76-22 70-22 42-13 20-8 16-8 17-10 14-11 14-12z" fill="#288FFE"/>
<path transform="translate(1402,1793)" d="m0 0h14l14 7 7 8 1 5 1 47v89l249 1 2 2h-522l4-2 204-1v-59l1-73 1-9 5-5 9-6z" fill="#643E21"/>
<path transform="translate(546,809)" d="m0 0 14 8 7 2 22 5 8 1 27-1 22-4 13-4 9-5 2-2 1 1v56l-26 7-17 3-20 1h-17l-16-3-26-6-5-2-5 1 5-4 1-52z" fill="#E0AD8A"/>
<path transform="translate(1035,1836)" d="m0 0 3 2 1 3 5 3 5-1v4l3 8v5l2 1-1 18-1 10 1 8-1 4v5l-4 1 1 5 3 1v5l-1 5-1 4-1 3-7 1h-2v3h-2l-1 3h-23l-3-3 1-7-5 1-1 2-2-6-2-1 1-11-2-2 1-7 1-5-3-4-2-5v-14l4-4 1-8h2l1-3 2-2 1-6h5v-7l4-4 7-3z" fill="#E1AE8B"/>
<path transform="translate(543,782)" d="m0 0 2 1v3l5 2 7 3 8 3 13 4 8 2 22 1 16-2 14-3 18-5 8-3 7-1 1 3v67h-1l-1-47-5 4-11 5-12 3-20 3-25 1-14-2-16-4-9-3-10-6h-2l-1 52h-1z" fill="#D39F6D"/>
<path transform="translate(1376,785)" d="m0 0 2 1-1 2 12 2 8 4 20 5 13 2h12l13-1 28-7 8-3 12-3 1 4v59h-1l-1-40-6 1-7 3-35 7h-24l-11-1-8-3-21-4-12-5v43l-1 5h-1z" fill="#D19D6B"/>
<path transform="translate(228,1280)" d="m0 0h3l3 3v3h2l7 15 6 17 5 11 6 12 1 6 5 12 6 10 3 7 4 14 10 18 4 12 5 12 2 7 3 1 7 18 3 9 4 8 3 8v3h2l4 11 7 11v2h3l3 6v2l4 2 6 7v2l4 2 6 9 5 2v2l5 2 6 8 3 9-6-4-11-10-8-7-9-10-10-13-13-21-12-25-15-34-64-144-5-11v-2z" fill="#F3B992"/>
<path transform="translate(1468,1637)" d="m0 0h6l1 5 4 3 1 5 2 2 6 2 1 3-1 2-7 1v2l206 1 8 1v1l-309-1 4-2 18-7 15-5z" fill="#0679FB"/>
<path transform="translate(1382,1664)" d="m0 0h296v1l-267 1-22 1-14 4-2 1h-6l-1 2-10 3-6 2-4 1-9 3-12 3-15 4-6 3-10 3-7 5h-3l-1 9v41l1 4-3 15h-1v-74l8-3 58-18z" fill="#694021"/>
<path transform="translate(904,1561)" d="m0 0h4l1 23v21l-1 6h-4l-3 9-1 9 1 2 5 1v1h-11l2-46 1-13 2-2z" fill="#E0AD8A"/>
<path transform="translate(1315,697)" d="m0 0 5 1 1 8 5 7 2 10h2l3 10h2v4l3 1v2l3 1 2 5h2v2h2l1 5 2 1v2h3v3l4 2v3l4 2 9 6 5 5v5l-10-6-13-11-10-10-11-15-9-17-7-21z" fill="#F4BA93"/>
<path transform="translate(1153,1825)" d="m0 0h36l-2 2-7 1-7-1-10 3-5 4-2 6v58l1 17 2 7 1 13-2 5-3 5h-2z" fill="#653E20"/>
<path transform="translate(1503,543)" d="m0 0 2 1-1 2-3 1-48 1-65-1-21-1h-46l-8-1v-1z" fill="#D39F6D"/>
<path transform="translate(1480,1632)" d="m0 0h3v2l-25 7-29 8-18 6h-5l-1-2 5-1v-2l5-1 1-1h5l1-3 7 1v-2h5v-2l13-5 2-2 11-1 3-1 2 2h5l4-2z" fill="#F0B991"/>
<path transform="translate(850,1280)" d="m0 0 3 1-15 9-13 10-10 9-10 11-10 14-7 11-8 18-4 11-3 11-3 22-1 31h-1v-38l3-17 5-17 7-16 7-13 11-16 9-10 5-6 11-9 11-8z" fill="#E1AE8B"/>
<path transform="translate(1372,1665)" d="m0 0m-2 1h2v2l-45 14-43 13-1-2 13-5 16-6 12-4 9-2 9-3 10-3 11-3z" fill="#EFB68E"/>
<path transform="translate(613,593)" d="m0 0h3v2l-15 6-16 6-5 2-17 2-65-1-16-1v-1l94-1 25-9z" fill="#D39F6D"/>
<path transform="translate(1314,557)" d="m0 0 3 1 3 8v31l-3 5h-2l-1-22z" fill="#F4BA93"/>
<path transform="translate(652,576)" d="m0 0 3 1-19 8-15 6-12 5-27 10-6 2h-57v-1l55-1 21-7 24-10 20-8z" fill="#EFAB30"/>
<path transform="translate(1333,1516)" d="m0 0 6 1-4 2-3 1h-3v2l-9 4-7 4h-3l-1 2-6 3h-5l-2-2v-3z" fill="#F1B891"/>
<path transform="translate(1729,1487)" d="m0 0h2l-2 6-8 15-11 16-13 16-2 3-3 1v-3h2l-1-3 3-1 3-6 4-4 9-12 7-10 5-9 3-5z" fill="#F4BA94"/>
<path transform="translate(485,708)" d="m0 0 2 3 5 13 8 15 7 10 9 10v2l3 1v2l4 2 10 9 8 6-2 1-8-6-9-7v-2l-4-2-8-8v-2h-2l-2-5h-2l-6-9v-3h-2l-9-19-2-7z" fill="#EFAB30"/>
<path transform="translate(1028,1825)" d="m0 0 16 1-3 1-1 3-8-1v2l-9-1-1-2-6 1h-8l-5-1-15-1v-1z" fill="#E1AE8B"/>
<path transform="translate(1281,1710)" d="m0 0h1l1 41 1 4-3 15h-1v-26z" fill="#653E20"/>
<path transform="translate(1449,1473)" d="m0 0h5l-1 5-4 2-8 1-3 1-1 2-4-2 3-4z" fill="#EFB791"/>
<path transform="translate(707,749)" d="m0 0h2l-2 4-7 8-9 9-11 8h-2l1-3 5-3h2l1-3h2v-2l8-6 1-2h2l2-5z" fill="#F4BA93"/>
<path transform="translate(655,576)" d="m0 0 4 1-8 4-14 5-5 3-9 3-7 1 4-2 9-4 24-10z" fill="#D39F6D"/>
<path transform="translate(1333,1516)" d="m0 0 6 1-4 2-3 1h-3v2l-9 4-8-1 3-2z" fill="#EBB48F"/>
<path transform="translate(897,1440)" d="m0 0 3 1 4 11 3 5-1 3v-2h-2v-2h-2l-2-3-2 1-1-3z" fill="#E1AE8B"/>
<path transform="translate(1742,1459)" d="m0 0h2l-3 9-5 11-1-3 1-7 3-5 1-4z" fill="#F4BA93"/>
<path transform="translate(1508,548)" d="m0 0 4 2 9 9-2 2-11-11z" fill="#E9B186"/>
<path transform="translate(1820,1281)" d="m0 0 3 1-5 12h-1v-10z" fill="#F4BA93"/>
<path transform="translate(1397,1659)" d="m0 0 3 1-1 3-3 1h-10l4-2z" fill="#268EFE"/>
<path transform="translate(390,1571)" d="m0 0 4 1 6 2 3 3v2l-5-2-8-5z" fill="#F4BA93"/>
<path transform="translate(1022,1024)" d="m0 0 5 1-4 2-9 6-2-1z" fill="#D8A26C"/>
<path transform="translate(1267,1803)" d="m0 0 2 1-10 10-3 1 2-4 8-7z" fill="#704522"/>
</svg>
