<?xml version="1.0" encoding="UTF-8"?>
<svg version="1.1" viewBox="0 0 2048 2048" width="1280" height="1280" xmlns="http://www.w3.org/2000/svg">
<path transform="translate(1027,75)" d="m0 0h32l18 4 13 5 17 9 13 10 13 11 10 8 13 11 10 8 13 11 14 11 15 13 10 8 17 14 13 11 10 8 13 11 14 11 15 13 10 8 17 14 13 11 10 8 13 11 14 11 15 13 22 18 17 14 13 11 14 11 14 12 11 9 13 11 10 8 17 14 13 11 14 11 15 13 10 8 13 11 10 8 17 14 13 11 14 11 15 13 14 11 14 12 11 9 13 11 10 8 13 11 10 8 13 11 10 8 17 14 13 11 14 11 15 13 10 8 13 11 14 11 15 13 10 8 17 14 13 11 10 8 13 11 14 11 10 9 8 7 11 12 9 14 8 17 4 14 2 13v24l-3 18-6 18-9 17-8 11-9 10-7 7-15 10-14 7-15 5-15 3-17 1h-46l9 19 4 16 1 8v864l-4 20-7 16-7 12-9 11-7 7-14 10-17 8-14 4-15 2h-1422l-18-3-16-6-14-8-14-12-9-10-10-16-5-12-4-15-1-7-1-40v-75l1-752 3-16 6-16 5-9h-66l-23-2-18-5-17-8-14-10-13-12-9-11-8-13-7-15-5-17-2-11-1-16 2-20 6-21 8-16 8-12 14-15 10-9 10-8 11-9 17-14 13-11 14-11 13-11 7-6 1-412 3-11 7-9 7-5 5-2 7-1h277l10 2 8 5 7 8 4 9v138l6-4 15-13 16-13 13-11 11-9 17-14 13-11 10-8 13-11 10-8 17-14 13-11 10-8 13-11 14-11 15-13 10-8 17-14 13-11 10-8 13-11 14-11 15-13 10-8 17-14 13-11 22-18 17-14 13-11 14-11 14-12 14-10 12-7 19-7z" fill="#78CCFE"/>
<path transform="translate(1027,75)" d="m0 0h32l18 4 13 5 17 9 13 10 13 11 10 8 13 11 10 8 13 11 14 11 15 13 10 8 17 14 13 11 10 8 13 11 14 11 15 13 10 8 17 14 13 11 10 8 13 11 14 11 15 13 22 18 17 14 13 11 14 11 14 12 11 9 13 11 10 8 17 14 13 11 14 11 15 13 10 8 13 11 10 8 17 14 13 11 14 11 15 13 14 11 14 12 11 9 13 11 10 8 13 11 10 8 13 11 10 8 17 14 13 11 14 11 15 13 10 8 13 11 14 11 15 13 10 8 17 14 13 11 10 8 13 11 14 11 10 9 8 7 11 12 9 14 8 17 4 14 2 13v24l-3 18-6 18-9 17-8 11-9 10-7 7-15 10-14 7-15 5-15 3-17 1-47 1-98 1-1480-1-66-1-23-2-18-5-17-8-14-10-13-12-9-11-8-13-7-15-5-17-2-11-1-16 2-20 6-21 8-16 8-12 14-15 10-9 10-8 11-9 17-14 13-11 14-11 13-11 7-6 1-412 3-11 7-9 7-5 5-2 7-1h277l10 2 8 5 7 8 4 9v138l6-4 15-13 16-13 13-11 11-9 17-14 13-11 10-8 13-11 10-8 17-14 13-11 10-8 13-11 14-11 15-13 10-8 17-14 13-11 10-8 13-11 14-11 15-13 10-8 17-14 13-11 22-18 17-14 13-11 14-11 14-12 14-10 12-7 19-7z" fill="#FD4D38"/>
<path transform="translate(840,1571)" d="m0 0h110l14 1 7 3 8 7 4 7 1 6v116l-2 11-4 6-7 6-10 3-14 1h-103l-11-2-8-5-6-7-2-5-1-14v-112l3-8 8-9 8-4z" fill="#FEFEFE"/>
<path transform="translate(856,1303)" d="m0 0h64l38 1 10 2 8 6 6 7 2 7v121l-3 10-7 8-5 3-8 2-41 1h-26l-57-1-10-4-7-7-3-8-1-15v-111l3-7 6-7 10-6 4-1z" fill="#FEFEFE"/>
<path transform="translate(1157,1303)" d="m0 0h67l36 1 9 2 10 7 5 9 1 4v122l-3 10-8 8-8 3-4 1-38 1h-26l-60-1-9-4-7-6-3-7-1-9-1-59v-47l1-15 6-9 8-7 8-3z" fill="#FEFEFE"/>
<path transform="translate(1141,1571)" d="m0 0h113l15 2 6 4 7 8 3 9v121l-3 10-8 8-6 3-15 2h-107l-12-2-9-6-4-5-2-5-1-12v-118l6-9 8-7z" fill="#FEFEFE"/>
</svg>
