<?xml version="1.0" encoding="UTF-8"?>
<svg version="1.1" viewBox="0 0 2048 2048" width="1280" height="1280" xmlns="http://www.w3.org/2000/svg">
<path transform="translate(815,24)" d="m0 0h19l53 1 32 3 30 5 36 9 32 11 23 10 21 10 21 12 17 11 17 12 14 11 13 11 10 9 13 12 15 16 9 11 8 9 14 19 10 15 12 20 9 16 13 28 9 23 7 21 8 30 5 27 3 24 2 29 1 145 5 5 9 8v2h2l7 8 10 13 9 16 8 18 5 18 2 12 1 11v56l-3 22-6 20-8 18-10 16-13 16-10 10-17 13-18 10-21 8-17 4-13 2-23 1h-2l-1 8-6 22-7 21-9 20-8 16-13 21-10 14-11 13-4 5 863 1 13 2 13 5 10 6 10 9 7 8 9 17 4 12v854l-7 21-7 14-9 12-11 11-16 10-15 6-12 3-9 1h-1843l-17-3-13-5-11-6-9-7-10-9-9-12-8-15-4-13-2-10-1-20v-178l-10-14-11-18-6-14-7-24-1-5v-317l6-23 8-19 9-16 11-14 6-7 1-2 1-202 4-17 8-16 9-11 7-7 10-7 15-7 13-3h27l18 3 18 6 16 8 14 9 14 12 11 12 9 13 10 19 7 21 3 18v110l16 1 16 4 12 5 11 6 11 9 11 11 5 7 6-1 110-36 50-16 15-5 1-1 1-39 2-14 5-16 8-15 7-9 9-10 16-13 17-12 2-2-15-10-17-13-10-9-8-7-16-16-18-22-14-21-12-21-10-22-7-19-8-30-2-6h-14l-19-2-18-4-17-6-16-8-11-7-9-7-10-9-10-10-10-13-11-19-8-20-5-21-2-19v-48l2-19 5-21 6-15 10-19 8-11 9-11 11-11 7-6 1-134 1-28 4-36 6-31 7-27 10-29 11-26 8-16 10-19 13-21 13-18 8-7 10-4h10l11 4 4 1 11-13 22-22 8-7 14-12-1-4-3-8v-12l4-10 6-7 18-12 16-9 23-12 22-10 25-9 22-7 24-6 27-5 26-3 15-1z" fill="#010101"/>
<path transform="translate(838,1092)" d="m0 0h1113l31 1 5 6v838l-4 10-9 10-10 5-7 1h-1128l-1-260-5-12-4-5-8-5-7-2h-11l-8 3-6 4-6 7-2 5-1 6-1 115-306 1-17 1-17 4-12 5-11 7-13 11-8 9-8 13-6 16-3 16-1 61h-247l-10-5-6-5-6-9-2-6v-154l12 2 24 3h129l16-2 15-4 14-7h2v-2l7-4 12-11 4-4 1-3h2l2-5 4-6 6-14 4-16 1-6v-18l-4-19-5-12-5-9v-3h-2l-5-8v-4h2l2-4 9-15 5-15 3-16v-18l-4-19-5-13-5-9v-2h-2l-1-4h-2l-2-4 1-5 4-4 6-11 4-9 3-10 3-14v-19l-5-23-4-9-9-15-3-3 1-5 8-12 4-7 6-19 2-11 5-3 10-3 26-9 14-4 41-14 16-5 52-17 5-1 1 204 4 10 3 6 6 8 6 5 8 5 9 3 4 1h17l9-2 11-6 13-11 12-11 8-7 10-9 11-9 16-15 8-7 14-12 4-2v-2l8-7 14-12 12-11 8-7 10-9 11-9 8-8 4-1 1 205 2 10 5 7 10 7 14 2 9-2 9-6 6-8 2-4 1-6 1-470 3-5 3-3z" fill="#5A6D75"/>
<path transform="translate(1682,169)" d="m0 0h49l33 4 28 6 23 7 22 8 24 11 20 11 24 16 14 11 11 9 15 14 15 15 9 11 10 12 14 20 12 20 11 21 10 24 9 27 6 25 5 28 2 14v55l-6 37-8 34-9 26-10 23-10 20-16 26-12 16-9 11-11 13-22 22-11 9-15 12-21 14-19 11-15 8-26 11-38 13-4 4-16 36-17 39-9 20-6 9-7 7-12 6-8 2h-11l-9-2-11-6-9-9-8-15-17-39-13-30-8-18-4-4-41-14-25-11-19-10-24-15-21-16-15-13-10-9-11-11-7-8-11-13-12-16-13-20-10-18-8-16-10-24-8-24-6-24-1-5v-11l4-10 6-7 8-5 7-1-1-15v-35l3-31-11-6-8-9-4-11v-8l6-21 9-25 11-24 9-17 12-19 13-18 11-14 14-15 20-20 11-9 14-11 17-12 24-14 24-12 23-9 25-8 32-7 22-3z" fill="#FDDC7A"/>
<path transform="translate(577,481)" d="m0 0h482l14 2 12 4 16 9 12 11 9 12 6 11 5 16 1 8v295l-1 11-1 2-3 20-6 23-8 22-9 19-12 20-12 16-12 14-13 13-11 9-12 9-7 5h-163l-33 1-16 4-14 7-11 9-8 9-5 8h-53l-30-4-23-6-12-4-10-4-21-10-14-8-12-8v-2l-4-1v-2l-5-2-12-11-18-18-9-11-10-14-12-20-11-24-5-14-2-4-3-15-1-1-4-20-2-21v-293l2-7 4-16 5-9 8-11 9-10 12-9 8-4 13-4z" fill="#FCDCCB"/>
<path transform="translate(766,85)" d="m0 0h106l31 2 27 4 27 6 29 9 24 10 25 12 22 13 18 12 17 13 13 11 16 15 12 12 7 8 11 13 12 16 10 15 14 24 14 29 11 30 7 25 5 22 4 29 1 12 1 27v102l-15-1-21-2-4-21-6-21-11-23-10-14-11-12-8-8-15-11-21-11-18-6-13-3-21-2h-469l-26 2-17 4-19 7-14 8-12 9-10 9-12 12-10 14-9 16-6 16-4 16-3 19-3 1-27 2h-6l-1-1 1-122 3-32 6-32 8-29 8-23 12-27 9-17 11-18 13-20 4-9v-14l-6-12-5-5 5-5 12-13 18-18 8-7 14-12 6 4 8 5 6 2h10l11-4 22-13 22-12 20-9 24-9 22-7 32-7 22-3z" fill="#B95F4D"/>
<path transform="translate(517,1281)" d="m0 0h3l1 204 4 10 3 6 6 8 6 5 8 5 9 3 4 1h17l9-2 11-6 13-11 12-11 8-7 10-9 11-9 16-15 8-7 14-12 4-2v-2l8-7 14-12 12-11 8-7 10-9 11-9 8-8 4-1 1 205 2 10 5 7 10 7 10 3 1 1 1 12v66l-13 4-8 6-5 6-2 5-1 6-1 115-306 1-17 1-17 4-12 5-11 7-13 11-8 9-8 13-6 16-3 16-1 61h-247l-10-5-6-5-6-9-2-6v-154l12 2 24 3h129l16-2 15-4 14-7h2v-2l7-4 12-11 4-4 1-3h2l2-5 4-6 6-14 4-16 1-6v-18l-4-19-5-12-5-9v-3h-2l-5-8v-4h2l2-4 9-15 5-15 3-16v-18l-4-19-5-13-5-9v-2h-2l-1-4h-2l-2-4 1-5 4-4 6-11 4-9 3-10 3-14v-19l-5-23-4-9-9-15-3-3 1-5 8-12 4-7 6-19 2-11 5-3 10-3 26-9 14-4 41-14 16-5 52-17z" fill="#24A4FC"/>
<path transform="translate(1682,169)" d="m0 0h49l33 4 28 6 23 7 22 8 24 11 20 11 24 16 14 11 11 9 15 14 15 15 9 11 10 12 14 20 12 20 11 21 10 24 9 27 6 25 5 28 2 14v55l-6 37-8 34-9 26-10 23-10 20-16 26-12 16-9 11-11 13-22 22-11 9-15 12-21 14-19 11-15 8-26 11-38 13-4 4-16 36-17 39-9 20-6 9-7 7-12 6-8 2h-11l-9-2-11-6-9-9-8-15-17-39-13-30-8-18-4-4-41-14-25-11-19-10-24-15-21-16-15-13-10-9-11-11-7-8-11-13-12-16-13-20-10-18-8-16-10-24-8-24-6-24-1-5v-11l4-10 6-7 8-5 7-2h8l13 4 6 5 5 8 12 42 8 21 11 23 10 17 14 20 9 11 10 11 7 8 12 11 11 9 19 14 20 12 16 8 21 9 38 13 10 5 9 7 8 8 8 13 8 17 16 36 2 4 2 1 3-10 17-38 8-16 6-8 11-11 14-8 41-14 21-9 21-11 24-16 16-13 12-11 16-16 9-11 9-12 10-15 10-18 11-23 9-25 6-23 4-21 2-19v-40l-3-25-5-24-6-21-8-21-12-25-14-23-10-13-13-16-4-4v-2h-2l-6-7-8-7-12-11-16-12-19-12-18-10-20-9-22-8-28-7-27-4-12-1h-33l-26 3-20 4-19 5-20 7-18 8-16 8-14 8-16 11-14 11-14 12-16 16-9 11-13 17-12 19-10 18-11 26-10 30-6 10-9 6-4 2h-17l-10-5-8-9-4-11v-8l6-21 9-25 11-24 9-17 12-19 13-18 11-14 14-15 20-20 11-9 14-11 17-12 24-14 24-12 23-9 25-8 32-7 22-3z" fill="#010101"/>
<path transform="translate(838,1092)" d="m0 0h1113l31 1 5 6v838l-4 10-9 10-10 5-7 1h-1109v-1h1030l1-5h2l1-5 1-14 1-51v-790l1-4h-1047z" fill="#475960"/>
<path transform="translate(127,1293)" d="m0 0h49l88 1 9 3 8 6 5 4 5 9 1 4v15l-3 7-6 9-5 4-12 6-9 5-4 2-2 5-3 5-1 4v14l6 11 7 6v2l8 2 7 3v2l5 2 5 4 3 5 2 9h2v16l-4 9-6 8-6 5-9 4-7 3-8 7-4 9-1 16 2 4v4l3 1 5 6 3 2v2l8 2 12 6v2l4 2 3 4v3h2l1 2v6h2v17l-4 8-7 9-10 6-10 4-9 8-5 10v15l2 4v4l3 1 6 7v2l6 2 16 7v2l3 1 1 4 3 1 3 8v3h2v16l-4 10-5 5-4 5-7 3h-3v2l-6 2h-132l-11-2-9-3-16-8-13-12-7-8-8-14-4-12-2-5-1-7-1-24v-249l1-26 3-12 5-12 9-14 10-11 14-10 15-6 10-2z" fill="#FDDCCB"/>
<path transform="translate(1304,1425)" d="m0 0h172l56 1 15 3 15 6 11 6 12 9 12 12 9 13 8 16 5 17 2 15v10l-3 18-6 18-9 16-11 14-10 9-14 9-15 7-15 4-6 1-22 1h-205l-20-1-15-3-16-6-14-8-13-11-8-8-11-17-5-11-4-12-3-18v-13l3-20 5-15 8-15 11-14 7-7 16-12 14-7 12-4 11-2z" fill="#010101"/>
<path transform="translate(577,481)" d="m0 0h482l14 2 12 4 16 9 12 11 9 12 6 11 5 16 1 8v295l-1 11-1 2-3 20-6 23-8 22-9 19-12 20-12 16-12 14-13 13-11 9-12 9-7 5h-160v-1h73v-2l11-1v-2l-4-2-1-5 9-11h2l2-4 7-8 9-14 7-11 10-19 7-16 5-12 6-21 5-23 4-34v-84l1-64 2-10 1-2h2l1-5 2-2v-9h-2l-5 9-6 7-12 6h-13l-11-4-6-5-5-8-2-7-1-9v-62l2-10 5-8 5-5 8-5 7-2 11 1 9 4 9 8 2 6h2l-3-8-2-5 1-10-5-26-5-17-5-12-6-11-4-6 1-2 8-3-3-2v-2l-6 2-2 1h-7l-1-1-17-1h-273l-119-1z" fill="#FECDBB"/>
<path transform="translate(877,86)" d="m0 0h16l32 4 28 6 27 8 21 8 24 11 17 9 23 14 14 10 13 10 13 11 16 15 12 12 7 8 11 13 12 16 10 15 14 24 14 29 11 30 7 25 5 22 4 29 1 12 1 27v102l-15-1-21-2-4-21-6-21-11-23-10-14-11-12-8-8-15-11-21-11-18-6-13-3-21-2h-469l-26 1v-1l19-2 442-1 1-5-1-5-2-1 1-10 1-6-1-4 1-7-1-3-2-29-1-11-2-7-1-8-3-15-5-18-3-10-8-24-10-24-1-4-2-1-6-13-8-15-10-16-6-9-8-11-18-24-5-5-1-3h-2v-2h-2l-5-6-7-6v-2l-4-2-8-8-7-8-6-7z" fill="#A25140"/>
<path transform="translate(1869,281)" d="m0 0 4 2 13 10 13 12 11 10v2h2l7 8 13 16 11 16 12 20 12 25 9 25 7 28 4 25 1 11v40l-3 25-6 28-10 30-8 18-13 25-8 12-10 14-8 10-12 13-17 17-11 9-13 10-17 11-22 12-20 9-36 12-12 5-11 7-12 12-9 16-19 43-4 10-3-1-13-28-11-25-6-11-7-9-7-7-11-7-19-7-24-8-24-10-22-12-15-10-4-4 7 2 4 1h7l11 2 7 2 17 2h20l33-2 17-3 25-5 30-10 10-4 17-7 19-10 10-6h2v-2l11-6 13-9 14-11 6-6h2l2-4h2l2-4 12-12 8-10 9-13 11-17 6-10 15-36 7-18 4-13 6-24 4-29 1-12v-38l-2-23-3-13-3-15-4-16-4-15-6-16-7-12-11-23-1-7h-2z" fill="#FDCE60"/>
<path transform="translate(127,1293)" d="m0 0h49l88 1 9 3 8 6 5 4 5 9 1 4v15l-3 7-6 9-5 4-12 6-9 5-4 2-2 5-3 5-1 4v14l6 11 7 6v2l8 2 7 3v2l5 2 5 4 3 5 2 9h2v16l-4 9-6 8-6 5-9 4-7 3-8 7-4 9-1 16 2 4v4l3 1 5 6 3 2v2l8 2 12 6v2l4 2 3 4v3h2l1 2v6h2v17l-4 8-7 9-10 6-10 4-9 8-5 10v15l2 4v4l3 1 6 7v2l6 2 16 7v2l3 1 1 4 3 1 3 8v3h2v16l-4 10-5 5-4 5-7 3h-3v2l-6 2h-132l-11-2v-1l53-2 4-1 2-6 8-17 1-3h2l1-5 6-21 2-21 1-34v-250l-2-19-4-15-10-19-7-10-1-3 4-4-7-3-46-1z" fill="#FECDBA"/>
<path transform="translate(455,1879)" d="m0 0h312l1 1v83h-341v-57l3-8 4-6 8-8 8-4z" fill="#475960"/>
<path transform="translate(685,828)" d="m0 0h10l10 4 6 4 6 8 3 8 1 18 4 13 8 16 9 11 9 8 4 2v2l6 2 13 5 9 2h63l15-1 13-5 13-7 12-11 7-9 7-14 4-12 1-17 3-10 4-6 9-8 9-3h10l13 5 7 7 5 10 1 4v10l-2 18-4 15-4 12-8 16-10 15-11 12-7 7-13 10-13 8-8 4-10 4-17 4-9 2-9 1h-70l-21-3-21-7-21-11-12-9-12-11-9-10-1-3-4-4-6-10-5-10-5-12-4-13-3-19v-17l3-9 7-9 8-5z" fill="#030202"/>
<path transform="translate(623,1135)" d="m0 0 3 1v44l2 15 4 10 8 11 16 15 10 9 15 14 8 7 15 14 24 22 10 9 2 4-14 13-8 7-10 9-8 7-14 12-14 13-11 9-14 13-8 7-14 12-12 11-8 7-14 12-8 8h-2l-1-2v-267l2-8 4-8 7-8 19-14z" fill="#FDFCFB"/>
<path transform="translate(1459,1485)" d="m0 0h59l13 2 11 5v2l4 2 5 4 1 4h2l5 12 1 3v17l-3 9-6 9-4 5-5 2v2l-11 5-10 2h-226l-13-3-11-7-8-9-5-10-2-8v-12l4-12 6-9 8-7 11-6 4-1z" fill="#6EF6C7"/>
<path transform="translate(1607,525)" d="m0 0 13 1 8 4 7 7 5 12 2 19 4 12 7 13 9 10 13 9 13 5 10 2h15l12-3 12-5 11-8 8-8 8-13 5-15 3-23 5-9 9-7 10-3h8l10 3 6 4 6 7 4 11v13l-2 16-5 18-7 16-10 16-13 15-13 11-18 11-14 6-17 5-15 2h-20l-19-3-17-5-16-8-11-7-9-7-10-9-11-14-9-15-6-14-5-18-2-15v-14l3-10 7-8 7-5z" fill="#010101"/>
<path transform="translate(426,614)" d="m0 0h19l1 209-1 8h-17l-16-4-13-5-14-9-11-10-10-13-8-15-3-7-2-10-2-7v-57l4-16 4-12 8-14h2l2-5 10-11h2v-2l6-4 11-7 11-5z" fill="#FDCBB9"/>
<path transform="translate(1194,613)" d="m0 0h10l17 3 12 4 13 7 12 9 12 12 7 10 7 14 4 14 1 6 1 17v30l-2 19-5 17-8 15-12 14-11 10-14 8-16 6-14 3h-14z" fill="#FEBE92"/>
<path transform="translate(116,1061)" d="m0 0h9l16 3 14 6 12 8 8 7 8 10 8 15 4 15 1 20v87l-1 1-49 1-28 1-11 2-5 1v-163l3-6 7-6z" fill="#FECDBA"/>
<path transform="translate(814,614)" d="m0 0h8l9 2 9 6 6 8 3 7v14l-4 9-7 8-5 3-6 3-12 1-10 5-4 8v12l6 8v2l5 1 5 2 12 2 7 3 6 5 6 10 2 8-1 9-3 7-4 6-6 6-9 4h-13l-13-1-17-6-14-9-10-9-9-12-4-7-3-7-4-16-1-15 3-19 5-13 6-10 9-11 12-10 14-8 16-5z" fill="#030202"/>
<path transform="translate(1459,1485)" d="m0 0h59l13 2 11 5v2l4 2 5 4 1 4h2l5 12 1 3v17l-3 9-6 9-4 5-5 2v2l-11 5-10 2h-226v-1l140-1 10-1 3-1 3-9 3-10 2-14 1-15-6-17-8-13-75-1v-1z" fill="#299DEB"/>
<path transform="translate(686,1125)" d="m0 0 16 2 26 2 41 1v122l-4-1-5-5v-2l-4-2-7-6-13-13-10-8-5-5-6-5-16-16-8-7-5-4z" fill="#FECDBB"/>
<path transform="translate(992,567)" d="m0 0 11 1 9 4 9 8 4 8 1 4v74l-3 10-7 9-7 4-6 3h-13l-11-4-6-5-5-8-2-7-1-9v-62l2-10 5-8 5-5 8-5z" fill="#040202"/>
<path transform="translate(133,1063)" d="m0 0 8 1 14 6 12 8 8 7 8 10 8 15 4 15 1 20v87l-1 1-49 1h-20l4-2 26-1-2-9-1-78-2-25-3-15-6-15-9-14-5-7 2-4z" fill="#FCBC91"/>
<path transform="translate(640,567)" d="m0 0 10 1 12 6 7 8 4 11v73l-3 9-4 7-7 6-9 4h-14l-10-4-5-4-2-4-2-1-4-10v-74l2-10 6-9 9-6z" fill="#030202"/>
<path transform="translate(1597,383)" d="m0 0h14l10 5 5 4 5 8 2 7v43l-4 10-6 7-12 6h-13l-9-3-10-9-4-9-1-7v-37l3-10 5-7 9-6z" fill="#010101"/>
<path transform="translate(1800,383)" d="m0 0h14l10 4 8 8 4 9 1 5v38l-3 10-4 6-8 7-7 3h-13l-11-4-7-6-5-10-1-4v-43l4-10 7-8 8-4z" fill="#010101"/>
<path transform="translate(978,849)" d="m0 0h4l3 6v16l-3 26-5 17-5 12-5 8h-2l-2 4-6 8-2 3h-2l-2 4-10 9h-2v2l-5 2v2l-11 9-9 6-11 5-19 6-28 5-13 2h-43l-21-3-19-1-13-3-16-6-20-11-12-9-13-13-11-14-7-12-4-13v-11l4-1 10 20 7 11v2l3 1 3 5 9 10 11 10 15 10 21 10 16 5 21 3h70l16-2 14-4 10-3 16-8 14-9 13-11 10-10 10-14 6-10 5-11 6-19 3-15 1-11z" fill="#FEE4CE"/>
<path transform="translate(1529,1495)" d="m0 0h7l18 12 3 3 3 9v17l-3 9-6 9-4 5-5 2v2l-9 3h-72l-4-2-3-7 11-4v-14h5l3 7 5 1 4 2 10-1 6 1v2l15 1 13-3 2-3h2l3-6 1-8 3-9 1-12-3-4-1-2-3-3-4-3z" fill="#6DF2C6"/>
<path transform="translate(637,560)" d="m0 0 12 1 10 4 5 3v5l-3 1-11-5-10-1-10 3-9 6-6 10-1 8v74l3 7v3l3 1 1 4 12 6 3 1h14l12-6 6-7 3-7 1-5v-73l-2-10 4 1 3 5 4 4v51l1 11v14l-3 11-6 8-11 8-9 4-12 2-10-2-9-5-8-9-5-8-4-11-2-11v-47l1-14 5-11 5-8 4-6 8-6 6-3z" fill="#FCE0CA"/>
<path transform="translate(1068,483)" d="m0 0 8 1 11 4 14 8 12 11 9 12 6 11 4 12v63l-1 209v37l-2 3-2-13-1-27-1-43v-126l1-59v-34l-2-11-3-1 1-3-2-1-4-8-6-9-2-2-4-5-3-3v-3l-4-2-15-11-5-2-6-3-3-3z" fill="#FCDCCA"/>
<path transform="translate(764,1130)" d="m0 0h5v122l-4-1-5-5v-2l-4-2-7-6-13-13-10-8-5-5-6-5-16-16-8-7-4-5 1-2 9 3 10 8 7 6v2l4 2 10 9 8 6v2l4 2 7 6 10 7 3-2v-11l-1-27v-47l-3-3-4-3 1-3 8-1z" fill="#F7D2C0"/>
<path transform="translate(721,845)" d="m0 0 4 5 4 7 2 14 4 12h2l7 8 1 3h2v2h2l5 6 11 8 5 5v4l5 1 9 3h64l4 2v2l-4 2-16 1-4 1h-41l-13-1-13-5-6-3v-2l-5-2-12-11-7-10-7-14-4-13-1-23h2z" fill="#FDE2CD"/>
<path transform="translate(691,483)" d="m0 0h256l-2 2-6 2-7 1-29 2h-177l-32-2-5-1v-3z" fill="#FFE7D2"/>
<path transform="translate(857,1021)" d="m0 0h55l12 1 5 2-1 4-3 1-32 2-62 2-16 4-14 7-11 9-8 9-4 7h-7l-2-2-1-7h2l2-4 6-6h2l2-4 13-10h3v-2l13-7 8-2 12-2z" fill="#FEE5CF"/>
<path transform="translate(792,616)" d="m0 0m-4 1h4v2l-15 8-9 7-8 7-8 11-7 14-4 16-1 15 2 14 4 13 6 12 7 9 7 8 13 9 10 5 8 3 2 1v2l-3 1h-7l-7-2-4-3-15-6-10-8-8-9-5-7-5-16-2-11-2-6v-22l4-14 8-17 12-16 8-7 5-4h2v-2l8-3 9-3z" fill="#FEE4CE"/>
<path transform="translate(121,1295)" d="m0 0h26v4l-6 2-17 2-14 5-14 9-8 7-8 10-7 14-3 14-1 24-1 22-1 9-3-1-3-24v-36l4-13 7-13 10-13 9-8 10-7 15-6z" fill="#FDE4CF"/>
<path transform="translate(433,614)" d="m0 0h11l-1 38v112l-1 21-3 3-1-2-1-9v-79l-1-18v-38l1-3h-2l2-11-3-5-5-2v-5z" fill="#FDDCCB"/>
<path transform="translate(565,986)" d="m0 0h4v2l2 1 8 8 5 2 11 9 2 4 7 7 11 7 3 3 10 5 8 5 12 6 7 4 10 3 9 4 17 3 14 4 5 2v2h-10l-26-6-15-5-10-4-21-10-14-8-12-8v-2l-4-1v-2l-5-2-12-11-18-18z" fill="#F9DBC5"/>
<path transform="translate(1125,873)" d="m0 0h4v9l-6 23-8 22-9 19-12 20-12 16-12 14-13 13-11 9-12 9-6 4h-6v-2h2v-2l11-8 14-12 8-7 7-7h2l2-4 13-14h3l1-4 2-4 5-5 4-7 4-5 1-4h2l3-10 4-8 3-10h2l3-14 2-6 1-6 2-10 1-8z" fill="#FCD8C5"/>
<path transform="translate(1132,546)" d="m0 0h1l1 8v295l-1 11h-1l-1-71v-197z" fill="#DC9A81"/>
<path transform="translate(60,1361)" d="m0 0h1l1 68 1 242-2-4-1-7-1-24v-249z" fill="#D29274"/>
<path transform="translate(505,547)" d="m0 0h1l1 132v182h2l2 16v10h-1l-4-20-2-21v-293z" fill="#D69070"/>
<path transform="translate(1463,1500)" d="m0 0 7 1 1 3 10 2-1 4 7 1 11 2 4 4-1 3-5 2-4-1-4 2-7 2-3 1-1 5-7 1-4 5-3-1-3-15-3-7 2-8 3 1z" fill="#6EF6C8"/>
<path transform="translate(989,561)" d="m0 0h9l8 3v2l4 2 2 3-9-2-11-1-11 4-5 4h-2l-7 14-1 7-1 51-2 6-3-4-1-2-2-31 2-27 7-14h2l2-4 3-3 11-6z" fill="#FEE4CF"/>
<path transform="translate(569,482)" d="m0 0h11l4 1-1 4-19 4-11 5-4 2h-3v2l-6 4-9 7-2 3h-2l-6 12-6 15-3 9h-2v-20l5-9 8-11 9-10 12-9 8-4 13-4z" fill="#FDE2CD"/>
<path transform="translate(507,542)" d="m0 0h1v60l1 78 1 37v55l-2 89h-1l-1-16v-299z" fill="#FFCEBC"/>
<path transform="translate(65,1657)" d="m0 0 2 2 3 12 4 9 3 9h2l4 7v2l4 2 7 6 9 7 6 5 6 4 3 3h-10l-14-8-12-11-7-8-8-14-4-12 1-14z" fill="#FCE1CB"/>
<path transform="translate(844,722)" d="m0 0 4 3v2l3 1 7 10 1 4v10l-3 8-4 6-4 2-1 3-10 6-7 1-5-2 2-4 10-5 7-8 3-5 2-9-1-9-5-10z" fill="#FEE3CD"/>
<path transform="translate(998,113)" d="m0 0 8 1 29 14 22 13 18 12 17 13 13 11 16 15 12 12 7 8 11 13 1 4-4-3v-2h-2l-7-8-7-9-12-12-8-7v-2l-4-2-3-2v-2l-4-2-3-2v-2h-2v-2l-5-2-9-6-5-6-5-2v-2l-4-1-5-4-3-1v-2l-4-1-3-2-7-3-2-3-4-1v-2l-4-1-3-1v-2l-5-1-3-1v-2h-5v-2h-3v-2l-5-1-9-3v-2h-4z" fill="#B35B4A"/>
<path transform="translate(847,631)" d="m0 0 4 2 7 8 1 3v9l-3 9-5 6-7 6h-3v2l-5 2-14 1-2-2 3-1v-2l8-3 6-3 8-9 3-8v-14z" fill="#FDE3CD"/>
<path transform="translate(577,481)" d="m0 0h421l-4 4h-7l-1-1-17-1h-273l-119-1z" fill="#FFC6A7"/>
<path transform="translate(910,882)" d="m0 0h2l-1 9-9 14-11 11-11 7-11 5-10-1-2-3 5-2 6-1 11-7 8-6 5-5 3-1 2-4h2l2-6h2l2-6z" fill="#FEE4CF"/>
<path transform="translate(810,676)" d="m0 0h7l2 3-9 6-3 4 3 9 3 6 14 7 13 3 3 4 1 5-2 2-5-5-4-3-7-2-12-2-7-3-7-10v-12l5-8z" fill="#FCDEC9"/>
<path transform="translate(356,765)" d="m0 0 3 1 2 7 2 2 1 6 3 1 1 5 2 1 2 5 6 4 9 9v2l5 2 6 2v2l4 1 9 6 2 1-1 3h-6l-14-7-11-8-5-5-10-12-8-14-3-7v-6z" fill="#F8D4C1"/>
<path transform="translate(120,1728)" d="m0 0h149l-3 2-3 1h-132l-11-2z" fill="#DA9372"/>
<path transform="translate(411,410)" d="m0 0h1l-1 37v93l-1 15 14-3 18-1 1-1 1-11 2-6 3-12 2-3-1 7-4 21-1 7-3 1-27 2h-6l-1-1 1-122z" fill="#A25140"/>
<path transform="translate(518,907)" d="m0 0 4 1 2 9-1 2 4 2 3 7 3 8 6 12v3l4 2 2 7h2l4 10 4 2 4 5 1 3 2 2 1 4 1 2-4-2-10-12-11-17-7-12-11-24-3-8z" fill="#FEE1CB"/>
<path transform="translate(158,1074)" d="m0 0 5 1 12 10 8 10 8 15 3 10v20h-1l-2-13-1-3h-2l-4-11-8-16-6-9v-2h-2l-2-6h-2v-2l-4-2z" fill="#F8C5B1"/>
<path transform="translate(1125,873)" d="m0 0h4v9l-6 23-8 22-9 19-4 5-1-5h2l3-10 4-8 3-10h2l3-14 2-6 1-6 2-10 1-8z" fill="#FDDAC7"/>
<path transform="translate(1019,681)" d="m0 0 1 2-3 7-4 4h-3v2l-9 3-8 1-11-4-6-4-1-4 4-1 11 4h13l12-6z" fill="#FEE3CD"/>
<path transform="translate(395,626)" d="m0 0 2 1-3 1-1 3-6 3-4 6h-2v2l-5 4h-2l-2 5-5 9-4 4-1 5-2 3 1 2-4 6-3-1 1-8 7-14 3-5h2l2-5 10-11h2v-2l6-4 4-3z" fill="#F6CEBB"/>
<path transform="translate(507,542)" d="m0 0h1v60l1 76-2 2-1-1v-133z" fill="#FFCDBA"/>
<path transform="translate(733,1058)" d="m0 0h10l13 1 4 2-3 2-19 2-5 3h-15l-8-1v-2l-4-1 4-1h9l10-2z" fill="#FEE6D1"/>
<path transform="translate(664,839)" d="m0 0 1 3-3 6-1 5v27l-5-3-2-5-1-16 3-10 5-6z" fill="#FEE3CE"/>
<path transform="translate(1452,1556)" d="m0 0 5 5v3l10 1h41l22 1v1l-5 1h-80l1-2h2l3-9z" fill="#24A5FC"/>
<path transform="translate(256,1413)" d="m0 0 3 1v2h7l9 4v2l5 2 5 4v6l-4 3-4-3v-2l-2-1-1-3-4-2-1-3-5-2-7-4-2-2z" fill="#F8D2BF"/>
<path transform="translate(935,481)" d="m0 0h63l-4 4h-7l-1-1-17-1h-107v-1z" fill="#FFC9B0"/>
<path transform="translate(264,1541)" d="m0 0 7 1 9 4v2l4 2 2 7-4 3-5-2-4-4-3-6-3-1-3-4z" fill="#F8D3C1"/>
<path transform="translate(114,1062)" d="m0 0h7l-3 1 1 2 3-1 2 1v3l-9 2-5 4-4 9h-2l-1 2-1-1v-9l3-6 7-6z" fill="#F9D6C3"/>
<path transform="translate(1241,626)" d="m0 0 5 1 12 9 12 12 7 10-1 4-12-11-4-8-6-6v-2h-2v-2l-5-2-6-4z" fill="#F6C2AE"/>
<path transform="translate(267,1666)" d="m0 0h6l7 3v2l3 1 2 4-1 5-3 3-1-4-4-2-8-8v-2l-2-1z" fill="#F9D5C2"/>
<path transform="translate(106,1126)" d="m0 0h2l1 2v28l-1 8 1 4-3 1-1-7v-30z" fill="#FDDCCB"/>
<path transform="translate(685,822)" d="m0 0 13 1 5 2 1 2 4 1 1 3-14-2-13-1v-4z" fill="#FEE4CF"/>
<path transform="translate(1985,1128)" d="m0 0h2v44h-2l-1-21-1-10z" fill="#5B6E76"/>
<path transform="translate(947,823)" d="m0 0 10 1 2 1v2l4 1v2l-10-1h-13l1-5z" fill="#FEE3CD"/>
<path transform="translate(443,785)" d="m0 0h1v45l-2 1h-14l-10-2v-1h12l13 1z" fill="#ECA781"/>
<path transform="translate(1273,787)" d="m0 0 3 1-6 8-11 12-3 2v-4h2l1-5 7-6 5-5z" fill="#EFB5A0"/>
<path transform="translate(505,845)" d="m0 0h2v16h2l2 16v10h-1l-4-20-1-8z" fill="#D6987E"/>
<path transform="translate(816,609)" d="m0 0 9 1 9 4 1 4-13-3-10-2z" fill="#FEE3CD"/>
<path transform="translate(802,773)" d="m0 0h7l12 2-4 4h-11l-4-1-1-4z" fill="#FEE6D1"/>
<path transform="translate(360,663)" d="m0 0 2 1 1 4-3 4 1 2-4 6-3-1 1-8 3-7z" fill="#F7D1BE"/>
<path transform="translate(257,1362)" d="m0 0 1 3-3 3h-2l-2 5-3 5-1 4h-2l1-9 3-6 4-2z" fill="#F8CFBA"/>
<path transform="translate(1895,717)" d="m0 0h2l-2 4-14 12-9 7-1-3 7-5 3-3h2l1-3z" fill="#E7B769"/>
<path transform="translate(660,881)" d="m0 0 3 3 3 12v6l-4-4v-4h-2l-1-6z" fill="#FEE2CB"/>
<path transform="translate(1936,670)" d="m0 0 1 3-7 10-8 10-4 3v-3l11-13h2l1-5z" fill="#E6B468"/>
<path transform="translate(671,828)" d="m0 0h7v3l-9 6-3 3-1-6z" fill="#FEE2CC"/>
<path transform="translate(1132,204)" d="m0 0 5 5 10 11 5 7-1 2-3-3v-2h-2l-7-8-7-9z" fill="#B05948"/>
<path transform="translate(1985,1099)" d="m0 0h2v29h-2l-1-27z" fill="#51636B"/>
<path transform="translate(450,518)" d="m0 0 1 4-4 18-2 13-4 1 2-4 1-11 2-6 3-12z" fill="#9E5141"/>
<path transform="translate(430,532)" d="m0 0 5 5-5 4-4-1-2-3 3-3z" fill="#A25140"/>
<path transform="translate(698,1128)" d="m0 0h14l3 3-2 1h-9l-6-3z" fill="#FDD9C5"/>
<path transform="translate(1889,298)" d="m0 0 4 1 8 8-4 1-4-2-4-6z" fill="#EBBB68"/>
<path transform="translate(965,671)" d="m0 0 3 1 4 8v3h-4l-3-9z" fill="#FEE1CB"/>
<path transform="translate(1770,550)" d="m0 0h1v12l-2 9h-1v-14z" fill="#D39251"/>
<path transform="translate(1707,617)" d="m0 0h15l-3 2-6 1h-15v-1l8-1z" fill="#C5834E"/>
<path transform="translate(1923,334)" d="m0 0 8 6 1 5-6-4-4-6z" fill="#F4CC71"/>
<path transform="translate(920,843)" d="m0 0 1 4-3 7h-1l-1-9z" fill="#FEE3CD"/>
<path transform="translate(1241,626)" d="m0 0 5 1 11 8-3 2v-2h-2v-2l-5-2-6-4z" fill="#FECCB3"/>
<path transform="translate(1936,670)" d="m0 0 1 3-7 10-2 1 1-4h2l1-5z" fill="#E3AE63"/>
<path transform="translate(1881,729)" d="m0 0h2l-2 4-9 7-1-3 7-5z" fill="#E2AE64"/>
<path transform="translate(516,896)" d="m0 0h2l1 6-2 5h-1l-1-10z" fill="#FEE3CE"/>
<path transform="translate(251,1409)" d="m0 0 5 1 4 3v2l2 1h-3v-2h-5z" fill="#E7B39B"/>
<path transform="translate(1281,775)" d="m0 0 1 2-5 9-2-3 4-7z" fill="#DEA48E"/>
<path transform="translate(1277,660)" d="m0 0 3 3 3 9-2-1v-3l-4-2-1-4z" fill="#DF9C85"/>
<path transform="translate(1867,740)" d="m0 0 3 1-11 7v-3z" fill="#E4B266"/>
</svg>
