<svg width="368" height="368" viewBox="0 0 368 368" fill="none" xmlns="http://www.w3.org/2000/svg">
<g clip-path="url(#clip0_1144_970)">
<path d="M184 8C281.2 8 360 86.8 360 184C360 281.2 281.2 360 184 360C86.8 360 8 281.2 8 184C8 86.8 86.8 8 184 8ZM264 152C264 143.2 256.8 136 248 136C239.2 136 232 143.2 232 152C232 160.8 239.2 168 248 168C256.8 168 264 160.8 264 152ZM136 152C136 143.2 128.8 136 120 136C111.2 136 104 143.2 104 152C104 160.8 111.2 168 120 168C128.8 168 136 160.8 136 152Z" fill="#E6F3FB" fill-opacity="0.81"/>
<path d="M248 168C256.837 168 264 160.837 264 152C264 143.163 256.837 136 248 136C239.163 136 232 143.163 232 152C232 160.837 239.163 168 248 168Z" fill="#E6F3FB" fill-opacity="0.81"/>
<path d="M120 168C128.837 168 136 160.837 136 152C136 143.163 128.837 136 120 136C111.163 136 104 143.163 104 152C104 160.837 111.163 168 120 168Z" fill="#E6F3FB" fill-opacity="0.81"/>
<path d="M184 0C82.544 0 0 82.544 0 184C0 285.456 82.544 368 184 368C285.456 368 368 285.456 368 184C368 82.544 285.456 0 184 0ZM184 352C91.36 352 16 276.64 16 184C16 91.36 91.36 16 184 16C276.64 16 352 91.36 352 184C352 276.64 276.64 352 184 352Z" fill="#0084D7"/>
<path d="M144 152C144 138.768 133.232 128 120 128C106.768 128 96 138.768 96 152C96 165.232 106.768 176 120 176C133.232 176 144 165.232 144 152ZM112 152C112 147.592 115.592 144 120 144C124.408 144 128 147.592 128 152C128 156.408 124.408 160 120 160C115.592 160 112 156.408 112 152Z" fill="#0084D7"/>
<path d="M248 128C234.768 128 224 138.768 224 152C224 165.232 234.768 176 248 176C261.232 176 272 165.232 272 152C272 138.768 261.232 128 248 128ZM248 160C243.592 160 240 156.408 240 152C240 147.592 243.592 144 248 144C252.408 144 256 147.592 256 152C256 156.408 252.408 160 248 160Z" fill="#0084D7"/>
<path d="M250.032 226.664C233.36 245.312 209.296 256 184 256C158.776 256 134.696 245.304 117.952 226.656C115 223.36 109.944 223.088 106.656 226.048C103.368 229 103.096 234.056 106.048 237.344C125.824 259.368 154.24 272 184 272C213.84 272 242.256 259.36 261.968 237.336C264.912 234.04 264.632 228.992 261.336 226.04C258.032 223.096 252.976 223.368 250.032 226.664Z" fill="#0084D7"/>
</g>
<defs>
<clipPath id="clip0_1144_970">
<rect width="368" height="368" fill="white"/>
</clipPath>
</defs>
</svg>
