<svg width="368" height="368" viewBox="0 0 368 368" fill="none" xmlns="http://www.w3.org/2000/svg">
    <g clip-path="url(#clip0_2021_2)">
        <path d="M184 8C281.2 8 360 86.8 360 184C360 281.2 281.2 360 184 360C86.8 360 8 281.2 8 184C8 86.8 86.8 8 184 8ZM264 152C264 143.2 256.8 136 248 136C239.2 136 232 143.2 232 152C232 160.8 239.2 168 248 168C256.8 168 264 160.8 264 152ZM136 152C136 143.2 128.8 136 120 136C111.2 136 104 143.2 104 152C104 160.8 111.2 168 120 168C128.8 168 136 160.8 136 152Z" fill="#E6F3FB" fill-opacity="0.81"/>
        <path d="M247 168C255.837 168 263 160.837 263 152C263 143.163 255.837 136 247 136C238.163 136 231 143.163 231 152C231 160.837 238.163 168 247 168Z" fill="#E6F3FB" fill-opacity="0.81"/>
        <path d="M119 168C127.837 168 135 160.837 135 152C135 143.163 127.837 136 119 136C110.163 136 103 143.163 103 152C103 160.837 110.163 168 119 168Z" fill="#E6F3FB" fill-opacity="0.81"/>
        <path d="M184 0C82.544 0 0 82.544 0 184C0 285.456 82.544 368 184 368C285.456 368 368 285.456 368 184C368 82.544 285.456 0 184 0ZM184 352C91.36 352 16 276.64 16 184C16 91.36 91.36 16 184 16C276.64 16 352 91.36 352 184C352 276.64 276.64 352 184 352Z" fill="#0084D7"/>
        <path d="M143 152C143 138.768 132.232 128 119 128C105.768 128 95 138.768 95 152C95 165.232 105.768 176 119 176C132.232 176 143 165.232 143 152ZM111 152C111 147.592 114.592 144 119 144C123.408 144 127 147.592 127 152C127 156.408 123.408 160 119 160C114.592 160 111 156.408 111 152Z" fill="#0084D7"/>
        <path d="M247 128C233.768 128 223 138.768 223 152C223 165.232 233.768 176 247 176C260.232 176 271 165.232 271 152C271 138.768 260.232 128 247 128ZM247 160C242.592 160 239 156.408 239 152C239 147.592 242.592 144 247 144C251.408 144 255 147.592 255 152C255 156.408 251.408 160 247 160Z" fill="#0084D7"/>
        <path d="M183 267C208.296 267 232.36 256.312 249.032 237.664C251.976 234.368 257.032 234.096 260.336 237.04C263.632 239.992 263.912 245.04 260.968 248.336C241.256 270.36 209.5 283 183 283H159.5V267H183Z" fill="#0084D7"/>
        <path d="M152.007 120.665C143.672 111.342 131.642 105.999 118.995 105.999C106.385 105.999 94.346 111.346 85.975 120.669C84.4992 122.317 81.9715 122.453 80.3277 120.973C78.6839 119.497 78.5479 116.97 80.0237 115.326C89.9105 104.315 104.117 98 118.995 98C133.913 98 148.12 104.319 157.975 115.33C159.446 116.978 159.306 119.501 157.659 120.977C156.007 122.449 153.479 122.313 152.007 120.665Z" fill="#0084D7"/>
        <path d="M281.014 119.553C272.678 102.461 260.646 92.665 247.999 92.665C235.387 92.665 223.347 102.468 214.976 119.56C213.5 122.581 210.972 122.831 209.328 120.118C207.684 117.412 207.548 112.778 209.024 109.764C218.912 89.578 233.119 78 247.999 78C262.918 78 277.126 89.5853 286.982 109.772C288.454 112.793 288.314 117.419 286.666 120.125C285.014 122.823 282.486 122.574 281.014 119.553Z" fill="#0084D7"/>
    </g>
    <defs>
        <clipPath id="clip0_2021_2">
            <rect width="368" height="368" fill="white"/>
        </clipPath>
    </defs>
</svg>